<svg width="618" height="612" viewBox="0 0 618 612" fill="none" xmlns="http://www.w3.org/2000/svg">
<path d="M214.009 108.09C131.855 148.293 99.1266 118.124 56.546 150.153C-8.97741 199.436 -13.776 337.978 22.7774 428.299C67.5453 538.922 189.684 621.254 328.964 611.163C477.293 600.423 590.947 488.275 613.471 355.01C633.581 236.002 572.235 115.946 486.751 40.831C475.674 31.102 396.584 -14.5877 329.47 4.69875C273.997 20.6294 279.133 76.2244 214.009 108.09Z" fill="#FFFDB7"/>
<path d="M128.545 509.226C135.001 511.566 150.606 516.838 153.974 507.457C154.118 507.057 154.041 506.614 153.959 506.199C152.037 496.532 146.217 484.815 140.97 476.645C137.993 472.011 137.337 466.32 136.832 460.852C133.71 427.38 136.86 392.992 125.707 360.716C124.411 356.975 122.932 353.214 120.441 350.12C111.181 338.641 84.8994 345.143 82.8759 360.03C81.551 369.745 87.5734 378.682 91.8709 387.053C96.8767 396.792 102.268 406.33 107.038 416.183C112.964 428.433 117.984 441.361 119.834 454.889C121.52 467.211 117.261 478.647 118.48 490.678C118.76 493.443 119.116 496.265 119.916 498.915C120.725 498.82 125.794 497.08 126.266 498.248C127.538 501.384 123.573 505.551 125.977 507.953C126.497 508.473 127.21 508.74 127.904 508.992C128.106 509.064 128.318 509.145 128.545 509.226Z" fill="#F7CE4D"/>
<path d="M186.393 385.245C186.393 369.844 166.861 357.359 142.772 357.359C118.678 357.359 99.1458 369.844 99.1458 385.245C99.1458 400.647 118.678 413.131 142.772 413.131C143.981 413.131 145.176 413.088 146.361 413.031C146.65 417.793 148.732 421.497 151.271 421.497C154.002 421.497 156.214 417.202 156.214 411.906C156.214 411.863 156.209 411.82 156.209 411.777C157.057 411.601 157.886 411.405 158.705 411.2C159.182 415.528 161.167 418.77 163.537 418.77C166.269 418.77 168.48 414.475 168.48 409.184C168.48 408.707 168.461 408.245 168.427 407.792C170.47 406.839 172.373 405.776 174.127 404.617C174.502 408.011 175.731 410.509 177.196 410.509C178.954 410.509 180.38 406.915 180.38 402.477C180.38 401.466 180.303 400.499 180.168 399.607C184.119 395.408 186.393 390.498 186.393 385.245Z" fill="#FFFDB7"/>
<path d="M151.27 422.604C148.322 422.604 145.923 419.124 145.34 414.186C144.434 414.224 143.581 414.238 142.772 414.238C129.363 414.238 110.868 409.314 102.99 400.186C102.59 399.723 102.648 399.023 103.116 398.627C103.588 398.231 104.291 398.289 104.696 398.751C112.13 407.374 129.865 412.026 142.772 412.026C143.856 412.026 145.012 411.993 146.298 411.926C146.939 411.893 147.44 412.355 147.479 412.965C147.753 417.551 149.661 420.392 151.27 420.392C153.077 420.392 155.096 416.908 155.096 411.907C155.096 411.898 155.091 411.802 155.091 411.793C155.081 411.264 155.457 410.801 155.978 410.692C156.773 410.53 157.596 410.344 158.43 410.129C158.743 410.053 159.08 410.11 159.34 410.291C159.61 410.477 159.784 410.763 159.817 411.083C160.275 415.206 162.067 417.67 163.537 417.67C165.348 417.67 167.367 414.181 167.367 409.185C167.367 408.785 167.348 408.37 167.309 407.875C167.276 407.417 167.531 406.988 167.95 406.792C169.93 405.868 171.8 404.829 173.505 403.704C173.833 403.484 174.247 403.456 174.604 403.618C174.955 403.78 175.196 404.118 175.24 404.5C175.62 407.946 176.791 409.405 177.196 409.405C177.793 409.405 179.262 406.978 179.262 402.479C179.262 401.559 179.195 400.648 179.06 399.771C179.012 399.437 179.118 399.099 179.349 398.851C183.04 394.933 185.285 392.192 185.285 387.215C185.285 386.605 185.786 386.109 186.398 386.109C187.019 386.109 187.52 386.605 187.52 387.215C187.52 392.811 185.087 395.972 181.349 399.976C181.445 400.796 181.498 401.635 181.498 402.479C181.498 407.017 180.019 411.616 177.196 411.616C175.384 411.616 173.953 409.686 173.288 406.464C172.108 407.179 170.87 407.846 169.583 408.47C169.598 408.718 169.603 408.952 169.603 409.185C169.603 415.182 166.938 419.882 163.537 419.882C160.844 419.882 158.565 416.931 157.775 412.57C157.62 412.603 157.466 412.637 157.317 412.67C157.105 418.299 154.523 422.604 151.27 422.604Z" fill="black"/>
<path d="M454.837 153.032C454.914 152.765 453.628 146.697 447.244 144.824C450.13 134.203 455.733 124.932 466.091 112.81C466.679 112.123 465.879 111.289 465.06 111.68C443.52 121.962 437.555 123.435 427.105 144.337C428.237 161.074 443.534 160.778 453.931 163.567C453.931 163.567 454.832 153.046 454.837 153.032Z" fill="black"/>
<path d="M340.113 511.67C347.508 515.026 355.626 515.517 363.306 512.561C370.172 509.916 356.961 486.906 355.93 482.23C350.837 459.087 358.252 435.192 362.53 412.192C364.144 403.516 364.144 393.577 368.606 385.984C375.312 374.553 395.186 357.393 394.319 355.376C391.154 348.026 331.662 342.334 329.118 349.666C327.899 353.184 340.373 400.709 340.835 420.953C341.327 442.175 341.664 460.069 335.059 478.908C332.939 484.962 332.645 493.423 333.705 499.924C334.514 499.729 339.8 498.309 340.122 499.867C340.792 503.085 335.266 507.356 337.516 510.035C338.123 510.759 339.019 511.174 339.882 511.57C339.959 511.598 340.026 511.632 340.098 511.665C340.103 511.67 340.108 511.67 340.113 511.67Z" fill="#F7CE4D"/>
<path d="M411.986 148.504C405.458 151.383 386.244 172.037 379.046 174.983C357.925 183.63 341.452 194.508 318.49 196.896C312.256 197.549 291.611 201.372 285.675 202.411C263.58 206.287 248.924 207.831 226.531 209.232C200.808 210.834 161.388 200.462 135.834 198.126C106.319 195.428 69.2072 191.061 51.6267 222.627C40.0397 243.429 42.6799 271.253 45.6092 294.119C48.0567 313.21 50.1332 335.757 60.6073 352.441C69.3325 366.341 87.8236 376.323 103.983 377.743C121.082 379.25 138.402 372.953 155.293 375.984C168.046 378.268 179.311 385.67 191.89 388.745C209.524 393.059 228.048 385.47 245.388 382.443C265.334 378.959 285.733 376.895 305.939 379.307C327.307 381.852 343.933 384.722 364.588 376.18C372.21 373.029 383.517 368.381 389.848 363.123C418.037 339.695 409.409 297.518 426.247 267.387C433.368 254.646 436.191 236.336 446.502 225.945C450.134 222.284 461.124 226.083 463.827 221.702C477.447 199.599 462.94 166.46 437.911 160.473C423.034 156.917 423.92 143.246 411.986 148.504Z" fill="#F7CE4D"/>
<path d="M413.311 145.285C409.549 147.368 406.417 150.982 404.336 156.735C402.977 160.496 402.592 164.524 402.216 168.504C401.628 174.758 401.084 181.289 403.454 187.114C406.6 194.841 415.773 199.598 418.149 207.42C419.165 210.771 418.385 213.932 419.83 217.388C421.642 221.726 424.927 225.534 428.57 228.485C439.877 237.647 451.517 236.174 465.032 235.883C482.188 235.511 498.54 243.433 514.266 234.505C519.112 231.755 521.348 219.194 519.695 214.523C514.111 210.714 508.528 206.906 502.944 203.092C501.638 202.201 500.323 201.309 499.181 200.218C497.649 198.745 496.464 196.957 495.293 195.184C489.405 186.27 482.41 178.319 478.637 168.214C477.968 166.412 477.37 164.519 476.079 163.084C469.522 155.839 453.502 151.215 444.671 147.826C434.342 143.87 422.104 140.404 413.311 145.285Z" fill="#F7CE4D"/>
<path d="M277.948 340.466C278.294 367.055 296.231 390.87 303.511 415.777C308.344 432.289 305.371 455.551 305.617 472.64C305.728 480.062 307.038 484.037 303.752 490.711C303.198 491.84 296.819 505.235 300.095 505.902C302.201 506.332 304.383 504.849 305.641 503.3C304.552 507.166 303.752 510.474 304.171 513.129C304.658 516.218 306.802 518.415 312.073 519.574C314.756 520.16 332.038 521.461 333.941 519.102C336.042 516.509 326.931 498.323 326.31 494.92C323.689 480.557 321.824 480.643 322.759 466.004C324.007 446.57 335.979 419.18 341.154 400.499C346.468 381.308 348.828 359.29 351.377 339.608C353.116 326.161 277.789 328.397 277.948 340.466Z" fill="#F7CE4D"/>
<path d="M63.1947 387.896C60.5978 399.631 55.7269 410.757 53.4336 422.569C53.0819 424.381 52.7928 426.278 53.318 428.046C53.713 429.386 54.5369 430.544 55.2981 431.717C67.0249 449.778 66.7406 473.135 63.7198 493.647C63.2476 496.831 59.8799 504.601 63.8451 505.964C64.2498 506.102 69.7663 500.95 70.0216 502.646C70.5323 506.079 71.2935 508.943 72.2908 511.298C76.7811 521.88 86.1182 522.105 99.6228 516.432C100.254 516.17 100.948 515.822 101.155 515.174C104.489 504.668 90.5459 493.609 87.5491 484.008C87.5491 475.085 84.9475 466.714 85.7761 457.391C87.024 443.286 84.986 428.733 92.3044 415.934C108.507 387.614 135.434 368.933 146.25 337.115C151.892 320.493 153.761 302.98 156.883 285.796C158.478 276.996 48.264 269.856 49.4781 281.382C51.863 304.115 52.3399 329.703 60.0437 351.301C64.0908 362.636 65.8108 376.069 63.1947 387.896Z" fill="#F7CE4D"/>
<path d="M394.579 180.364C404.022 180.607 406.826 178.977 409.9 171.188C411.495 167.16 407.347 160.41 405.66 159.195C391.688 149.075 385.257 152.483 368.418 147.32C367.599 147.068 366.828 147.835 367.108 148.636C370.533 158.508 377.615 168.475 389.93 178.638C391.245 179.72 392.903 180.316 394.579 180.364Z" fill="#F7CE4D"/>
<path d="M100.827 404.047C100.601 404.047 100.37 403.98 100.172 403.837C99.6709 403.479 99.5601 402.788 99.9215 402.292C104.667 395.838 109.866 389.68 114.905 383.721C120.966 376.547 127.239 369.125 132.611 361.26C132.958 360.75 133.656 360.621 134.167 360.96C134.678 361.303 134.813 361.994 134.466 362.499C129.026 370.455 122.72 377.92 116.62 385.142C111.61 391.071 106.43 397.202 101.733 403.594C101.516 403.894 101.174 404.047 100.827 404.047Z" fill="black"/>
<path d="M32.0687 237.675C41.1881 224.1 49.7658 215.854 57.9097 211.657L40.9627 241.192L40.9245 241.259L40.9081 241.334C37.4538 257.054 35.3485 279.377 33.4419 304.777C32.872 312.369 32.3198 320.237 31.7547 328.288C30.4393 347.031 29.0539 366.771 27.2128 386.343L19.5589 385.565C21.4809 363.071 22.635 341.199 23.6958 321.094C24.0944 313.54 24.4798 306.235 24.8878 299.241C26.3883 273.521 28.1939 252.026 32.0687 237.675Z" fill="#F7CE4D" stroke="black"/>
<path d="M28.5282 378.769C29.7102 383.318 30.6429 387.7 30.8285 391.653C31.008 395.477 30.4857 398.848 28.8573 401.564L25.5566 396.121L24.847 394.951L24.6351 396.303C23.767 401.841 22.5043 405.875 20.8956 408.524C19.3847 411.013 17.6009 412.235 15.5669 412.403C14.2968 408.639 14.2164 403.931 15.0309 398.968C15.8618 393.905 17.6172 388.617 19.9381 383.869L28.5282 378.769Z" fill="#F7CE4D" stroke="black"/>
<path d="M428.854 161.426C428.873 161.155 430.222 154.486 420.658 156.636C418.669 157.084 416.828 155.463 417.098 153.466C418.505 142.874 423.544 130.647 430.188 117.686C430.713 116.657 429.336 115.713 428.55 116.566C413.885 132.454 400.284 135.233 397.667 158.986C401.821 172.49 412.487 172.986 422.484 172.762C426.734 172.667 429.952 168.934 429.34 164.768C429.066 162.895 428.854 161.426 428.854 161.426Z" fill="black"/>
<path d="M342.551 400.68C342.406 400.68 342.262 400.651 342.117 400.589C341.549 400.356 341.284 399.707 341.52 399.145C342.869 395.975 344.473 392.381 346.169 388.577C351.609 376.383 358.373 361.211 362.314 347.697C362.483 347.111 363.099 346.772 363.697 346.939C364.289 347.111 364.631 347.721 364.458 348.307C360.478 361.969 353.68 377.213 348.217 389.468C346.521 393.267 344.926 396.852 343.587 400.003C343.404 400.422 342.989 400.68 342.551 400.68Z" fill="black"/>
<path d="M439.044 235.163C438.89 235.163 438.736 235.134 438.586 235.068C432.785 232.494 428.088 230.158 424.229 227.927C414.386 222.236 407.925 212.135 406.957 200.914C406.663 197.505 406.552 193.764 406.619 189.788C406.629 189.183 407.13 188.701 407.737 188.701C407.747 188.701 407.752 188.701 407.756 188.701C408.373 188.711 408.869 189.216 408.855 189.826C408.788 193.725 408.898 197.391 409.183 200.728C410.093 211.234 416.14 220.686 425.361 226.016C429.148 228.204 433.773 230.506 439.502 233.047C440.065 233.299 440.316 233.952 440.065 234.51C439.877 234.92 439.473 235.163 439.044 235.163Z" fill="black"/>
<path d="M410.998 184.369C397.826 184.369 388.181 181.075 381.59 174.354C381.161 173.915 381.171 173.215 381.614 172.79C382.057 172.366 382.766 172.376 383.194 172.814C389.944 179.697 400.269 182.724 414.766 182.066C415.397 182.043 415.908 182.515 415.937 183.12C415.966 183.73 415.489 184.25 414.867 184.273C413.547 184.335 412.256 184.369 410.998 184.369Z" fill="black"/>
<path d="M325.101 521.576C319.242 521.576 312.81 520.865 311.832 520.651C306.455 519.473 303.671 517.138 303.064 513.3C302.746 511.246 303.088 508.858 303.69 506.327C302.529 506.937 301.209 507.261 299.869 506.984C299.214 506.856 298.684 506.441 298.381 505.826C296.795 502.637 301.739 492.269 302.75 490.224C305.154 485.334 304.962 481.968 304.692 477.316C304.615 475.938 304.523 474.375 304.499 472.659C304.427 467.773 304.615 462.453 304.812 456.824C305.294 443.191 305.843 427.732 302.437 416.082C299.754 406.901 295.514 397.653 291.409 388.716C290.007 385.66 288.562 382.509 287.189 379.378C274.826 379.416 261.581 380.736 245.581 383.534C240.975 384.335 236.162 385.493 231.508 386.614C218.379 389.774 204.798 393.044 191.621 389.822C189.843 389.388 188.027 388.849 186.061 388.187C185.478 387.991 185.165 387.362 185.367 386.785C185.565 386.208 186.201 385.898 186.784 386.094C188.687 386.737 190.44 387.252 192.155 387.672C204.807 390.765 218.114 387.562 230.983 384.464C235.671 383.334 240.518 382.166 245.196 381.351C261.639 378.481 275.221 377.185 287.921 377.166C288.369 377.166 288.769 377.428 288.947 377.828C290.402 381.165 291.949 384.535 293.447 387.8C297.581 396.814 301.859 406.134 304.591 415.467C308.093 427.455 307.539 443.1 307.048 456.905C306.85 462.501 306.662 467.792 306.735 472.625C306.759 474.294 306.846 475.767 306.927 477.192C307.202 481.992 307.424 485.782 304.759 491.192C302.057 496.679 299.638 503.61 300.37 504.83C301.931 505.116 303.699 503.924 304.769 502.609C305.101 502.199 305.68 502.079 306.152 502.318C306.624 502.556 306.86 503.09 306.715 503.595C305.733 507.104 304.88 510.459 305.28 512.957C305.578 514.878 306.653 517.252 312.314 518.491C315.797 519.254 331.566 519.998 333.074 518.406C333.937 516.895 329.918 507.189 327.991 502.523C326.565 499.081 325.438 496.364 325.211 495.12C324.431 490.858 323.713 487.831 323.13 485.396C321.742 479.575 320.976 476.367 321.646 465.933C322.494 452.629 328.367 435.506 333.546 420.401C335.271 415.362 336.904 410.605 338.306 406.134C338.461 405.643 338.938 405.318 339.463 405.361C339.983 405.399 340.407 405.795 340.479 406.305C341.39 412.407 341.872 417.192 341.958 420.934C342.44 441.918 342.855 460.046 336.119 479.27C334.327 484.38 333.758 491.983 334.635 498.566C337.617 497.894 339.41 497.875 340.383 498.481C340.831 498.757 341.12 499.162 341.221 499.648C341.607 501.498 340.542 503.352 339.516 505.144C338.374 507.137 337.68 508.5 338.374 509.325C338.832 509.873 339.607 510.226 340.349 510.564L340.566 510.66C347.961 514.015 355.68 514.311 362.902 511.532C363.35 511.356 363.658 511.041 363.861 510.55C365.422 506.822 360.599 496.035 357.718 489.59C356.277 486.363 355.14 483.818 354.841 482.464C350.679 463.554 354.769 444.134 358.725 425.353C359.65 420.958 360.608 416.411 361.432 411.992C361.866 409.661 362.174 407.287 362.502 404.775C363.374 398.078 364.28 391.151 367.633 385.427C371.078 379.563 377.881 372.261 383.98 365.878C384.048 365.806 384.125 365.745 384.211 365.692C386.191 364.496 387.801 363.375 389.126 362.274C405.526 348.646 409.173 328.869 413.037 307.928C415.634 293.847 418.322 279.285 425.269 266.848C427.924 262.095 429.948 256.633 432.082 250.851C434.197 245.145 436.38 239.248 439.241 234.057C439.492 233.604 440.022 233.38 440.533 233.523C446.892 235.325 453.666 235.115 460.835 234.891C462.208 234.849 463.596 234.806 465.007 234.777C470.827 234.648 476.57 235.468 482.121 236.255C493.149 237.823 503.57 239.301 513.707 233.547C517.826 231.211 520.033 219.733 518.746 215.219L502.308 204.003C500.988 203.102 499.619 202.167 498.405 201.009C496.777 199.446 495.543 197.591 494.358 195.794C492.759 193.373 491.048 190.98 489.391 188.668C484.963 182.476 480.381 176.079 477.587 168.595L477.361 167.98C476.787 166.412 476.248 164.934 475.241 163.823C470.066 158.098 458.296 153.904 449.701 150.839C447.735 150.138 445.88 149.475 444.266 148.86C434.602 145.152 422.408 141.505 413.856 146.248C411.196 147.726 408.98 149.99 407.275 152.984C407.207 153.098 407.12 153.208 407.014 153.294C405.699 154.366 404.167 155.682 402.327 157.312C401.96 157.636 401.421 157.689 401.002 157.436C394.401 153.475 389.453 152.683 383.195 151.687C379.018 151.02 374.282 150.267 368.216 148.417C371.054 156.516 376.19 164.143 383.898 171.722C384.129 171.946 384.25 172.265 384.226 172.589C384.202 172.904 384.038 173.204 383.778 173.395C382.01 174.687 380.603 175.54 379.471 176.007C373.66 178.381 368.158 180.955 362.834 183.439C348.732 190.026 335.411 196.247 318.611 197.996C313.605 198.521 299.253 201.1 290.677 202.639C288.677 203.002 287.005 203.302 285.868 203.502C264.867 207.182 250.467 208.846 226.603 210.333C210.261 211.353 188.928 207.664 168.292 204.088C156.387 202.029 145.138 200.084 135.733 199.226L133.276 198.997C104.797 196.371 69.3473 193.101 52.6051 223.16C41.3794 243.314 43.6823 270.285 46.7176 293.981C46.9152 295.515 47.1079 297.074 47.3054 298.652C49.5024 316.232 51.9884 336.157 61.1665 351.22C61.2099 351.287 61.2436 351.354 61.2677 351.43C65.599 363.843 66.6974 377.218 64.2885 388.129C63.0599 393.687 61.3062 399.169 59.6055 404.475C57.7072 410.419 55.7367 416.573 54.5323 422.779C54.2095 424.438 53.93 426.187 54.3925 427.741C54.6912 428.761 55.3128 429.705 55.968 430.702L56.2378 431.116C66.0133 446.175 68.827 466.676 64.8233 493.804C64.7077 494.6 64.4475 495.578 64.144 496.707C63.3972 499.486 62.3035 503.581 63.826 504.715C64.1054 504.51 64.4957 504.21 64.8329 503.953C67.6225 501.812 69.0678 500.85 70.2193 501.312C70.7108 501.503 71.0432 501.936 71.1251 502.489C71.6213 505.774 72.3537 508.596 73.3221 510.869C74.9023 514.592 77.0896 516.971 80.0189 518.144C84.3743 519.898 90.6424 519.002 99.1845 515.417C99.8687 515.131 100.052 514.945 100.085 514.84C102.022 508.739 97.4501 502.156 93.0224 495.792C90.257 491.812 87.6408 488.056 86.4797 484.337C86.446 484.233 86.4316 484.123 86.4316 484.009C86.4316 480.248 85.9449 476.482 85.4776 472.835C84.8416 467.868 84.1768 462.73 84.6634 457.295C84.9814 453.663 85.0874 449.931 85.1885 446.313C85.4776 435.888 85.7763 425.101 91.3314 415.391C93.6825 411.286 96.3853 407.149 99.5989 402.74C99.8253 402.43 100.196 402.258 100.587 402.282C100.972 402.311 101.314 402.535 101.497 402.878C103.477 406.62 105.804 411.072 108.045 415.705C115.233 430.563 119.333 442.966 120.942 454.74C121.838 461.304 121.082 467.649 120.35 473.784C119.665 479.518 119.02 484.933 119.593 490.568C119.81 492.746 120.099 495.22 120.706 497.584C120.725 497.58 120.745 497.575 120.764 497.57C123.486 496.845 126.574 496.026 127.302 497.832C128.034 499.634 127.432 501.56 126.902 503.262C126.304 505.173 125.977 506.384 126.772 507.175C127.124 507.528 127.716 507.742 128.289 507.952L128.93 508.186C132.568 509.506 143.654 513.529 149.565 510.784C151.203 510.021 152.302 508.815 152.919 507.089C152.967 506.946 152.899 506.584 152.866 506.408C150.909 496.598 144.955 484.909 140.031 477.24C137.01 472.54 136.263 466.853 135.719 460.952C134.851 451.637 134.765 442.804 134.683 434.262C134.62 427.899 134.558 421.316 134.177 414.437C134.143 413.827 134.615 413.308 135.227 413.274C135.854 413.241 136.374 413.708 136.408 414.318C136.788 421.239 136.856 427.851 136.918 434.243C137.005 443.129 137.087 451.523 137.94 460.751C138.489 466.586 139.159 471.763 141.914 476.053C146.949 483.889 153.044 495.873 155.058 505.983C155.164 506.532 155.26 507.17 155.024 507.828C154.21 510.107 152.692 511.775 150.514 512.786C144.463 515.598 134.856 512.695 128.159 510.264L127.572 510.049C126.791 509.763 125.885 509.43 125.182 508.734C123.404 506.956 124.127 504.644 124.763 502.609C125.187 501.255 125.587 499.973 125.322 498.943C124.445 498.881 122.147 499.496 121.347 499.706C120.668 499.887 120.306 499.982 120.051 500.015C119.506 500.082 119.001 499.748 118.846 499.234C117.984 496.383 117.627 493.38 117.367 490.787C116.77 484.914 117.459 479.123 118.128 473.526C118.846 467.53 119.584 461.323 118.726 455.036C117.146 443.496 113.113 431.302 106.031 416.663C104.113 412.697 102.128 408.865 100.355 405.5C97.6476 409.294 95.3254 412.902 93.2778 416.482C87.9974 425.715 87.7179 435.75 87.424 446.38C87.3229 450.021 87.2169 453.792 86.8893 457.486C86.4267 462.687 87.0723 467.706 87.6987 472.559C88.166 476.215 88.6526 479.995 88.6671 483.842C89.7559 487.188 92.2371 490.758 94.8629 494.543C99.594 501.341 104.484 508.372 102.22 515.503C101.839 516.704 100.635 517.214 100.061 517.452C90.8158 521.337 84.1816 522.205 79.1758 520.198C75.7214 518.806 73.0571 515.956 71.26 511.727C70.3109 509.487 69.5689 506.784 69.0486 503.681C68.1958 504.172 66.8613 505.197 66.206 505.702C64.6113 506.922 64.1873 507.247 63.4839 507.008C59.4417 505.621 60.9112 500.144 61.9807 496.14C62.2553 495.12 62.5155 494.157 62.6119 493.49C66.5288 466.91 63.8308 446.899 54.3588 432.313L54.0938 431.908C53.376 430.816 52.6388 429.696 52.2438 428.361C51.6463 426.335 51.9595 424.29 52.3353 422.36C53.5639 416.025 55.5536 409.813 57.476 403.803C59.1574 398.55 60.8967 393.115 62.1012 387.657C64.4234 377.166 63.3635 364.267 59.1912 352.259C49.8155 336.805 47.3054 316.685 45.0844 298.924C44.8916 297.351 44.6941 295.792 44.5014 294.257C41.4179 270.213 39.0957 242.828 50.6442 222.093C68.0995 190.76 104.354 194.107 133.488 196.795L135.935 197.019C145.436 197.892 156.729 199.846 168.678 201.91C189.183 205.461 210.386 209.127 226.459 208.126C250.23 206.643 264.573 204.989 285.478 201.324C286.61 201.123 288.282 200.823 290.282 200.466C298.886 198.916 313.287 196.328 318.375 195.799C334.799 194.088 347.952 187.943 361.88 181.437C367.228 178.944 372.754 176.36 378.618 173.958C379.345 173.662 380.275 173.128 381.393 172.365C373.901 164.801 368.881 157.145 366.053 148.999C365.788 148.231 365.976 147.397 366.544 146.82C367.117 146.234 367.961 146.024 368.746 146.263C374.725 148.098 379.413 148.846 383.551 149.504C389.583 150.467 394.816 151.301 401.445 155.124C402.972 153.78 404.283 152.66 405.429 151.716C407.332 148.45 409.794 145.967 412.762 144.318C422.133 139.127 434.953 142.911 445.076 146.796C446.661 147.407 448.506 148.064 450.457 148.76C459.766 152.073 471.357 156.206 476.912 162.346C478.204 163.78 478.844 165.53 479.466 167.227L479.688 167.827C482.376 175.04 486.669 181.036 491.217 187.39C492.884 189.717 494.609 192.129 496.227 194.579C497.35 196.276 498.511 198.025 499.961 199.422C501.041 200.451 502.332 201.333 503.58 202.186L520.331 213.612C520.524 213.746 520.673 213.937 520.751 214.156C522.586 219.352 520.095 232.475 514.82 235.468C504.013 241.603 492.72 239.997 481.803 238.447C476.339 237.67 470.702 236.865 465.056 236.989C463.654 237.017 462.271 237.06 460.907 237.103C453.873 237.322 447.215 237.532 440.788 235.888C438.206 240.75 436.163 246.265 434.187 251.613C432.111 257.219 429.967 263.015 427.226 267.92C420.456 280.038 417.802 294.419 415.234 308.329C411.471 328.73 407.578 349.828 390.566 363.971C389.183 365.12 387.526 366.278 385.503 367.503C379.514 373.772 372.875 380.908 369.57 386.537C366.438 391.876 365.566 398.578 364.723 405.056C364.405 407.487 364.077 410.009 363.629 412.392C362.805 416.84 361.847 421.397 360.917 425.806C357.005 444.358 352.967 463.545 357.024 481.992C357.274 483.127 358.426 485.71 359.76 488.694C364.188 498.595 367.705 507.132 365.927 511.394C365.484 512.452 364.742 513.191 363.711 513.591C355.916 516.594 347.595 516.28 339.651 512.681L339.419 512.576C338.538 512.171 337.439 511.67 336.654 510.741C334.924 508.681 336.326 506.222 337.569 504.058C338.34 502.713 339.13 501.326 339.063 500.306C338.692 500.216 337.507 500.116 334.158 500.954L333.975 501.002C333.667 501.074 333.349 501.021 333.089 500.85C332.828 500.678 332.65 500.406 332.602 500.106C331.417 492.832 331.961 484.366 334.004 478.546C340.609 459.693 340.2 441.756 339.718 420.982C339.66 418.379 339.4 415.238 338.933 411.463C337.911 414.556 336.808 417.774 335.661 421.111C330.53 436.083 324.71 453.058 323.877 466.071C323.231 476.177 323.925 479.089 325.308 484.89C325.896 487.35 326.623 490.41 327.408 494.724C327.601 495.744 328.791 498.628 330.058 501.684C334.601 512.657 336.365 517.877 334.813 519.793C333.71 521.161 329.576 521.576 325.101 521.576Z" fill="black"/>
<path d="M186.422 388.249C186.302 388.249 186.181 388.23 186.061 388.187C182.192 386.881 178.367 385.265 174.666 383.696C168.374 381.037 161.865 378.286 155.096 377.071C146.891 375.598 138.619 376.365 130.154 377.357C129.537 377.423 128.983 376.994 128.911 376.384C128.839 375.779 129.277 375.231 129.889 375.159C138.527 374.149 146.988 373.367 155.496 374.897C162.511 376.151 169.135 378.954 175.548 381.666C179.21 383.215 182.992 384.812 186.783 386.094C187.366 386.29 187.68 386.924 187.482 387.5C187.318 387.958 186.889 388.249 186.422 388.249Z" fill="black"/>
<path d="M556.268 197.62C556.171 197.62 556.075 197.62 555.974 197.63C553.604 197.782 551.802 199.818 551.961 202.163C552.115 204.513 554.177 206.296 556.542 206.138C557.694 206.062 558.739 205.552 559.501 204.694C560.262 203.836 560.642 202.74 560.561 201.6C560.488 200.466 559.968 199.427 559.101 198.673C558.306 197.987 557.309 197.62 556.268 197.62ZM556.258 208.36C552.842 208.36 549.956 205.728 549.725 202.311C549.489 198.745 552.226 195.656 555.829 195.418C557.564 195.308 559.26 195.871 560.575 197.01C561.89 198.154 562.68 199.732 562.791 201.457C562.907 203.183 562.338 204.851 561.182 206.153C560.031 207.454 558.441 208.231 556.692 208.345C556.547 208.355 556.403 208.36 556.258 208.36Z" fill="#F7CE4D"/>
<path d="M485.772 535.552C485.44 535.552 485.112 535.404 484.891 535.127C484.505 534.651 484.592 533.955 485.079 533.578C516.043 509.501 540.966 480.934 559.144 448.653C559.448 448.124 560.132 447.928 560.667 448.224C561.211 448.524 561.399 449.196 561.105 449.73C542.773 482.264 517.657 511.06 486.461 535.313C486.254 535.475 486.013 535.552 485.772 535.552Z" fill="#F7CE4D"/>
<path d="M497.225 507.647C496.935 507.647 496.642 507.532 496.42 507.304C495.991 506.865 496.006 506.169 496.449 505.74C512.155 490.758 525.804 474.198 537.011 456.513C537.338 455.994 538.027 455.837 538.552 456.161C539.078 456.485 539.232 457.171 538.904 457.686C527.601 475.523 513.841 492.226 498 507.332C497.783 507.542 497.504 507.647 497.225 507.647Z" fill="#F7CE4D"/>
<path d="M68.3113 158.808C68.2101 158.808 68.1041 158.794 68.0029 158.76C67.4103 158.598 67.0635 157.983 67.2321 157.397L68.8075 151.939C68.981 151.353 69.6025 151.014 70.1903 151.181C70.7829 151.348 71.1298 151.958 70.9563 152.549L69.3809 158.003C69.246 158.489 68.7979 158.808 68.3113 158.808Z" fill="#F7CE4D"/>
<path d="M64.645 171.512C64.5439 171.512 64.4379 171.503 64.3367 171.474C63.7441 171.303 63.3972 170.692 63.5658 170.106L65.1413 164.648C65.3147 164.062 65.9314 163.723 66.524 163.89C67.1166 164.057 67.4635 164.667 67.2901 165.258L65.7194 170.711C65.5797 171.198 65.1316 171.512 64.645 171.512Z" fill="#F7CE4D"/>
<path d="M63.5995 161.397C63.4983 161.397 63.3923 161.383 63.2911 161.354L57.7794 159.795C57.1868 159.629 56.8399 159.018 57.0086 158.432C57.1772 157.841 57.7987 157.503 58.3913 157.669L63.903 159.228C64.4956 159.395 64.8425 160.01 64.6738 160.592C64.5341 161.083 64.0861 161.397 63.5995 161.397Z" fill="#F7CE4D"/>
<path d="M76.4438 165.026C76.3427 165.026 76.2367 165.012 76.1355 164.983L70.619 163.429C70.0264 163.258 69.6843 162.647 69.8529 162.061C70.0216 161.47 70.6431 161.132 71.2357 161.298L76.7522 162.857C77.3448 163.024 77.6868 163.639 77.5182 164.225C77.3785 164.711 76.9304 165.026 76.4438 165.026Z" fill="#F7CE4D"/>
<path d="M350.703 52.7718C350.602 52.7718 350.5 52.7527 350.395 52.7241C349.802 52.5573 349.46 51.9472 349.628 51.3513L351.199 45.9029C351.373 45.3118 351.989 44.9733 352.587 45.1402C353.179 45.307 353.521 45.9219 353.353 46.5083L351.777 51.9662C351.638 52.4524 351.189 52.7718 350.703 52.7718Z" fill="#F7CE4D"/>
<path d="M347.036 65.476C346.935 65.476 346.834 65.4617 346.728 65.4331C346.135 65.2663 345.793 64.6514 345.962 64.0651L347.537 58.6119C347.706 58.0208 348.328 57.6823 348.92 57.8492C349.513 58.0208 349.855 58.6309 349.686 59.2125L348.116 64.6752C347.971 65.1567 347.523 65.476 347.036 65.476Z" fill="#F7CE4D"/>
<path d="M345.991 55.3554C345.89 55.3554 345.789 55.3458 345.687 55.3172L340.171 53.7585C339.578 53.5917 339.231 52.9815 339.405 52.3904C339.573 51.7993 340.195 51.4609 340.788 51.6325L346.299 53.1865C346.892 53.3533 347.234 53.9682 347.07 54.5545C346.926 55.0408 346.478 55.3554 345.991 55.3554Z" fill="#F7CE4D"/>
<path d="M358.835 58.9822C358.734 58.9822 358.633 58.9679 358.532 58.9393L353.015 57.3854C352.423 57.2185 352.076 56.6036 352.249 56.0125C352.418 55.431 353.039 55.0925 353.627 55.2594L359.144 56.8181C359.736 56.985 360.083 57.5951 359.91 58.1862C359.77 58.6676 359.322 58.9822 358.835 58.9822Z" fill="#F7CE4D"/>
<path d="M547.605 174.238C547.528 174.238 547.451 174.229 547.374 174.214C546.767 174.09 546.381 173.499 546.507 172.903L547.697 167.355C547.822 166.754 548.424 166.373 549.022 166.502C549.624 166.625 550.014 167.212 549.884 167.808L548.699 173.361C548.588 173.881 548.126 174.238 547.605 174.238Z" fill="#F7CE4D"/>
<path d="M544.84 187.171C544.763 187.171 544.686 187.161 544.604 187.142C544.002 187.018 543.616 186.432 543.742 185.831L544.932 180.283C545.062 179.687 545.659 179.306 546.256 179.43C546.859 179.554 547.244 180.145 547.119 180.74L545.934 186.289C545.818 186.813 545.356 187.171 544.84 187.171Z" fill="#F7CE4D"/>
<path d="M543.086 177.147C543.009 177.147 542.932 177.138 542.85 177.123L537.247 175.951C536.64 175.822 536.254 175.236 536.38 174.64C536.51 174.039 537.107 173.658 537.709 173.787L543.317 174.959C543.92 175.083 544.305 175.674 544.18 176.27C544.069 176.79 543.606 177.147 543.086 177.147Z" fill="#F7CE4D"/>
<path d="M556.152 179.884C556.08 179.884 555.998 179.879 555.921 179.86L550.313 178.687C549.706 178.558 549.321 177.972 549.451 177.376C549.576 176.776 550.173 176.394 550.776 176.523L556.384 177.696C556.991 177.824 557.376 178.411 557.246 179.011C557.135 179.526 556.673 179.884 556.152 179.884Z" fill="#F7CE4D"/>
<path d="M90.8158 146.969C88.8838 147.827 88.0021 150.12 88.8597 152.079C89.274 153.037 90.0353 153.767 90.994 154.134C91.9335 154.496 92.9549 154.467 93.8751 154.062C95.8071 153.199 96.6888 150.911 95.8312 148.948C95.4169 147.994 94.6556 147.265 93.6969 146.893C92.7574 146.536 91.736 146.559 90.8158 146.969ZM92.3479 156.603C91.6155 156.603 90.888 156.465 90.1846 156.198C88.6622 155.611 87.4625 154.463 86.8073 152.956C85.4727 149.896 86.8555 146.302 89.9004 144.948C91.3698 144.3 93.0079 144.257 94.5063 144.834C96.0287 145.42 97.2284 146.569 97.8836 148.07C99.223 151.135 97.8306 154.73 94.7905 156.079C94.01 156.427 93.1765 156.603 92.3479 156.603Z" fill="#F7CE4D"/>
<path d="M376.792 542.812H374.084V500.641H376.792V542.812Z" fill="#F7CE4D"/>
<path d="M383.551 501.79C383.551 510.594 379.846 517.725 375.269 517.725C370.692 517.725 366.987 510.594 366.987 501.79C366.987 492.985 370.692 485.85 375.269 485.85C379.846 485.85 383.551 492.985 383.551 501.79Z" fill="#F7CE4D"/>
<path d="M373.65 542.497C374.33 544.809 374.272 545.309 376.758 547.53C376.941 547.692 377.235 547.569 377.23 547.33C377.211 545.199 377.452 543.336 380.848 544.67C387.42 546.134 393.659 547.478 393.866 546.644L384.231 542.535C390.017 543.116 395.278 543.598 393.529 542.702C388.947 541.195 382.973 540.323 375.269 540.232L374.07 541.191C373.67 541.505 373.511 542.02 373.65 542.497Z" fill="#F7CE4D"/>
<path d="M365.065 544.061H362.362V501.127H365.065V544.061Z" fill="#F7CE4D"/>
<path d="M371.829 502.298C371.829 511.26 368.12 518.525 363.547 518.525C358.97 518.525 355.261 511.26 355.261 502.298C355.261 493.337 358.97 486.072 363.547 486.072C368.12 486.072 371.829 493.337 371.829 502.298Z" fill="#F7CE4D"/>
<path d="M361.929 543.747C362.608 546.101 362.55 546.611 365.036 548.871C365.214 549.038 365.508 548.909 365.508 548.671C365.484 546.497 365.73 544.595 369.122 545.958C375.693 547.446 381.932 548.818 382.144 547.965L372.504 543.785C378.29 544.376 383.556 544.862 381.802 543.952C377.225 542.417 371.246 541.53 363.547 541.439L362.343 542.412C361.948 542.736 361.789 543.26 361.929 543.747Z" fill="#F7CE4D"/>
<path d="M453.261 367.195C453.261 356.851 441.458 348.91 430.998 348.91C422.605 348.91 415.494 354.315 413.013 361.799C406.417 373.382 399.552 384.394 391.636 393.222C384.794 400.853 374.903 405.124 364.588 405.091C363.186 405.086 361.847 405.096 360.671 405.115C356.841 405.191 353.232 405.334 349.826 405.534C338.634 406.202 327.471 403.642 317.734 398.141C313.268 395.615 309.625 393.107 307.019 390.619C297.292 378.802 292.19 371.986 286.509 348.895C286.331 348.185 285.353 348.104 285.049 348.776C282.91 353.533 283.257 349.849 281.007 356.899C280.834 357.442 280.357 357.766 279.995 357.323L264.621 348.004C266.39 361.937 267.657 366.613 272.33 376.319C272.667 377.019 271.882 377.725 271.212 377.324L258.45 369.617C257.876 369.364 257.322 369.998 257.66 370.527C269.146 388.517 277.741 405.916 281.32 422.29C281.792 440.475 286.538 456.496 297.099 469.571L297.147 469.5C306.185 490.216 333.325 505.255 365.407 505.255C404.148 505.255 435.059 476.931 436.828 455.934C437.989 450.166 436.64 420.454 433.551 388.755C433.421 387.397 434.308 386.138 435.652 385.828C444.666 383.75 453.261 376.023 453.261 367.195Z" fill="#F7CE4D"/>
<path d="M297.258 468.211L297.052 468.528L296.621 467.968C287.221 455.762 282.427 440.79 281.944 422.301L281.921 422.143C278.708 407.481 271.311 391.044 259.284 371.941L259.965 371.246L270.888 377.839L270.889 377.839C271.422 378.163 272.097 378.101 272.565 377.684C273.033 377.264 273.159 376.613 272.892 376.064L272.891 376.062C268.495 366.937 267.157 362.413 265.533 350.218L265.395 349.184L266.287 349.725L279.546 357.762L279.592 357.79L279.632 357.827C279.898 358.08 280.234 358.181 280.563 358.122C280.988 358.039 281.404 357.67 281.596 357.078L297.258 468.211ZM297.258 468.211L297.715 469.26L297.715 469.26C306.982 490.497 334.231 504.648 365.402 504.648C385.435 504.648 402.714 497.335 415.189 487.602C427.636 477.891 435.373 465.709 436.206 455.901L436.221 455.805C436.494 454.442 436.621 451.664 436.617 447.792C436.613 443.891 436.475 438.834 436.202 432.894C435.656 421.015 434.57 405.595 432.936 388.816C432.777 387.148 433.885 385.61 435.513 385.237L435.514 385.237C439.717 384.268 443.984 381.977 447.207 378.832C450.43 375.687 452.644 371.651 452.644 367.194C452.644 362.151 449.682 357.724 445.539 354.579C441.394 351.432 436.003 349.514 430.998 349.514C423.082 349.514 416.088 354.508 413.607 361.955L413.537 362.106C407.672 372.415 400.552 384.188 392.097 393.616L392.097 393.616C385.213 401.296 375.241 405.695 364.708 405.695H364.708H364.708H364.708H364.707H364.707H364.707H364.707H364.706H364.706H364.706H364.706H364.706H364.705H364.705H364.705H364.705H364.704H364.704H364.704H364.704H364.704H364.703H364.703H364.703H364.703H364.702H364.702H364.702H364.702H364.701H364.701H364.701H364.701H364.701H364.7H364.7H364.7H364.7H364.699H364.699H364.699H364.699H364.699H364.698H364.698H364.698H364.698H364.697H364.697H364.697H364.697H364.696H364.696H364.696H364.696H364.695H364.695H364.695H364.695H364.695H364.694H364.694H364.694H364.694H364.693H364.693H364.693H364.693H364.692H364.692H364.692H364.692H364.692H364.691H364.691H364.691H364.691H364.69H364.69H364.69H364.69H364.689H364.689H364.689H364.689H364.688H364.688H364.688H364.688H364.688H364.687H364.687H364.687H364.687H364.686H364.686H364.686H364.686H364.685H364.685H364.685H364.685H364.685H364.684H364.684H364.684H364.684H364.683H364.683H364.683H364.683H364.682H364.682H364.682H364.682H364.681H364.681H364.681H364.681H364.68H364.68H364.68H364.68H364.68H364.679H364.679H364.679H364.679H364.678H364.678H364.678H364.678H364.677H364.677H364.677H364.677H364.676H364.676H364.676H364.676H364.675H364.675H364.675H364.675H364.675H364.674H364.674H364.674H364.674H364.673H364.673H364.673H364.673H364.672H364.672H364.672H364.672H364.671H364.671H364.671H364.671H364.67H364.67H364.67H364.67H364.669H364.669H364.669H364.669H364.668H364.668H364.668H364.668H364.668H364.667H364.667H364.667H364.667H364.666H364.666H364.666H364.666H364.665H364.665H364.665H364.665H364.664H364.664H364.664H364.664H364.663H364.663H364.663H364.663H364.662H364.662H364.662H364.662H364.661H364.661H364.661H364.661H364.66H364.66H364.66H364.66H364.66H364.659H364.659H364.659H364.659H364.658H364.658H364.658H364.658H364.657H364.657H364.657H364.657H364.656H364.656H364.656H364.656H364.655H364.655H364.655H364.655H364.654H364.654H364.654H364.654H364.653H364.653H364.653H364.653H364.652H364.652H364.652H364.652H364.651H364.651H364.651H364.651H364.65H364.65H364.65H364.65H364.649H364.649H364.649H364.649H364.648H364.648H364.648H364.648H364.647H364.647H364.647H364.647H364.646H364.646H364.646H364.646H364.646H364.645H364.645H364.645H364.645H364.644H364.644H364.644H364.644H364.643H364.643H364.643H364.643H364.642H364.642H364.642H364.642H364.641H364.641H364.641H364.641H364.64H364.64H364.64H364.64H364.639H364.639H364.639H364.639H364.638H364.638H364.638H364.638H364.637H364.637H364.637H364.637H364.636H364.636H364.636H364.636H364.635H364.635H364.635H364.635H364.634H364.634H364.634H364.634H364.633H364.633H364.633H364.633H364.632H364.632H364.632H364.632H364.631H364.631H364.631H364.631H364.63H364.63H364.63H364.63H364.629H364.629H364.629H364.629H364.628H364.628H364.628H364.628H364.627H364.627H364.627H364.627H364.626H364.626H364.626H364.626H364.625H364.625H364.625H364.625H364.624H364.624H364.624H364.624H364.623H364.623H364.623H364.623H364.622H364.622H364.622H364.622H364.621H364.621H364.621H364.621H364.62H364.62H364.62H364.62H364.619H364.619H364.619H364.619H364.618H364.618H364.618H364.618H364.617H364.617H364.617H364.617H364.616H364.616H364.616H364.615H364.615H364.615H364.615H364.614H364.614H364.614H364.614H364.613H364.613H364.613H364.613H364.612H364.612H364.612H364.612H364.611H364.611H364.611H364.611H364.61H364.61H364.61H364.61H364.609H364.609H364.609H364.609H364.608H364.608H364.608H364.608H364.607H364.607H364.607H364.607H364.606H364.606H364.606H364.606H364.605H364.605H364.605H364.605H364.604H364.604H364.604H364.604H364.603H364.603H364.603H364.603H364.602H364.602H364.602H364.602H364.601H364.601H364.601H364.601H364.6H364.6H364.6H364.6H364.599H364.599H364.599H364.599H364.598H364.598H364.598H364.598H364.597H364.597H364.597H364.597H364.596H364.596H364.596H364.595H364.595H364.595H364.595H364.594H364.594H364.594H364.594H364.593H364.593H364.593H364.593H364.592H364.592H364.592H364.592H364.591H364.591H364.591H364.591H364.59H364.59H364.59H364.59H364.589H364.589H364.589H364.589H364.588H364.588H364.588H364.588H364.587H364.587H364.587H364.587H364.586H364.586H364.586H364.586H364.585H364.585H364.585L364.585 405.695L364.585 405.695H364.584H364.584H364.584H364.584L297.258 468.211ZM296.76 470.152L296.733 470.092L296.693 470.042L296.616 469.947C296.616 469.947 296.616 469.947 296.616 469.947C286.44 457.349 281.225 441.812 280.707 422.408L280.706 422.361L280.696 422.314C277.397 407.329 269.68 390.489 257.137 370.848L257.136 370.847C256.837 370.381 256.882 369.798 257.248 369.384L257.248 369.384L257.251 369.381C257.611 368.968 258.189 368.838 258.694 369.062L258.792 369.11L270.588 376.23L272.009 377.088L271.298 375.588C267.001 366.522 265.725 361.62 264.009 348.078L264.009 348.077L263.848 346.823L279.832 356.51L280.372 356.837L280.567 356.237C281.165 354.4 281.578 353.341 281.918 352.655C282.248 351.988 282.509 351.673 282.827 351.323C283.221 350.89 283.643 350.404 284.484 348.527C284.734 347.977 285.279 347.657 285.885 347.714L285.887 347.714C286.492 347.767 286.966 348.171 287.107 348.75L287.108 348.751C289.902 360.114 292.543 367.509 295.718 373.553C298.892 379.598 302.59 384.27 307.457 390.187L307.476 390.211L307.498 390.232C309.963 392.573 313.519 395.056 318.042 397.612C327.685 403.065 338.665 405.59 349.793 404.926L349.793 404.926C353.206 404.722 356.861 404.584 360.657 404.507L360.647 404.007L360.657 404.507C361.836 404.484 363.186 404.479 364.591 404.484H364.593H364.593H364.593H364.593H364.594H364.594H364.594H364.594H364.594H364.595H364.595H364.595H364.595H364.596H364.596H364.596H364.596H364.597H364.597H364.597H364.597H364.597H364.598H364.598H364.598H364.598H364.599H364.599H364.599H364.599H364.599H364.6H364.6H364.6H364.6H364.601H364.601H364.601H364.601H364.601H364.602H364.602H364.602H364.602H364.603H364.603H364.603H364.603H364.604H364.604H364.604H364.604H364.604H364.605H364.605H364.605H364.605H364.606H364.606H364.606H364.606H364.606H364.607H364.607H364.607H364.607H364.608H364.608H364.608H364.608H364.608H364.609H364.609H364.609H364.609H364.61H364.61H364.61H364.61H364.611H364.611H364.611H364.611H364.611H364.612H364.612H364.612H364.612H364.613H364.613H364.613H364.613H364.613H364.614H364.614H364.614H364.614H364.615H364.615H364.615H364.615H364.615H364.616H364.616H364.616H364.616H364.617H364.617H364.617H364.617H364.618H364.618H364.618H364.618H364.618H364.619H364.619H364.619H364.619H364.62H364.62H364.62H364.62H364.62H364.621H364.621H364.621H364.621H364.622H364.622H364.622H364.622H364.622H364.623H364.623H364.623H364.623H364.624H364.624H364.624H364.624H364.625H364.625H364.625H364.625H364.625H364.626H364.626H364.626H364.626H364.627H364.627H364.627H364.627H364.627H364.628H364.628H364.628H364.628H364.629H364.629H364.629H364.629H364.629H364.63H364.63H364.63H364.63H364.631H364.631H364.631H364.631H364.632H364.632H364.632H364.632H364.632H364.633H364.633H364.633H364.633H364.634H364.634H364.634H364.634H364.634H364.635H364.635H364.635H364.635H364.636H364.636H364.636H364.636H364.636H364.637H364.637H364.637H364.637H364.638H364.638H364.638H364.638H364.639H364.639H364.639H364.639H364.639H364.64H364.64H364.64H364.64H364.641H364.641H364.641H364.641H364.641H364.642H364.642H364.642H364.642H364.643H364.643H364.643H364.643H364.643H364.644H364.644H364.644H364.644H364.645H364.645H364.645H364.645H364.646H364.646H364.646H364.646H364.646H364.647H364.647H364.647H364.647H364.648H364.648H364.648H364.648H364.648H364.649H364.649H364.649H364.649H364.65H364.65H364.65H364.65H364.65H364.651H364.651H364.651H364.651H364.652H364.652H364.652H364.652H364.653H364.653H364.653H364.653H364.653H364.654H364.654H364.654H364.654H364.655H364.655H364.655H364.655H364.655H364.656H364.656H364.656H364.656H364.657H364.657H364.657H364.657H364.657H364.658H364.658H364.658H364.658H364.659H364.659H364.659H364.659H364.66H364.66H364.66H364.66H364.66H364.661H364.661H364.661H364.661H364.662H364.662H364.662H364.662H364.662H364.663H364.663H364.663H364.663H364.664H364.664H364.664H364.664H364.664H364.665H364.665H364.665H364.665H364.666H364.666H364.666H364.666H364.667H364.667H364.667H364.667H364.667H364.668H364.668H364.668H364.668H364.669H364.669H364.669H364.669H364.669H364.67H364.67H364.67H364.67H364.671H364.671H364.671H364.671H364.671H364.672H364.672H364.672H364.672H364.673H364.673H364.673H364.673H364.674H364.674H364.674H364.674H364.674H364.675H364.675H364.675H364.675H364.676H364.676H364.676H364.676H364.676H364.677H364.677H364.677H364.677H364.678H364.678H364.678H364.678H364.678H364.679H364.679H364.679H364.679H364.68H364.68H364.68H364.68H364.681H364.681H364.681H364.681H364.681H364.682H364.682H364.682H364.682H364.683H364.683H364.683H364.683H364.683H364.684H364.684H364.684H364.684H364.685H364.685H364.685H364.685H364.686H364.686H364.686H364.686H364.686H364.687H364.687H364.687H364.687H364.688H364.688H364.688H364.688H364.688H364.689H364.689H364.689H364.689H364.69H364.69H364.69H364.69H364.69H364.691H364.691H364.691H364.691H364.692H364.692H364.692H364.692H364.692H364.693H364.693H364.693H364.693H364.694H364.694H364.694H364.694H364.695H364.695H364.695H364.695H364.695H364.696H364.696H364.696H364.696H364.697H364.697H364.697H364.697H364.697H364.698H364.698H364.698H364.698H364.699H364.699H364.699H364.699H364.7H364.7H364.7H364.7H364.7H364.701H364.701H364.701H364.701H364.702H364.702H364.702H364.702H364.702H364.703H364.703H364.703H364.703H364.704H364.704H364.704H364.704H364.704H364.705H364.705H364.705H364.705H364.706H364.706H364.706H364.706H364.707H364.707H364.707H364.707H364.707H364.708H364.708H364.708H364.708C374.878 404.484 384.515 400.241 391.17 392.815C399.538 383.477 406.614 371.786 412.416 361.592L412.44 361.55L412.455 361.505C415.127 353.607 422.561 348.302 430.998 348.302C436.4 348.302 442.139 350.336 446.521 353.732C450.903 357.127 453.879 361.842 453.879 367.194C453.879 371.861 451.612 376.145 448.195 379.536C444.778 382.928 440.243 385.391 435.795 386.417C434.754 386.656 434.066 387.638 434.166 388.696L434.167 388.697C435.676 404.187 436.797 419.473 437.389 431.667C437.684 437.764 437.848 443.084 437.861 447.267C437.875 451.468 437.737 454.48 437.445 455.989L437.44 456.015L437.437 456.041C436.467 467.236 427.909 479.69 414.806 489.366C401.721 499.03 384.184 505.86 365.402 505.86C333.788 505.86 306.33 491.464 296.76 470.152Z" fill="#F7CE4D" stroke="black"/>
<path d="M437.67 347.293C437.754 347.358 437.902 347.429 438.086 347.393C438.312 347.348 438.416 347.179 438.449 347.109C438.485 347.035 438.496 346.967 438.5 346.936C438.509 346.868 438.507 346.8 438.505 346.754C438.499 346.654 438.483 346.524 438.462 346.382C438.419 346.093 438.345 345.687 438.258 345.212C438.235 345.092 438.212 344.967 438.188 344.837C438.021 343.937 437.815 342.828 437.641 341.706C437.442 340.417 437.288 339.134 437.28 338.142C437.276 337.642 437.31 337.247 437.379 336.97C437.437 336.74 437.498 336.674 437.51 336.662C437.524 336.66 437.558 336.66 437.625 336.681C437.73 336.714 437.872 336.787 438.052 336.917C438.412 337.175 438.839 337.597 439.295 338.131C440.204 339.193 441.16 340.614 441.838 341.797C442.449 342.866 444.278 346.54 445.371 349.729C445.924 351.342 446.258 352.749 446.202 353.625C446.174 354.067 446.056 354.237 445.97 354.297C445.891 354.351 445.674 354.425 445.146 354.239L445.145 354.239C444.085 353.865 441.346 353.296 437.756 352.989C434.153 352.681 429.654 352.633 425.065 353.324C423.496 353.561 422.129 353.037 420.966 352.044C419.794 351.042 418.841 349.57 418.151 347.964C417.462 346.361 417.049 344.659 416.935 343.23C416.878 342.515 416.896 341.883 416.984 341.374C417.074 340.854 417.227 340.513 417.397 340.326C417.634 340.064 417.846 339.95 418.029 339.907C418.213 339.864 418.418 339.881 418.66 339.965C419.172 340.146 419.719 340.58 420.345 341.092C420.37 341.112 420.396 341.133 420.421 341.154C420.982 341.614 421.623 342.139 422.259 342.365C422.611 342.489 423 342.539 423.396 342.416C423.792 342.294 424.129 342.02 424.417 341.623L424.417 341.623C424.857 341.014 425.073 340.208 425.193 339.387C425.313 338.558 425.343 337.647 425.367 336.795C425.368 336.751 425.369 336.707 425.37 336.663C425.393 335.847 425.414 335.095 425.499 334.47C425.592 333.783 425.748 333.393 425.933 333.22L425.934 333.22C426.044 333.116 426.3 333.019 426.791 333.06C427.265 333.1 427.863 333.261 428.534 333.54C429.873 334.098 431.415 335.09 432.68 336.333C434.833 338.449 435.989 341.103 436.631 343.247C436.952 344.317 437.142 345.252 437.265 345.922C437.292 346.068 437.317 346.208 437.34 346.334C437.367 346.487 437.39 346.62 437.41 346.721C437.428 346.813 437.448 346.906 437.47 346.981C437.48 347.013 437.5 347.076 437.537 347.139C437.555 347.169 437.596 347.234 437.67 347.293Z" fill="#F7CE4D" stroke="black"/>
<path d="M452.684 369.652C456.187 372.414 460.031 377.074 464.16 383.369L447.351 379.311C447.926 376.15 449.477 372.937 452.684 369.652Z" fill="#F7CE4D" stroke="black"/>
<path d="M442.222 384.683L442.222 384.683C442.668 382.871 443.908 381.352 445.605 380.539C445.605 380.539 445.605 380.539 445.605 380.539L449.085 378.874C449.407 381.151 449.72 383.389 449.761 385.404C449.805 387.552 449.535 389.353 448.714 390.642C446.303 391.442 444.43 391.484 442.991 390.946C441.783 390.492 441.123 389.167 441.432 387.896C441.432 387.896 441.432 387.895 441.433 387.895L442.222 384.683Z" fill="#F7CE4D" stroke="black"/>
<path d="M375.613 469.725L375.613 469.725C383.921 468.07 390.925 464.253 395.544 459.472C400.165 454.687 402.334 449.019 401.226 443.577C400.118 438.134 395.898 433.736 389.761 431.093C383.63 428.453 375.676 427.616 367.366 429.272C367.365 429.272 367.365 429.272 367.365 429.272L367.341 429.276C358.846 430.969 345.32 433.664 334.216 437.386C328.649 439.252 323.769 441.352 320.447 443.667C317.073 446.02 315.648 448.337 316.117 450.638L375.613 469.725ZM375.613 469.725C374.404 469.966 371.351 470.057 368.031 470.06C364.975 470.062 361.815 469.991 359.955 469.921M375.613 469.725L359.955 469.921M359.955 469.921C359.98 469.806 360.019 469.668 360.073 469.507C360.376 468.608 361.043 467.354 361.83 466.023C362.378 465.095 362.955 464.176 363.469 463.36C363.685 463.016 363.89 462.689 364.077 462.388C364.384 461.894 364.652 461.449 364.822 461.121C364.9 460.971 364.994 460.777 365.046 460.589L365.046 460.588C365.064 460.521 365.129 460.287 365.066 460.011C365.028 459.845 364.931 459.614 364.704 459.432C364.476 459.25 364.227 459.205 364.053 459.205H363.698L363.423 459.428L363.422 459.428L363.422 459.429L363.422 459.429L363.419 459.431L363.401 459.446C363.384 459.459 363.358 459.48 363.322 459.507C363.251 459.563 363.143 459.646 362.999 459.752C362.711 459.964 362.282 460.27 361.729 460.633C360.62 461.361 359.015 462.317 357.04 463.226C353.101 465.038 347.756 466.631 341.961 465.913C341.977 465.814 342.013 465.664 342.092 465.452C342.406 464.61 343.145 463.437 344.061 462.189C344.96 460.963 345.97 459.744 346.76 458.827C347.154 458.37 347.491 457.99 347.729 457.725C347.848 457.593 347.942 457.489 348.006 457.419L348.079 457.339L348.097 457.32L348.101 457.315L348.102 457.314L348.102 457.314L348.102 457.314L348.102 457.313L346.85 455.779L346.85 455.779L346.85 455.779L346.85 455.779L346.849 455.78L346.842 455.784L346.816 455.799L346.712 455.862C346.619 455.917 346.483 455.998 346.307 456.102C345.956 456.308 345.449 456.601 344.831 456.949C343.594 457.645 341.914 458.556 340.139 459.418C338.358 460.284 336.51 461.086 334.928 461.58C334.136 461.827 333.442 461.987 332.875 462.046C332.285 462.107 331.946 462.047 331.784 461.972L331.783 461.971C328.192 460.312 324.393 458.315 321.407 456.261C319.913 455.234 318.65 454.21 317.722 453.228C316.78 452.231 316.264 451.358 316.117 450.638L359.955 469.921Z" fill="#F7CE4D" stroke="black" stroke-width="2"/>
<path d="M288.932 517.919H213.725V366.836H288.932V517.919Z" fill="white"/>
<path d="M214.843 516.814H287.81V367.947H214.843V516.814ZM290.05 519.026H212.607V365.73H290.05V519.026Z" fill="black"/>
<path d="M308.151 513.769L288.932 518.297V366.837L312.979 362.686V507.72C312.979 510.599 310.984 513.102 308.151 513.769Z" fill="#FFFDB7"/>
<path d="M290.05 367.77V516.894L307.896 512.69C310.232 512.142 311.861 510.097 311.861 507.718V363.999L290.05 367.77ZM287.81 519.697V365.906L314.096 361.363V507.718C314.096 511.126 311.76 514.053 308.411 514.844L287.81 519.697Z" fill="black"/>
<path d="M213.484 367.261L235.483 352.012L287.116 352.484L288.932 367.122L213.484 367.261Z" fill="#FFFDB7"/>
<path d="M235.834 353.123L217.04 366.15L287.665 366.017L286.124 353.585L235.834 353.123ZM209.933 368.377L235.141 350.906L288.109 351.388L290.195 368.224L209.933 368.377Z" fill="black"/>
<path d="M312.405 362.685L287.116 352.484L288.932 367.123L312.405 362.685Z" fill="white"/>
<path d="M288.46 354.223L289.896 365.811L308.488 362.298L288.46 354.223ZM287.964 368.428L285.777 350.748L316.327 363.07L287.964 368.428Z" fill="black"/>
<path d="M287.405 352.579H235.295V347.926C235.295 347.025 236.037 346.301 236.943 346.301H285.883C286.721 346.301 287.405 346.973 287.405 347.807V352.579Z" fill="white"/>
<path d="M236.413 351.473H286.287V347.808C286.287 347.583 286.109 347.407 285.883 347.407H236.942C236.653 347.407 236.413 347.641 236.413 347.927V351.473ZM288.523 353.685H234.177V347.927C234.177 346.42 235.42 345.195 236.942 345.195H285.883C287.338 345.195 288.523 346.368 288.523 347.808V353.685Z" fill="black"/>
<path d="M359.197 494.224C386.615 491.159 410.637 504.401 412.858 523.802C415.075 543.203 394.647 561.422 367.228 564.487C339.809 567.556 315.787 554.309 313.566 534.909C311.35 515.508 331.778 497.294 359.197 494.224Z" fill="white"/>
<path d="M367.108 494.887C364.545 494.887 361.938 495.03 359.322 495.325C332.558 498.319 312.53 516.023 314.679 534.785C315.71 543.803 321.68 551.75 331.489 557.16C341.423 562.637 354.075 564.844 367.098 563.385C393.861 560.392 413.889 542.693 411.745 523.926C410.714 514.907 404.745 506.966 394.931 501.555C386.996 497.179 377.322 494.887 367.108 494.887ZM359.322 566.031C348.723 566.031 338.672 563.648 330.405 559.09C319.94 553.327 313.571 544.785 312.458 535.037C310.175 515.055 331.084 496.259 359.071 493.128C372.561 491.617 385.685 493.924 396.02 499.62C406.479 505.388 412.854 513.93 413.967 523.678C416.25 543.651 395.341 562.456 367.353 565.583C364.655 565.888 361.972 566.031 359.322 566.031Z" fill="black"/>
<path d="M418.828 491.278C446.246 488.208 470.273 501.45 472.49 520.851C474.706 540.252 454.278 558.466 426.859 561.531C399.441 564.596 375.419 551.363 373.198 531.958C370.981 512.557 391.409 494.343 418.828 491.278Z" fill="white"/>
<path d="M426.744 491.935C424.176 491.935 421.569 492.083 418.953 492.374C392.194 495.368 372.166 513.071 374.31 531.833C375.341 540.852 381.311 548.798 391.12 554.204C401.054 559.681 413.706 561.893 426.734 560.434C453.497 557.445 473.52 539.737 471.377 520.975C470.35 511.956 464.376 504.01 454.567 498.604C446.627 494.228 436.957 491.935 426.744 491.935ZM418.953 563.085C408.354 563.085 398.303 560.696 390.036 556.139C379.576 550.376 373.202 541.829 372.089 532.086C369.806 512.108 390.72 493.308 418.702 490.177C432.193 488.665 445.317 490.973 455.651 496.669C466.115 502.437 472.485 510.979 473.598 520.727C475.886 540.704 454.972 559.5 426.984 562.636C424.286 562.932 421.603 563.085 418.953 563.085Z" fill="black"/>
<path d="M387.088 515.427C413.239 512.501 436.158 525.128 438.268 543.637C440.383 562.142 420.9 579.517 394.748 582.444C368.596 585.366 345.678 572.738 343.563 554.229C341.448 535.724 360.936 518.349 387.088 515.427Z" fill="white"/>
<path d="M394.579 516.108C392.161 516.108 389.704 516.246 387.213 516.523C361.716 519.378 342.633 536.234 344.675 554.104C346.718 571.975 369.121 584.197 394.623 581.342C407.038 579.955 418.312 575.235 426.363 568.057C434.308 560.973 438.143 552.345 437.16 543.76C435.319 527.634 416.891 516.108 394.579 516.108ZM387.295 583.963C363.836 583.963 344.425 571.613 342.45 554.357C340.272 535.275 360.237 517.314 386.962 514.325C413.682 511.337 437.198 524.431 439.381 543.508C440.446 552.827 436.355 562.132 427.861 569.706C419.469 577.185 407.751 582.1 394.873 583.539C392.31 583.825 389.781 583.963 387.295 583.963Z" fill="black"/>
<path d="M249.826 551.092C233.604 561.369 223.578 556.254 219.579 553.06C218.504 552.193 216.982 552.241 215.937 553.141C207.992 560.006 186.634 550.181 185.858 532.973C185.136 516.866 179.036 508.124 179.036 508.124C163.99 484.381 162.838 475.314 167.396 458.792C171.954 442.271 195.875 443.834 195.875 443.834C195.875 443.834 208.141 429.396 226.122 434.248C226.122 434.248 235.873 426.845 246.545 433.5C257.207 440.154 277.225 485.706 266.727 532.997C265.46 538.674 261.658 541.496 255.94 542.054C255.94 542.054 253.873 548.527 249.826 551.092Z" fill="#F7CE4D"/>
<path d="M217.816 551.335C218.688 551.335 219.56 551.621 220.282 552.198C224.527 555.592 233.936 559.849 249.223 550.158C252.885 547.841 254.856 541.782 254.875 541.72C255.01 541.296 255.386 540.996 255.834 540.953C261.321 540.414 264.525 537.735 265.633 532.759C270.143 512.448 269.382 489.557 263.494 468.302C258.45 450.108 250.847 437.495 245.947 434.434C236.09 428.285 227.172 434.849 226.801 435.13C226.522 435.34 226.16 435.407 225.828 435.316C208.734 430.702 196.848 444.406 196.732 444.545C196.506 444.812 196.15 444.959 195.803 444.94C195.571 444.926 172.735 443.634 168.476 459.088C164.033 475.176 165.045 483.961 179.985 507.533C180.217 507.862 186.244 516.685 186.976 532.926C187.429 543.036 195.171 549.834 201.666 552.579C207.139 554.896 212.323 554.796 215.199 552.308C215.951 551.659 216.881 551.335 217.816 551.335ZM231.845 558.266C225.375 558.266 221.024 555.635 218.876 553.919C218.22 553.394 217.315 553.418 216.669 553.971C213.142 557.027 207.052 557.27 200.784 554.615C193.697 551.616 185.242 544.161 184.746 533.026C184.042 517.41 178.174 508.834 178.116 508.749C162.699 484.424 161.682 475.31 166.317 458.502C170.663 442.757 191.703 442.609 195.398 442.71C197.624 440.355 209.481 428.91 225.91 433.052C228.058 431.646 237.29 426.417 247.137 432.566C258.358 439.563 278.29 486.063 267.816 533.236C266.544 538.96 262.829 542.269 256.763 543.074C256.089 544.881 253.998 549.762 250.428 552.026C243.013 556.722 236.808 558.266 231.845 558.266Z" fill="black"/>
<path d="M255.939 543.16C255.819 543.16 255.694 543.141 255.573 543.098C254.985 542.898 254.682 542.264 254.884 541.687C263.985 515.894 247.604 456.996 231.575 444.926C228.005 442.243 224.777 441.966 221.699 444.073C216.963 447.324 213.094 451.195 210.203 455.57C209.866 456.08 209.167 456.224 208.652 455.89C208.136 455.556 207.992 454.87 208.329 454.36C211.379 449.741 215.45 445.67 220.427 442.257C224.291 439.606 228.612 439.921 232.929 443.163C241.158 449.359 249.594 466.596 254.942 488.147C260.425 510.241 261.191 530.528 256.995 542.417C256.836 542.874 256.402 543.16 255.939 543.16Z" fill="black"/>
<path d="M182.544 462.444C182.544 462.444 181.276 467.234 188.272 470.018C195.272 472.807 205.438 466.09 204.378 463.573C203.323 461.066 196.718 464.817 193.668 463.125C190.618 461.433 184.519 457.496 182.544 462.444Z" fill="#FFFDB7"/>
<path d="M190.098 452.714C190.098 452.714 197.498 446.198 198.158 438.504C198.818 430.811 187.313 414.532 188.455 411.872C189.597 409.208 198.163 408.469 198.163 408.469C198.163 408.469 207.182 440.22 214.125 441.693C221.063 443.161 221.063 443.161 221.063 443.161L214.554 452.061C211.225 456.613 205.226 458.391 199.917 456.399L190.098 452.714Z" fill="#FFFDB7"/>
<path d="M192.126 452.291L200.312 455.366C205.14 457.177 210.622 455.552 213.648 451.419L219.155 443.892L213.889 442.777C206.995 441.313 199.373 416.655 197.344 409.667C193.769 410.086 189.968 411.178 189.486 412.307C189.313 413.189 191.332 417.222 192.955 420.463C195.952 426.441 199.676 433.872 199.271 438.601C198.746 444.693 194.357 449.974 192.126 452.291ZM204.354 458.312C202.735 458.312 201.097 458.026 199.522 457.435L189.698 453.75C189.337 453.612 189.072 453.297 189 452.92C188.927 452.539 189.062 452.148 189.356 451.891C189.424 451.829 196.429 445.565 197.046 438.415C197.397 434.301 193.822 427.17 190.951 421.445C188.108 415.768 186.769 412.975 187.429 411.44C188.764 408.322 196.52 407.502 198.067 407.369C198.592 407.326 199.093 407.66 199.238 408.17C202.654 420.196 209.784 439.64 214.356 440.613L221.299 442.085C221.67 442.162 221.973 442.419 222.108 442.767C222.243 443.12 222.19 443.511 221.969 443.816L215.46 452.715C212.834 456.305 208.657 458.312 204.354 458.312Z" fill="black"/>
<path d="M295.422 483.938C293.495 483.938 291.597 484.081 289.737 484.352C282.737 485.372 275.606 485.291 268.697 483.795C265.518 483.099 262.232 482.736 258.854 482.736C232.182 482.736 210.555 505.412 210.555 533.374C210.555 561.341 236.326 584.012 263.003 584.012C265.45 584.012 267.82 583.826 270.104 583.454C275.307 582.615 280.593 582.372 285.844 582.815C286.88 582.901 287.94 582.944 289.024 582.944C313.273 582.944 339.328 560.783 339.328 533.441C339.328 506.103 319.671 483.938 295.422 483.938Z" fill="#F7CE4D"/>
<path d="M258.854 483.847C232.838 483.847 211.673 506.065 211.673 533.373C211.673 559.758 235.661 582.91 263.003 582.91C265.349 582.91 267.681 582.724 269.926 582.367C275.327 581.489 280.708 581.27 285.941 581.713C286.947 581.795 287.983 581.842 289.024 581.842C311.769 581.842 338.21 560.697 338.21 533.44C338.21 506.756 319.015 485.043 295.422 485.043C293.577 485.043 291.717 485.176 289.896 485.443C282.433 486.535 275.221 486.34 268.456 484.871C265.32 484.19 262.087 483.847 258.854 483.847ZM263.003 585.117C234.466 585.117 209.437 560.94 209.437 533.373C209.437 504.844 231.604 481.635 258.854 481.635C262.251 481.635 265.643 481.997 268.938 482.712C275.433 484.123 282.37 484.304 289.573 483.255C291.5 482.974 293.466 482.831 295.422 482.831C320.249 482.831 340.445 505.535 340.445 533.44C340.445 546.601 334.616 559.314 324.04 569.244C314.014 578.653 301.257 584.049 289.024 584.049C287.925 584.049 286.822 584.002 285.748 583.916C280.703 583.491 275.5 583.706 270.287 584.55C267.922 584.926 265.474 585.117 263.003 585.117Z" fill="black"/>
<path d="M283.161 496.112C283.161 496.112 288.99 504.001 290.026 533.351C290.941 559.163 278.444 578.54 278.444 578.54C283.724 578.33 298.289 577.019 310.989 566.098C313.961 563.543 329.947 549.805 328.189 529.451C327.827 525.266 326.146 514.245 316.775 505.493C303.242 492.847 285.256 495.736 283.161 496.112Z" fill="white"/>
<path d="M284.924 496.965C286.639 500.43 290.339 510.435 291.144 533.311C291.9 554.647 283.488 571.841 280.453 577.314C287.762 576.727 299.753 574.291 310.256 565.263C317.175 559.314 328.56 546.768 327.076 529.546C326.623 524.297 324.58 514.301 316.004 506.293C304.687 495.72 290.272 496.302 284.924 496.965ZM278.444 579.64C278.049 579.64 277.678 579.435 277.475 579.092C277.268 578.734 277.278 578.286 277.504 577.943C277.625 577.752 289.8 558.537 288.913 533.388C287.906 504.935 282.308 496.836 282.25 496.76C282.028 496.45 281.98 496.045 282.125 495.697C282.269 495.344 282.582 495.086 282.963 495.02C286.36 494.419 304.012 492.04 317.541 504.682C326.657 513.2 328.825 523.797 329.302 529.355C330.872 547.554 318.962 560.706 311.721 566.936C299.647 577.314 285.719 579.349 278.492 579.64C278.478 579.64 278.463 579.64 278.444 579.64Z" fill="black"/>
<path d="M292.926 546.298C292.926 546.298 292.666 518.903 304.388 523.989C319.222 530.424 292.926 546.298 292.926 546.298Z" fill="black"/>
<path d="M252.394 492.466L250.703 492.18C245.687 491.312 240.513 492.713 236.827 495.96C227.88 503.844 222.961 512.367 220.268 519.05C217.83 525.089 222.335 531.601 229.301 532.149C236.89 532.745 243.972 528.517 246.415 521.877C248.934 515.032 253.275 508.739 257.216 503.944C260.738 499.659 258.132 493.457 252.394 492.466Z" fill="#F7CE4D"/>
<path d="M276.146 493.123C270.918 493.123 267.03 491.597 264.973 490.548C261.957 489.014 261.904 488.17 261.885 487.893C261.846 487.283 262.319 486.759 262.93 486.721C263.398 486.692 263.798 486.94 263.995 487.312C265.392 488.747 277.047 495.272 292.334 485.863C292.854 485.539 293.548 485.701 293.876 486.215C294.203 486.735 294.04 487.417 293.514 487.741C286.856 491.84 280.94 493.123 276.146 493.123Z" fill="black"/>
<path d="M275.77 491.984C275.77 491.984 264.376 457.677 298.062 440.836C298.062 440.836 315.084 490.601 275.77 491.984Z" fill="#F7CE4D"/>
<path d="M297.388 442.433C284.524 449.231 277.129 459.436 275.404 472.783C274.305 481.273 275.963 488.499 276.599 490.84C285.406 490.354 291.871 487.241 295.832 481.569C304.523 469.122 298.978 447.772 297.388 442.433ZM275.77 493.095C275.288 493.095 274.859 492.785 274.71 492.332C274.589 491.974 271.795 483.394 273.173 472.588C274.45 462.573 279.716 448.768 297.556 439.854C297.845 439.707 298.183 439.697 298.486 439.816C298.785 439.935 299.016 440.178 299.122 440.484C299.498 441.589 308.243 467.683 297.672 482.827C293.162 489.286 285.806 492.742 275.813 493.095C275.794 493.095 275.784 493.095 275.77 493.095Z" fill="black"/>
<path d="M277.962 490.501C277.687 490.501 277.408 490.396 277.191 490.196C276.743 489.772 276.729 489.071 277.153 488.628C289.626 475.696 290.729 454.803 290.739 454.598C290.763 453.988 291.264 453.521 291.905 453.54C292.522 453.568 292.999 454.083 292.97 454.693C292.931 455.585 291.833 476.611 278.771 490.158C278.555 490.387 278.256 490.501 277.962 490.501Z" fill="black"/>
<path d="M271.121 491.488C270.634 491.45 273 475.396 261.827 465.886C261.827 465.886 263.73 456.881 270.075 460.209C283.127 467.063 275.77 491.984 275.77 491.984L271.121 491.488Z" fill="black"/>
<path d="M275.587 91.7777C275.587 130.479 243.876 161.854 204.759 161.854C165.643 161.854 133.931 130.479 133.931 91.7777C133.931 53.0714 165.643 21.7012 204.759 21.7012C243.876 21.7012 275.587 53.0714 275.587 91.7777Z" fill="#F7CE4D"/>
<path d="M264.742 92.0977C264.742 123.997 238.6 149.862 206.354 149.862C174.108 149.862 147.966 123.997 147.966 92.0977C147.966 60.1936 174.108 34.3242 206.354 34.3242C238.6 34.3242 264.742 60.1936 264.742 92.0977Z" fill="white"/>
<path d="M205.328 45.9837H204.783C204.528 45.9837 204.316 45.7787 204.316 45.5261V1.55722C204.316 1.30458 204.528 1.09961 204.783 1.09961H205.328C205.588 1.09961 205.795 1.30458 205.795 1.55722V45.5261C205.795 45.7787 205.588 45.9837 205.328 45.9837Z" fill="#F7CE4D"/>
<path d="M207.385 53.1381L202.398 53.0714L202.466 47.5371L207.457 47.5943L207.385 53.1381Z" fill="white"/>
<path d="M203.53 51.9859L206.281 52.0193L206.325 48.6921L203.569 48.6587L203.53 51.9859ZM207.385 54.2454C207.38 54.2454 207.375 54.2454 207.37 54.2454L202.384 54.1834C201.762 54.1739 201.271 53.6734 201.276 53.0585L201.348 47.5242C201.353 47.2335 201.473 46.9475 201.685 46.7425C201.897 46.5423 202.167 46.4231 202.48 46.4279L207.467 46.4898C207.765 46.4946 208.05 46.6138 208.252 46.8283C208.459 47.0333 208.575 47.3193 208.57 47.61L208.503 53.1538C208.493 53.7592 207.997 54.2454 207.385 54.2454Z" fill="#F7CE4D"/>
<path d="M212.439 109.721L195.909 109.516L196.636 52.2188L213.166 52.4237L212.439 109.721Z" fill="white"/>
<path d="M212.723 87.3977L196.193 87.1927L196.636 52.2188L213.166 52.4237L212.723 87.3977Z" fill="#FFFDB7"/>
<path d="M207.51 144.152L199.97 144.056L200.423 107.977L207.968 108.072L207.51 144.152Z" fill="white"/>
<path d="M207.52 143.546L203.776 143.498L204.441 90.5488L208.184 90.5965L207.52 143.546Z" fill="#F7CE4D"/>
<path d="M201.097 142.964L206.407 143.03L207.062 91.1678L201.757 91.1011L201.097 142.964ZM207.51 145.257C207.505 145.257 207.5 145.257 207.496 145.257L199.956 145.166C199.657 145.156 199.373 145.037 199.165 144.828C198.958 144.618 198.847 144.337 198.852 144.046L199.536 89.9666C199.541 89.3612 200.042 88.875 200.654 88.875C200.654 88.875 200.659 88.875 200.669 88.875L208.209 88.9703C208.825 88.9751 209.317 89.4756 209.312 90.0905L208.628 144.165C208.623 144.77 208.122 145.257 207.51 145.257Z" fill="#F7CE4D"/>
<path d="M212.675 91.1019L196.145 90.8969L196.193 87.1836L212.723 87.3886L212.675 91.1019Z" fill="#F7CE4D"/>
<path d="M201.574 105.378L206.879 105.444L207.062 91.1678L201.757 91.1011L201.574 105.378ZM207.982 107.666C207.982 107.666 207.977 107.666 207.972 107.666L200.432 107.575C200.134 107.57 199.85 107.451 199.642 107.241C199.435 107.032 199.32 106.746 199.324 106.455L199.536 89.9666C199.541 89.3612 200.042 88.875 200.654 88.875C200.654 88.875 200.659 88.875 200.669 88.875L208.209 88.9703C208.507 88.9751 208.787 89.0943 208.994 89.304C209.201 89.5137 209.317 89.795 209.312 90.0905L209.105 106.574C209.095 107.184 208.594 107.666 207.982 107.666Z" fill="#F7CE4D"/>
<path d="M197.041 108.425L211.335 108.601L212.034 53.5207L197.739 53.3395L197.041 108.425ZM212.439 110.827C212.439 110.827 212.434 110.827 212.429 110.827L195.894 110.622C195.277 110.617 194.786 110.117 194.791 109.502L195.518 52.205C195.523 51.9095 195.643 51.633 195.855 51.428C196.067 51.2231 196.352 51.1087 196.65 51.1134L213.18 51.3232C213.479 51.3232 213.759 51.4423 213.966 51.6568C214.173 51.8666 214.289 52.1431 214.284 52.4386L213.561 109.735C213.551 110.341 213.055 110.827 212.439 110.827Z" fill="#F7CE4D"/>
<path d="M217.666 110.069L190.676 109.735L190.724 106.279L217.709 106.613L217.666 110.069Z" fill="white"/>
<path d="M191.809 108.644L216.558 108.949L216.577 107.705L191.828 107.4L191.809 108.644ZM217.666 111.175C217.661 111.175 217.657 111.175 217.652 111.175L190.667 110.842C190.045 110.832 189.554 110.332 189.563 109.721L189.602 106.266C189.607 105.97 189.727 105.689 189.939 105.484C190.151 105.279 190.44 105.169 190.734 105.174L217.724 105.508C218.341 105.512 218.837 106.013 218.827 106.628L218.784 110.079C218.779 110.375 218.659 110.656 218.447 110.861C218.239 111.061 217.955 111.175 217.666 111.175Z" fill="#F7CE4D"/>
<path d="M212.757 147.268L194.646 147.044L194.69 143.588L212.8 143.812L212.757 147.268Z" fill="white"/>
<path d="M195.778 145.949L211.653 146.149L211.668 144.905L195.793 144.709L195.778 145.949ZM212.757 148.375C212.752 148.375 212.747 148.375 212.742 148.375L194.632 148.151C194.015 148.141 193.524 147.641 193.528 147.031L193.572 143.575C193.572 143.284 193.697 143.003 193.909 142.798C194.121 142.593 194.386 142.483 194.704 142.479L212.815 142.707C213.431 142.712 213.923 143.213 213.918 143.828L213.874 147.279C213.87 147.574 213.749 147.855 213.537 148.06C213.33 148.261 213.051 148.375 212.757 148.375Z" fill="#F7CE4D"/>
<path d="M203.318 57.0529C203.309 57.0529 203.304 57.0529 203.299 57.0529L199.835 57.0053C199.214 56.9957 198.722 56.5 198.727 55.8899C198.737 55.2797 199.257 54.7744 199.859 54.7935L203.328 54.8412C203.945 54.8459 204.441 55.3464 204.431 55.9614C204.427 56.5667 203.925 57.0529 203.318 57.0529Z" fill="#F7CE4D"/>
<path d="M205.212 61.1524C205.212 61.1524 205.207 61.1524 205.202 61.1524L199.782 61.0857C199.165 61.0762 198.669 60.5757 198.679 59.9655C198.684 59.3554 199.185 58.8691 199.796 58.8691C199.796 58.8691 199.806 58.8691 199.811 58.8691L205.231 58.9359C205.848 58.9502 206.339 59.4459 206.334 60.0608C206.325 60.6662 205.828 61.1524 205.212 61.1524Z" fill="#F7CE4D"/>
<path d="M203.208 65.4182C203.208 65.4182 203.203 65.4182 203.198 65.4182L199.724 65.3705C199.107 65.3657 198.616 64.8652 198.621 64.2503C198.631 63.6449 199.156 63.1397 199.753 63.1587L203.227 63.2064C203.839 63.2112 204.335 63.7117 204.33 64.3266C204.32 64.9272 203.824 65.4182 203.208 65.4182Z" fill="#F7CE4D"/>
<path d="M205.111 69.5171C205.106 69.5171 205.096 69.5171 205.096 69.5171L199.676 69.4504C199.06 69.4408 198.563 68.9403 198.568 68.3302C198.578 67.7153 199.055 67.2243 199.7 67.2386L205.12 67.3053C205.742 67.3101 206.233 67.8106 206.229 68.4255C206.219 69.0309 205.718 69.5171 205.111 69.5171Z" fill="#F7CE4D"/>
<path d="M203.102 73.783C203.097 73.783 203.092 73.783 203.092 73.783L199.618 73.7354C199.006 73.7306 198.51 73.2301 198.515 72.6152C198.525 72.0098 199.055 71.514 199.647 71.5236L203.116 71.5712C203.738 71.576 204.229 72.0765 204.219 72.6867C204.215 73.2921 203.714 73.783 203.102 73.783Z" fill="#F7CE4D"/>
<path d="M205.005 77.8843C205 77.8843 204.995 77.8843 204.99 77.8843L199.57 77.8176C198.953 77.808 198.457 77.3075 198.467 76.6974C198.472 76.0872 198.948 75.5915 199.599 75.6058L205.019 75.6725C205.631 75.6773 206.127 76.1778 206.122 76.7879C206.113 77.3981 205.616 77.8843 205.005 77.8843Z" fill="#F7CE4D"/>
<path d="M203 81.9354C202.996 81.9354 202.991 81.9354 202.986 81.9354L199.517 81.8877C198.9 81.8829 198.409 81.3824 198.414 80.7675C198.419 80.1574 198.949 79.6664 199.546 79.6759L203.015 79.7236C203.632 79.7284 204.128 80.2289 204.118 80.8438C204.109 81.4492 203.612 81.9354 203 81.9354Z" fill="#F7CE4D"/>
<path d="M204.899 86.2498C204.894 86.2498 204.889 86.2498 204.884 86.2498L199.464 86.183C198.847 86.1735 198.351 85.673 198.361 85.0628C198.366 84.4479 198.847 83.9522 199.493 83.9712L204.913 84.0332C205.53 84.0427 206.026 84.5432 206.016 85.1534C206.007 85.7635 205.511 86.2498 204.899 86.2498Z" fill="#F7CE4D"/>
<path d="M208.642 48.5623L201.035 48.4193C200.977 48.4193 200.938 48.3668 200.953 48.3144L203.193 39.8867L206.922 39.9344L208.874 48.2715C208.912 48.4193 208.796 48.5623 208.642 48.5623Z" fill="#F7CE4D"/>
<path d="M239.79 142.783L232.317 147.631L164.428 45.3068L171.901 40.459L239.79 142.783Z" fill="#F7CE4D"/>
<path d="M610.166 87.856C610.166 124.074 580.497 153.433 543.886 153.433C507.284 153.433 477.606 124.074 477.606 87.856C477.606 51.6379 507.284 22.2793 543.886 22.2793C580.497 22.2793 610.166 51.6379 610.166 87.856Z" fill="#F7CE4D"/>
<path d="M600.015 88.15C600.015 118.004 575.559 142.205 545.38 142.205C515.205 142.205 490.745 118.004 490.745 88.15C490.745 58.2956 515.205 34.0898 545.38 34.0898C575.559 34.0898 600.015 58.2956 600.015 88.15Z" fill="white"/>
<path d="M594.652 100.916C593.785 106.693 588.355 110.683 582.516 109.825L544.869 104.295C540.398 103.637 537.31 99.5189 537.974 95.0953L538.495 91.6251C539.237 86.7105 543.857 83.3166 548.824 84.0459L586.11 89.5229C591.655 90.3333 595.471 95.4385 594.652 100.916Z" fill="#F7CE4D"/>
<path d="M538.307 92.8979C536.905 101.669 542.46 103.866 549.47 104.896L565.311 107.222L568.356 86.9489L552.51 84.6227C545.505 83.5931 539.82 84.7419 538.307 92.8979Z" fill="white"/>
<path d="M554.057 103.666C554.004 103.666 553.946 103.666 553.888 103.657L550.202 103.113C547.548 102.727 545.172 101.526 543.515 99.7336C541.8 97.8841 541.039 95.6151 541.381 93.3461C541.472 92.7455 542.036 92.326 542.653 92.4166C543.26 92.5072 543.684 93.0696 543.592 93.6703C543.351 95.2671 543.91 96.8878 545.163 98.2416C546.478 99.6574 548.381 100.611 550.535 100.925L554.22 101.469C554.832 101.555 555.251 102.117 555.16 102.722C555.078 103.271 554.601 103.666 554.057 103.666Z" fill="white"/>
<path d="M548.641 85.2394C544.088 85.2394 540.089 88.5476 539.4 93.1332L539.309 93.7482C538.61 98.3958 541.867 102.738 546.565 103.425L582.554 108.711C585.113 109.092 587.666 108.454 589.747 106.928C591.829 105.408 593.183 103.172 593.568 100.636C593.915 98.31 593.322 95.9886 591.906 94.1009C590.494 92.2133 588.418 90.9834 586.071 90.6355L550.019 85.3395C549.557 85.2728 549.094 85.2394 548.641 85.2394ZM584.005 111.033C583.412 111.033 582.819 110.99 582.227 110.899L546.237 105.617C540.316 104.745 536.221 99.2729 537.097 93.424L537.189 92.8091C537.642 89.7774 539.261 87.108 541.747 85.2823C544.233 83.4567 547.287 82.7035 550.347 83.1516L586.399 88.4475C589.338 88.8765 591.935 90.4209 593.708 92.7805C595.476 95.1448 596.208 98.0526 595.775 100.96C595.312 104.078 593.64 106.828 591.082 108.706C589.006 110.232 586.539 111.033 584.005 111.033Z" fill="#F7CE4D"/>
<path d="M549.465 71.2615C551.561 76.7243 548.781 82.8258 543.264 84.8993L507.684 98.2559C503.459 99.8432 498.728 97.7363 497.128 93.5558L495.871 90.2715C494.088 85.6286 496.449 80.4328 501.142 78.6739L536.389 65.4413C541.626 63.4774 547.48 66.0848 549.465 71.2615Z" fill="white"/>
<path d="M496.333 91.4785C499.431 99.8108 505.372 99.0434 511.991 96.5599L526.97 90.9351L519.623 71.7773L504.644 77.3974C498.024 79.8809 493.63 83.6276 496.333 91.4785Z" fill="#F7CE4D"/>
<path d="M540.046 65.8618C539.001 65.8618 537.936 66.0429 536.905 66.4338L502.828 79.2231C498.005 81.0344 495.572 86.3876 497.403 91.1543L497.624 91.7311C499.311 96.1261 504.292 98.3474 508.735 96.679L542.754 83.9088C547.75 82.0355 550.274 76.4869 548.376 71.5438C547.027 68.0306 543.64 65.8618 540.046 65.8618ZM505.69 99.4438C501.31 99.4438 497.176 96.803 495.533 92.5176L495.312 91.9361C493.047 86.03 496.063 79.3994 502.033 77.159L536.11 64.365C541.853 62.2104 548.289 65.08 550.467 70.7573C552.799 76.8397 549.696 83.6705 543.549 85.9776L509.525 98.7478C508.262 99.2197 506.966 99.4438 505.69 99.4438Z" fill="#F7CE4D"/>
<path d="M502.486 100.206C502.929 94.3859 508.06 90.0195 513.943 90.4581L551.893 93.2848C556.403 93.6232 559.78 97.5129 559.438 101.97L559.173 105.469C558.797 110.426 554.432 114.139 549.422 113.763L511.832 110.965C506.249 110.545 502.062 105.731 502.486 100.206Z" fill="white"/>
<path d="M559.269 104.186C560.031 95.3393 554.326 93.5422 547.263 93.0179L531.292 91.8262L529.736 112.261L545.707 113.453C552.77 113.977 558.354 112.428 559.269 104.186Z" fill="#F7CE4D"/>
<path d="M503.594 100.411C503.223 105.254 506.904 109.487 511.794 109.854L548.135 112.562C550.636 112.743 553.045 111.961 554.934 110.35C556.827 108.739 557.974 106.494 558.161 104.029L558.21 103.414C558.566 98.7285 555.001 94.6291 550.265 94.2764L513.986 91.5736C511.399 91.3782 508.898 92.1933 506.938 93.8617C504.972 95.53 503.787 97.8562 503.594 100.411ZM548.858 114.797C548.559 114.797 548.266 114.788 547.967 114.764L511.63 112.061C505.507 111.604 500.901 106.303 501.363 100.244C501.599 97.1031 503.064 94.243 505.478 92.1837C507.896 90.1293 510.98 89.1282 514.15 89.3666L550.434 92.0693C556.403 92.5127 560.888 97.6751 560.44 103.581L560.392 104.196C560.156 107.247 558.74 110.031 556.393 112.023C554.273 113.83 551.624 114.797 548.858 114.797Z" fill="#F7CE4D"/>
<path d="M576.662 135.581L569.681 140.123L506.152 44.3633L513.138 39.8301L576.662 135.581Z" fill="#F7CE4D"/>
<path d="M608.118 366.541C608.118 399.909 580.777 426.956 547.056 426.956C513.331 426.956 485.994 399.909 485.994 366.541C485.994 333.174 513.331 306.127 547.056 306.127C580.777 306.127 608.118 333.174 608.118 366.541Z" fill="#F7CE4D"/>
<path d="M598.767 366.812C598.767 394.317 576.228 416.616 548.429 416.616C520.63 416.616 498.097 394.317 498.097 366.812C498.097 339.308 520.63 317.014 548.429 317.014C576.228 317.014 598.767 339.308 598.767 366.812Z" fill="white"/>
<path d="M532.01 418.703C530.714 417.616 530.555 415.69 531.658 414.408L537.059 408.135C546.926 396.666 549.865 380.731 544.715 366.55C538.822 350.323 542.18 332.086 553.474 318.953L557.135 314.701C558.238 313.419 560.185 313.262 561.481 314.353C562.777 315.445 562.931 317.366 561.828 318.648L558.166 322.905C548.294 334.379 545.36 350.314 550.511 364.49C556.403 380.721 553.045 398.959 541.747 412.087L536.351 418.36C535.247 419.642 533.306 419.795 532.01 418.703Z" fill="#F7CE4D"/>
<path d="M557.622 328.148C557.338 327.905 557.265 327.485 557.468 327.166C557.694 326.809 558.171 326.699 558.532 326.923L587.406 344.837C587.763 345.065 587.878 345.532 587.647 345.89C587.421 346.247 586.948 346.352 586.587 346.128L557.713 328.215C557.685 328.191 557.651 328.172 557.622 328.148Z" fill="#F7CE4D"/>
<path d="M553.498 335.744C553.209 335.501 553.137 335.086 553.344 334.762C553.57 334.404 554.042 334.295 554.408 334.519L580.382 350.64C580.743 350.859 580.849 351.331 580.623 351.684C580.401 352.046 579.924 352.151 579.563 351.927L553.589 335.81C553.556 335.791 553.527 335.768 553.498 335.744Z" fill="#F7CE4D"/>
<path d="M551.6 344.724C551.315 344.481 551.243 344.066 551.45 343.737C551.677 343.384 552.154 343.275 552.51 343.494L573.357 356.436C573.719 356.655 573.824 357.127 573.608 357.484C573.376 357.842 572.899 357.947 572.538 357.728L551.691 344.786C551.657 344.767 551.628 344.748 551.6 344.724Z" fill="#F7CE4D"/>
<path d="M532.308 409.04C532.28 409.017 532.255 408.993 532.231 408.964L509.746 383.624C509.467 383.305 509.496 382.828 509.818 382.547C510.136 382.27 510.623 382.299 510.903 382.618L533.388 407.958C533.667 408.273 533.638 408.754 533.315 409.036C533.026 409.288 532.598 409.284 532.308 409.04Z" fill="#F7CE4D"/>
<path d="M536.972 401.258C536.943 401.234 536.919 401.21 536.89 401.182L516.665 378.382C516.385 378.068 516.414 377.586 516.737 377.305C517.055 377.028 517.542 377.062 517.821 377.376L538.051 400.176C538.331 400.495 538.297 400.972 537.979 401.248C537.69 401.501 537.261 401.501 536.972 401.258Z" fill="#F7CE4D"/>
<path d="M541.636 393.474C541.607 393.45 541.583 393.426 541.559 393.398L525.318 375.098C525.038 374.784 525.072 374.302 525.39 374.026C525.713 373.749 526.195 373.778 526.479 374.092L542.715 392.392C542.995 392.707 542.961 393.188 542.643 393.465C542.354 393.722 541.92 393.713 541.636 393.474Z" fill="#F7CE4D"/>
<path d="M542.686 367.276C542.026 365.455 541.482 363.61 541.044 361.751C526.272 361.217 511.818 367.371 502.086 378.682L496.69 384.956C495.587 386.238 495.741 388.159 497.037 389.25C498.333 390.342 500.274 390.189 501.378 388.907L506.779 382.634C515.745 372.214 529.293 366.799 542.922 367.962C542.845 367.733 542.768 367.5 542.686 367.276Z" fill="#F7CE4D"/>
<path d="M552.539 363.772C553.199 365.593 553.744 367.437 554.182 369.296C568.954 369.825 583.407 363.676 593.139 352.36L596.801 348.108C597.9 346.821 597.75 344.9 596.449 343.808C595.153 342.717 593.212 342.874 592.108 344.156L588.447 348.413C579.481 358.833 565.928 364.248 552.303 363.08C552.38 363.309 552.457 363.543 552.539 363.772Z" fill="#F7CE4D"/>
<path d="M577.255 410.514L570.813 414.694L512.29 326.48L518.727 322.295L577.255 410.514Z" fill="#F7CE4D"/>
<path d="M574.774 206.391C574.268 206.391 573.805 206.052 573.685 205.547C572.948 202.539 572.133 199.703 571.271 197.114C571.083 196.533 571.396 195.908 571.989 195.718C572.572 195.527 573.203 195.842 573.396 196.423C574.277 199.069 575.101 201.962 575.858 205.023C576.002 205.618 575.636 206.214 575.034 206.357C574.947 206.381 574.86 206.391 574.774 206.391ZM578.026 223.789C577.476 223.789 576.999 223.389 576.918 222.836C576.503 219.828 576.031 216.901 575.525 214.146C575.41 213.541 575.814 212.969 576.421 212.854C577.024 212.745 577.611 213.145 577.722 213.746C578.242 216.539 578.715 219.495 579.139 222.531C579.22 223.141 578.792 223.699 578.18 223.78C578.127 223.789 578.079 223.789 578.026 223.789ZM579.818 241.403C579.24 241.403 578.744 240.959 578.705 240.373C578.503 237.413 578.257 234.457 577.968 231.588C577.905 230.978 578.353 230.439 578.965 230.377C579.582 230.32 580.126 230.758 580.194 231.369C580.483 234.262 580.738 237.241 580.94 240.225C580.979 240.835 580.517 241.365 579.9 241.403C579.871 241.403 579.842 241.403 579.818 241.403ZM580.497 259.097C579.885 259.097 579.389 258.606 579.384 258.001C579.355 255.088 579.288 252.118 579.172 249.182C579.153 248.567 579.635 248.057 580.256 248.033C580.883 248.005 581.389 248.486 581.408 249.096C581.519 252.056 581.596 255.045 581.615 257.982C581.625 258.592 581.124 259.092 580.507 259.097C580.502 259.097 580.502 259.097 580.497 259.097ZM580.011 276.791C579.987 276.791 579.958 276.791 579.934 276.791C579.322 276.744 578.859 276.215 578.898 275.604C579.095 272.925 579.225 269.97 579.307 266.814C579.322 266.214 579.823 265.737 580.43 265.737C580.435 265.737 580.439 265.737 580.454 265.737C581.071 265.751 581.562 266.257 581.543 266.872C581.461 270.056 581.321 273.049 581.124 275.762C581.085 276.348 580.594 276.791 580.011 276.791ZM577.698 289.423C577.39 289.423 577.081 289.299 576.86 289.052C576.455 288.589 576.498 287.893 576.961 287.488C576.966 287.483 577.395 286.987 577.905 284.275C578.016 283.675 578.594 283.279 579.206 283.389C579.813 283.498 580.213 284.075 580.102 284.676C579.51 287.869 578.898 288.742 578.44 289.147C578.228 289.333 577.968 289.423 577.698 289.423Z" fill="#F7CE4D"/>
<path d="M384.293 21.4914C384.255 21.4914 384.221 21.4914 384.182 21.4866C381.234 21.2054 378.256 21.0242 375.332 20.9337C374.71 20.9146 374.229 20.4046 374.248 19.7944C374.262 19.1843 374.788 18.7028 375.399 18.7171C378.372 18.8124 381.402 19.0031 384.399 19.2844C385.011 19.3416 385.459 19.8802 385.401 20.4904C385.348 21.0624 384.862 21.4914 384.293 21.4914ZM357.501 21.5867C356.937 21.5867 356.451 21.1672 356.393 20.5952C356.325 19.9946 356.769 19.4464 357.38 19.3797C360.343 19.0699 363.369 18.8553 366.38 18.7457C367.002 18.7266 367.517 19.2033 367.541 19.8135C367.561 20.4236 367.079 20.9337 366.462 20.9527C363.504 21.0671 360.531 21.2721 357.621 21.5819C357.583 21.5867 357.539 21.5867 357.501 21.5867ZM401.946 24.2799C401.864 24.2799 401.782 24.2704 401.7 24.2466C398.81 23.6126 395.875 23.0597 392.985 22.602C392.378 22.5019 391.958 21.9395 392.055 21.3341C392.156 20.7287 392.734 20.3187 393.336 20.4189C396.275 20.8812 399.253 21.4485 402.187 22.092C402.789 22.2207 403.17 22.8118 403.035 23.4124C402.919 23.9272 402.457 24.2799 401.946 24.2799ZM339.911 24.7471C339.419 24.7471 338.962 24.4134 338.832 23.9177C338.677 23.3266 339.034 22.7212 339.631 22.5687C342.508 21.8251 345.475 21.1815 348.448 20.6477C349.05 20.5428 349.638 20.9432 349.749 21.539C349.855 22.1444 349.455 22.7117 348.848 22.8261C345.928 23.3457 343.013 23.9796 340.195 24.7042C340.103 24.7328 340.007 24.7471 339.911 24.7471ZM419.131 29.1421C419.011 29.1421 418.886 29.123 418.765 29.0801C415.966 28.1124 413.119 27.2163 410.3 26.4202C409.708 26.2534 409.366 25.6337 409.534 25.0522C409.708 24.4611 410.32 24.1226 410.917 24.2942C413.774 25.0998 416.665 26.0055 419.502 26.9875C420.085 27.1877 420.394 27.8169 420.191 28.3985C420.028 28.8561 419.594 29.1421 419.131 29.1421ZM323.048 30.5769C322.619 30.5769 322.21 30.329 322.022 29.9191C321.771 29.3613 322.022 28.7035 322.586 28.4557C325.293 27.2544 328.121 26.1485 330.988 25.157C331.571 24.9568 332.207 25.2667 332.414 25.8387C332.616 26.4202 332.308 27.0495 331.725 27.2497C328.916 28.2173 326.151 29.2994 323.501 30.4768C323.352 30.5435 323.197 30.5769 323.048 30.5769ZM435.662 35.8871C435.498 35.8871 435.339 35.8442 435.185 35.7727C432.501 34.5142 429.769 33.3082 427.067 32.2071C426.493 31.9783 426.219 31.3253 426.455 30.758C426.691 30.1955 427.346 29.9238 427.914 30.1622C430.661 31.2776 433.426 32.4979 436.143 33.7802C436.702 34.0423 436.938 34.7049 436.673 35.2531C436.481 35.6535 436.081 35.8871 435.662 35.8871ZM307.51 39.2858C307.159 39.2858 306.812 39.1237 306.595 38.8187C306.238 38.3229 306.354 37.6317 306.86 37.279C309.269 35.5868 311.842 33.9708 314.511 32.4788C315.046 32.1833 315.73 32.3692 316.033 32.9031C316.337 33.4369 316.149 34.1043 315.609 34.4094C313.008 35.8585 310.502 37.4315 308.151 39.0856C307.958 39.2191 307.732 39.2858 307.51 39.2858ZM451.392 44.2957C451.19 44.2957 450.992 44.248 450.809 44.1384C448.27 42.6178 445.673 41.1448 443.1 39.7625C442.556 39.4717 442.359 38.7996 442.648 38.2609C442.941 37.7271 443.626 37.5269 444.165 37.8176C446.772 39.2095 449.397 40.7063 451.97 42.246C452.495 42.5653 452.669 43.247 452.346 43.7666C452.134 44.1098 451.768 44.2957 451.392 44.2957ZM466.222 54.182C465.99 54.182 465.759 54.1105 465.557 53.9627C463.167 52.2133 460.724 50.4973 458.296 48.8861C457.785 48.5381 457.651 47.8565 457.997 47.3417C458.339 46.8412 459.038 46.7077 459.549 47.0461C462.006 48.6859 464.473 50.4115 466.891 52.1847C467.383 52.547 467.489 53.2382 467.123 53.7292C466.901 54.0199 466.564 54.182 466.222 54.182Z" fill="#F7CE4D"/>
</svg>
