<svg width="178" height="269" viewBox="0 0 178 269" fill="none" xmlns="http://www.w3.org/2000/svg">
<path d="M172.357 52.7899L65.6833 22.6313C64.7925 22.3793 63.8607 22.3053 62.9413 22.4135C62.0218 22.5218 61.1328 22.8101 60.3248 23.262C59.5168 23.7139 58.8058 24.3206 58.2323 25.0474C57.6589 25.7742 57.2342 26.6069 56.9827 27.4978L18.0309 165.281C17.5225 167.08 17.7494 169.007 18.6617 170.638C19.5739 172.269 21.0968 173.471 22.8954 173.98L129.569 204.139C131.367 204.647 133.295 204.42 134.926 203.508C136.558 202.596 137.76 201.073 138.269 199.274L177.221 61.4886C177.729 59.69 177.503 57.7631 176.59 56.1318C175.678 54.5005 174.155 53.2984 172.357 52.7899Z" fill="#FFCC2F"/>
<path d="M128.808 203.923L23.6558 174.194C21.6561 173.629 19.9626 172.293 18.9477 170.48C17.9327 168.667 17.6794 166.525 18.2435 164.526L41.9397 80.7093C93.1268 62.9278 117.976 112.48 162.178 114.702L138.482 198.518C137.916 200.518 136.579 202.211 134.765 203.226C132.951 204.24 130.808 204.493 128.808 203.929V203.923Z" fill="#FFFDB7"/>
<path d="M159.074 66.1608L122.947 56.018C121.451 55.6033 119.852 55.7982 118.499 56.5599C117.146 57.3217 116.15 58.5883 115.728 60.0826L85.7057 165.605C85.4929 166.342 85.4279 167.114 85.5144 167.877C85.601 168.639 85.8373 169.377 86.2099 170.048C86.5825 170.719 87.0839 171.31 87.6855 171.786C88.287 172.262 88.9768 172.615 89.7152 172.824L125.84 182.967C127.336 183.381 128.936 183.186 130.289 182.424C131.642 181.663 132.638 180.397 133.061 178.902L163.083 73.3798C163.296 72.6425 163.361 71.8705 163.275 71.108C163.188 70.3456 162.952 69.6077 162.579 68.9369C162.207 68.266 161.705 67.6754 161.104 67.199C160.502 66.7226 159.812 66.3698 159.074 66.1608Z" fill="white"/>
<path d="M125.681 183.555L89.5529 173.408C86.1345 172.449 84.1465 168.871 85.1238 165.437L115.146 59.9179C116.124 56.4838 119.704 54.4682 123.122 55.4257L159.248 65.5725C162.667 66.532 164.655 70.11 163.678 73.5461L133.657 179.063C132.68 182.499 129.1 184.514 125.681 183.555ZM122.787 56.6079C121.447 56.2379 120.015 56.4128 118.804 57.0946C117.592 57.7763 116.7 58.9095 116.321 60.2469L86.3 165.766C86.1106 166.426 86.0532 167.117 86.1311 167.799C86.2091 168.481 86.4208 169.141 86.7543 169.742C87.0877 170.342 87.5363 170.87 88.0744 171.297C88.6124 171.724 89.2293 172.04 89.8898 172.228L126.016 182.375C127.356 182.744 128.788 182.569 129.999 181.887C131.21 181.204 132.102 180.071 132.481 178.734L162.503 73.2151C162.693 72.5551 162.75 71.8642 162.672 71.1819C162.594 70.4997 162.383 69.8395 162.049 69.2392C161.716 68.6389 161.267 68.1103 160.729 67.6836C160.191 67.2569 159.574 66.9406 158.914 66.7527L122.787 56.6079Z" fill="#FFB51B"/>
<path d="M153.602 90.2404L114.838 79.2799C114.368 79.1471 113.971 78.8334 113.733 78.4078C113.495 77.9821 113.436 77.4794 113.569 77.0101C113.701 76.5409 114.015 76.1436 114.441 75.9056C114.866 75.6677 115.369 75.6086 115.838 75.7413L154.603 86.7018C155.582 86.9776 156.15 87.9923 155.872 88.9715C155.806 89.204 155.696 89.4214 155.546 89.611C155.397 89.8007 155.211 89.959 155 90.0769C154.789 90.1948 154.557 90.2699 154.318 90.2979C154.078 90.326 153.835 90.3064 153.602 90.2404ZM148.708 107.555L109.941 96.6181C109.863 96.5952 109.791 96.5572 109.727 96.5062C109.664 96.4552 109.611 96.3922 109.572 96.3209C109.533 96.2495 109.509 96.1711 109.5 96.0903C109.491 96.0094 109.499 95.9277 109.522 95.8497C109.566 95.6916 109.67 95.5572 109.813 95.476C109.955 95.3948 110.124 95.3733 110.282 95.4162L149.047 106.355C149.125 106.378 149.198 106.416 149.261 106.467C149.324 106.518 149.377 106.581 149.416 106.652C149.455 106.724 149.48 106.802 149.488 106.883C149.497 106.964 149.49 107.045 149.467 107.123C149.423 107.281 149.319 107.415 149.177 107.496C149.034 107.577 148.866 107.599 148.708 107.557V107.555ZM144.232 123.39L105.465 112.453C105.387 112.43 105.314 112.392 105.251 112.341C105.188 112.29 105.135 112.227 105.096 112.156C105.057 112.084 105.032 112.006 105.024 111.925C105.015 111.844 105.022 111.763 105.045 111.685C105.089 111.526 105.194 111.392 105.336 111.311C105.479 111.23 105.648 111.208 105.806 111.251L144.571 122.19C144.649 122.213 144.721 122.251 144.785 122.302C144.848 122.353 144.901 122.416 144.94 122.487C144.979 122.558 145.003 122.637 145.012 122.718C145.021 122.799 145.013 122.88 144.99 122.958C144.946 123.116 144.842 123.25 144.7 123.331C144.558 123.412 144.39 123.432 144.232 123.39ZM139.751 139.231L100.987 128.294C100.829 128.247 100.697 128.14 100.618 127.996C100.54 127.852 100.521 127.683 100.567 127.525C100.611 127.368 100.715 127.234 100.857 127.153C100.999 127.071 101.168 127.05 101.326 127.092L140.09 138.031C140.168 138.054 140.241 138.092 140.304 138.143C140.368 138.194 140.42 138.257 140.459 138.328C140.498 138.399 140.523 138.478 140.532 138.558C140.54 138.639 140.533 138.721 140.51 138.799C140.467 138.957 140.362 139.091 140.22 139.173C140.078 139.254 139.909 139.273 139.751 139.231ZM135.275 155.066L96.5103 144.127C96.3534 144.08 96.2213 143.973 96.1427 143.83C96.0641 143.686 96.0454 143.518 96.0906 143.36C96.1344 143.203 96.2386 143.069 96.3807 142.987C96.5228 142.906 96.6911 142.884 96.8491 142.927L135.616 153.866C135.939 153.958 136.128 154.303 136.035 154.634C135.991 154.792 135.887 154.926 135.744 155.007C135.602 155.088 135.433 155.108 135.275 155.066ZM130.799 170.9L92.0339 159.962C91.8771 159.915 91.7451 159.809 91.6664 159.666C91.5878 159.523 91.569 159.354 91.6142 159.197C91.658 159.039 91.7622 158.905 91.9043 158.824C92.0463 158.743 92.2147 158.721 92.3727 158.764L131.137 169.701C131.295 169.747 131.428 169.854 131.507 169.998C131.586 170.142 131.605 170.311 131.559 170.469C131.515 170.627 131.41 170.761 131.268 170.842C131.125 170.923 130.957 170.943 130.799 170.9Z" fill="#FFB51B"/>
<path d="M145.763 99.8909L116.463 91.606C115.697 91.371 115.054 90.8455 114.67 90.1419C114.287 89.4383 114.194 88.6125 114.412 87.8415C114.63 87.0704 115.141 86.4153 115.836 86.0163C116.531 85.6174 117.355 85.5064 118.13 85.7071L147.43 93.99C148.212 94.2111 148.874 94.7338 149.271 95.4432C149.668 96.1526 149.767 96.9906 149.546 97.7729C149.325 98.5551 148.802 99.2175 148.093 99.6144C147.383 100.011 146.545 100.112 145.763 99.8909ZM129.782 112.327L109.006 106.454C108.248 106.212 107.614 105.685 107.238 104.985C106.861 104.284 106.771 103.465 106.988 102.699C107.204 101.934 107.709 101.283 108.397 100.883C109.085 100.483 109.901 100.366 110.673 100.557L131.451 106.428C132.233 106.649 132.896 107.172 133.292 107.882C133.689 108.592 133.787 109.43 133.566 110.212C133.345 110.994 132.822 111.657 132.112 112.053C131.403 112.45 130.565 112.548 129.782 112.327ZM125.136 128.765L104.36 122.89C103.602 122.648 102.968 122.121 102.592 121.421C102.215 120.72 102.126 119.9 102.342 119.135C102.558 118.37 103.064 117.718 103.751 117.319C104.439 116.919 105.255 116.802 106.027 116.993L126.805 122.866C127.587 123.087 128.249 123.61 128.646 124.32C129.042 125.029 129.141 125.867 128.919 126.649C128.698 127.431 128.175 128.093 127.466 128.489C126.756 128.886 125.918 128.986 125.136 128.765ZM120.491 145.201L99.7143 139.325C98.9483 139.09 98.3047 138.565 97.9213 137.861C97.538 137.158 97.4453 136.332 97.6632 135.561C97.8811 134.79 98.3922 134.135 99.0871 133.736C99.782 133.337 100.605 133.226 101.381 133.427L122.157 139.302C122.915 139.544 123.549 140.07 123.926 140.771C124.302 141.471 124.392 142.291 124.176 143.056C123.959 143.822 123.454 144.473 122.766 144.873C122.079 145.273 121.263 145.391 120.491 145.201ZM115.933 161.317L95.1572 155.446C94.3911 155.211 93.7475 154.686 93.3642 153.982C92.9808 153.278 92.8881 152.453 93.106 151.681C93.3239 150.91 93.835 150.255 94.5299 149.856C95.2248 149.457 96.0482 149.346 96.824 149.547L117.6 155.42C118.358 155.662 118.992 156.189 119.369 156.89C119.745 157.59 119.835 158.41 119.619 159.175C119.402 159.94 118.897 160.592 118.209 160.991C117.522 161.391 116.706 161.508 115.933 161.317ZM143.444 115.897L137.11 114.118C136.722 114.008 136.36 113.823 136.045 113.574C135.729 113.324 135.466 113.014 135.271 112.662C135.075 112.31 134.951 111.923 134.905 111.523C134.86 111.123 134.894 110.718 135.005 110.331C135.227 109.548 135.75 108.883 136.46 108.484C137.17 108.085 138.009 107.982 138.794 108.199L145.129 109.977C145.516 110.086 145.878 110.272 146.194 110.522C146.509 110.772 146.772 111.082 146.968 111.434C147.163 111.786 147.287 112.173 147.333 112.573C147.378 112.973 147.344 113.378 147.233 113.765C147.011 114.549 146.488 115.213 145.778 115.613C145.068 116.012 144.229 116.114 143.444 115.897ZM138.796 132.333L132.462 130.554C132.075 130.444 131.713 130.259 131.397 130.009C131.081 129.759 130.818 129.45 130.623 129.098C130.427 128.746 130.303 128.359 130.258 127.959C130.212 127.559 130.246 127.154 130.358 126.767C130.58 125.983 131.103 125.319 131.812 124.92C132.522 124.52 133.361 124.418 134.146 124.635L140.481 126.414C140.868 126.524 141.23 126.709 141.546 126.959C141.861 127.209 142.124 127.519 142.32 127.871C142.515 128.222 142.639 128.609 142.685 129.009C142.73 129.409 142.697 129.814 142.585 130.201C142.363 130.985 141.84 131.649 141.13 132.048C140.42 132.448 139.581 132.55 138.796 132.333ZM134.148 148.771L127.814 146.992C127.427 146.882 127.065 146.697 126.75 146.447C126.434 146.197 126.171 145.887 125.976 145.535C125.78 145.183 125.656 144.796 125.61 144.397C125.565 143.997 125.599 143.592 125.71 143.205C125.931 142.421 126.454 141.756 127.164 141.356C127.874 140.957 128.713 140.854 129.499 141.071L135.833 142.85C136.22 142.96 136.582 143.145 136.898 143.395C137.213 143.645 137.477 143.954 137.672 144.306C137.868 144.658 137.992 145.045 138.037 145.445C138.083 145.845 138.049 146.25 137.937 146.637C137.716 147.421 137.193 148.086 136.483 148.485C135.773 148.885 134.934 148.988 134.148 148.771ZM129.593 164.887L123.257 163.11C122.869 163 122.508 162.815 122.192 162.565C121.876 162.315 121.613 162.005 121.418 161.653C121.222 161.301 121.098 160.914 121.053 160.514C121.007 160.114 121.041 159.708 121.153 159.322C121.375 158.538 121.898 157.874 122.607 157.474C123.317 157.075 124.156 156.973 124.941 157.19L131.278 158.969C131.665 159.079 132.027 159.264 132.342 159.514C132.658 159.764 132.921 160.074 133.116 160.425C133.312 160.777 133.436 161.164 133.481 161.564C133.527 161.964 133.493 162.369 133.382 162.756C133.16 163.539 132.637 164.203 131.927 164.603C131.217 165.002 130.378 165.105 129.593 164.887Z" fill="#EEEEEE"/>
<path d="M104.991 59.4804L66.1024 48.4864C65.3446 48.2446 64.7105 47.7178 64.3339 47.0173C63.9573 46.3167 63.8677 45.4972 64.0841 44.7318C64.3004 43.9665 64.8058 43.3151 65.4934 42.9154C66.181 42.5156 66.997 42.3987 67.7692 42.5894L106.658 53.5834C107.416 53.8252 108.05 54.3519 108.426 55.0525C108.803 55.7531 108.893 56.5726 108.676 57.3379C108.46 58.1033 107.955 58.7547 107.267 59.1544C106.579 59.5542 105.763 59.6711 104.991 59.4804ZM102.059 69.8498L63.1726 58.8558C62.4066 58.6208 61.763 58.0953 61.3796 57.3917C60.9962 56.6881 60.9036 55.8623 61.1215 55.0913C61.3393 54.3202 61.8504 53.6651 62.5453 53.2661C63.2402 52.8672 64.0637 52.7562 64.8394 52.9569L103.728 63.9509C104.497 64.1834 105.145 64.7087 105.53 65.4136C105.916 66.1185 106.01 66.9467 105.791 67.7199C105.572 68.4932 105.059 69.1496 104.361 69.5479C103.663 69.9463 102.836 70.0547 102.059 69.8498ZM90.3837 104.69L51.4949 93.7509C51.1067 93.6393 50.7443 93.4523 50.4285 93.2006C50.1127 92.9488 49.8496 92.6372 49.6543 92.2837C49.459 91.9301 49.3354 91.5415 49.2905 91.1401C49.2456 90.7387 49.2803 90.3323 49.3927 89.9444C49.6126 89.1577 50.135 88.4902 50.8458 88.0877C51.5565 87.6853 52.3977 87.5807 53.1854 87.7968L92.0781 98.7376C92.4663 98.8491 92.8287 99.0361 93.1446 99.2879C93.4604 99.5396 93.7235 99.8512 93.9188 100.205C94.1141 100.558 94.2377 100.947 94.2826 101.348C94.3275 101.75 94.2927 102.156 94.1804 102.544C93.9605 103.331 93.4378 103.999 92.7266 104.402C92.0154 104.804 91.1736 104.908 90.3857 104.692L90.3837 104.69ZM87.452 115.065L48.5593 104.122C48.1711 104.011 47.8087 103.824 47.4928 103.572C47.177 103.32 46.9139 103.009 46.7186 102.655C46.5234 102.301 46.3997 101.913 46.3548 101.511C46.31 101.11 46.3447 100.704 46.457 100.316C46.6769 99.5291 47.1993 98.8616 47.9101 98.4591C48.6209 98.0567 49.4621 97.9521 50.2497 98.1682L89.1425 109.109C89.5307 109.221 89.8931 109.408 90.2089 109.659C90.5248 109.911 90.7878 110.223 90.9831 110.576C91.1784 110.93 91.302 111.318 91.3469 111.72C91.3918 112.121 91.3571 112.528 91.2447 112.915C91.0249 113.703 90.5021 114.37 89.7909 114.773C89.0797 115.175 88.238 115.28 87.45 115.063L87.452 115.065ZM84.5203 125.432L45.6275 114.49C45.2395 114.378 44.8772 114.191 44.5615 113.939C44.2458 113.687 43.9828 113.376 43.7876 113.022C43.5924 112.669 43.4687 112.28 43.4237 111.879C43.3787 111.477 43.4132 111.071 43.5253 110.683C43.7452 109.896 44.2679 109.228 44.9791 108.826C45.6903 108.423 46.532 108.319 47.32 108.536L86.2107 119.476C86.599 119.588 86.9615 119.775 87.2773 120.027C87.5932 120.279 87.8563 120.591 88.0515 120.945C88.2468 121.299 88.3704 121.687 88.4152 122.089C88.4601 122.49 88.4254 122.897 88.313 123.285C88.0931 124.072 87.5707 124.739 86.8599 125.142C86.1492 125.544 85.3079 125.649 84.5203 125.432ZM81.5885 135.8L42.6958 124.857C42.3076 124.746 41.9452 124.559 41.6294 124.307C41.3135 124.055 41.0504 123.744 40.8552 123.39C40.6599 123.036 40.5363 122.648 40.4914 122.246C40.4465 121.845 40.4812 121.439 40.5936 121.051C40.8134 120.264 41.3359 119.596 42.0466 119.194C42.7574 118.792 43.5986 118.687 44.3863 118.903L83.279 129.844C83.6674 129.955 84.03 130.142 84.346 130.394C84.662 130.646 84.9252 130.958 85.1205 131.312C85.3158 131.666 85.4394 132.054 85.4841 132.456C85.5288 132.858 85.4939 133.264 85.3813 133.652C85.1614 134.439 84.6389 135.107 83.9282 135.509C83.2174 135.911 82.3762 136.016 81.5885 135.8ZM78.6548 146.173L39.7641 135.233C39.3758 135.121 39.0134 134.934 38.6975 134.682C38.3816 134.43 38.1185 134.118 37.9233 133.764C37.728 133.41 37.6044 133.022 37.5596 132.62C37.5147 132.219 37.5495 131.812 37.6618 131.424C37.8817 130.637 38.4042 129.97 39.1149 129.567C39.8257 129.165 40.6669 129.06 41.4546 129.276L80.3473 140.219C80.7353 140.331 81.0976 140.518 81.4133 140.77C81.729 141.022 81.992 141.333 82.1872 141.687C82.3824 142.04 82.5061 142.429 82.5511 142.83C82.5961 143.232 82.5616 143.638 82.4495 144.026C82.2297 144.813 81.7069 145.481 80.9957 145.883C80.2845 146.286 79.4428 146.39 78.6548 146.173ZM75.7251 156.541L36.8363 145.6C36.4479 145.488 36.0853 145.301 35.7693 145.049C35.4533 144.798 35.1901 144.486 34.9948 144.132C34.7995 143.778 34.6759 143.389 34.6312 142.988C34.5864 142.586 34.6214 142.18 34.734 141.791C34.9539 141.005 35.4764 140.337 36.1871 139.935C36.8979 139.532 37.7391 139.428 38.5268 139.644L77.4195 150.587C77.8075 150.698 78.1698 150.886 78.4855 151.137C78.8012 151.389 79.0642 151.701 79.2594 152.054C79.4547 152.408 79.5783 152.796 79.6233 153.198C79.6683 153.599 79.6338 154.005 79.5217 154.393C79.3019 155.18 78.7791 155.848 78.0679 156.251C77.3567 156.653 76.515 156.757 75.727 156.541H75.7251Z" fill="white"/>
<path d="M22.2634 3.00197H120.908C131.539 3.00197 140.171 11.6317 140.171 22.2631V246.407C140.171 257.038 131.539 265.67 120.908 265.67H22.2634C11.6319 265.67 3.00024 257.038 3.00024 246.407V22.2631C3.00024 11.6317 11.6299 3 22.2634 3V3.00197Z" fill="black" fill-opacity="0.25"/>
<path d="M1.11182 224.574H142.065V239.286C142.065 254.707 129.544 267.228 114.123 267.228H29.0519C13.6308 267.228 1.11182 254.707 1.11182 239.286V224.574Z" fill="white"/>
<path d="M120.908 6.00138C123.044 6.00138 125.159 6.42202 127.132 7.23928C129.105 8.05655 130.897 9.25443 132.408 10.7645C133.918 12.2746 135.116 14.0674 135.933 16.0405C136.75 18.0135 137.171 20.1282 137.171 22.2638V246.407C137.17 250.72 135.457 254.856 132.407 257.906C129.357 260.956 125.221 262.669 120.908 262.67H22.2638C17.9507 262.67 13.8143 260.956 10.7645 257.907C7.71474 254.857 6.00138 250.72 6.00138 246.407V22.2638C6.00138 17.9507 7.71474 13.8143 10.7645 10.7645C13.8143 7.71474 17.9507 6.00138 22.2638 6.00138H120.908ZM120.908 0H22.2638C9.99113 0 0 9.99113 0 22.2638V246.407C0 258.69 9.99113 268.671 22.2638 268.671H120.908C133.189 268.671 143.17 258.68 143.17 246.407V22.2638C143.17 9.98128 133.179 0 120.906 0H120.908Z" fill="#FFB51B"/>
<mask id="mask0_2_7651" style="mask-type:alpha" maskUnits="userSpaceOnUse" x="14" y="68" width="115" height="120">
<path d="M120.157 68.9629H22.6808C18.3282 68.9629 14.7998 72.4913 14.7998 76.8439V179.149C14.7998 183.502 18.3282 187.03 22.6808 187.03H120.157C124.509 187.03 128.038 183.502 128.038 179.149V76.8439C128.038 72.4913 124.509 68.9629 120.157 68.9629Z" fill="#D9D9D9"/>
</mask>
<g mask="url(#mask0_2_7651)">
<path d="M16.114 52.1191H148.678V186.646H16.114V52.1191Z" fill="#F0F7FD"/>
<path d="M172.358 52.786L65.6853 22.6274C64.7944 22.3754 63.8627 22.3014 62.9432 22.4096C62.0238 22.5179 61.1347 22.8062 60.3267 23.2581C59.5187 23.71 58.8077 24.3167 58.2343 25.0435C57.6608 25.7703 57.2362 26.603 56.9846 27.4939L18.0328 165.277C17.5244 167.076 17.7513 169.003 18.6636 170.634C19.5759 172.265 21.0988 173.468 22.8974 173.976L129.571 204.135C131.369 204.643 133.297 204.416 134.928 203.504C136.56 202.592 137.762 201.069 138.271 199.27L177.223 61.4847C177.731 59.6861 177.505 57.7592 176.592 56.1279C175.68 54.4966 174.157 53.2945 172.358 52.786Z" fill="#FFCC2F"/>
<path d="M128.81 203.92L23.6582 174.193C22.6679 173.914 21.7423 173.442 20.9344 172.804C20.1264 172.167 19.4519 171.377 18.9493 170.479C18.4467 169.581 18.1259 168.593 18.0052 167.571C17.8846 166.549 17.9664 165.513 18.2459 164.523L41.9402 80.7067C93.1292 62.9272 117.978 112.477 162.181 114.699L138.484 198.516C137.918 200.516 136.581 202.209 134.766 203.224C132.952 204.238 130.809 204.491 128.808 203.926L128.81 203.92Z" fill="#FFFDB7"/>
<path d="M159.073 66.1589L122.949 56.0161C121.452 55.6014 119.853 55.7962 118.499 56.5579C117.146 57.3196 116.15 58.5862 115.728 60.0807L85.7052 165.605C85.4924 166.343 85.4274 167.115 85.5139 167.877C85.6005 168.639 85.8368 169.377 86.2094 170.048C86.582 170.719 87.0835 171.31 87.685 171.786C88.2866 172.262 88.9763 172.615 89.7147 172.824L125.839 182.969C127.336 183.384 128.936 183.189 130.289 182.427C131.642 181.664 132.639 180.397 133.06 178.902L163.083 73.3799C163.295 72.6427 163.36 71.8709 163.273 71.1086C163.187 70.3464 162.95 69.6088 162.578 68.9382C162.205 68.2676 161.704 67.6772 161.102 67.2009C160.501 66.7246 159.811 66.3718 159.073 66.1628V66.1589Z" fill="white"/>
<path d="M125.681 183.553L89.5549 173.406C86.1365 172.449 84.1485 168.869 85.1257 165.435L115.148 59.916C116.126 56.4818 119.706 54.4662 123.124 55.4238L159.25 65.5706C162.669 66.5301 164.657 70.1081 163.68 73.5442L133.657 179.061C132.68 182.497 129.1 184.513 125.681 183.553ZM122.787 56.6059C121.447 56.2365 120.016 56.4118 118.805 57.0935C117.594 57.7752 116.702 58.908 116.323 60.245L86.3 165.764C86.1105 166.424 86.0531 167.115 86.1311 167.797C86.209 168.479 86.4208 169.139 86.7543 169.74C87.0877 170.34 87.5363 170.868 88.0743 171.295C88.6124 171.722 89.2293 172.038 89.8898 172.226L126.018 182.373C127.358 182.742 128.79 182.567 130.001 181.885C131.212 181.202 132.104 180.069 132.483 178.732L162.505 73.2132C162.695 72.553 162.752 71.862 162.674 71.1796C162.596 70.4973 162.384 69.837 162.05 69.2367C161.717 68.6364 161.268 68.1078 160.73 67.6812C160.191 67.2546 159.574 66.9384 158.914 66.7507L122.787 56.6059Z" fill="#FFB51B"/>
<path d="M153.604 90.2384L114.839 79.2779C114.37 79.1452 113.973 78.8315 113.735 78.4058C113.497 77.9802 113.438 77.4774 113.57 77.0082C113.703 76.5389 114.017 76.1416 114.443 75.9037C114.868 75.6657 115.371 75.6066 115.84 75.7393L154.605 86.6998C154.837 86.7656 155.054 86.8764 155.244 87.026C155.433 87.1757 155.592 87.3612 155.709 87.5719C155.827 87.7827 155.902 88.0146 155.931 88.2544C155.959 88.4942 155.939 88.7372 155.874 88.9696C155.808 89.2019 155.697 89.419 155.548 89.6085C155.398 89.7981 155.212 89.9562 155.002 90.0741C154.791 90.1919 154.559 90.267 154.319 90.2952C154.079 90.3234 153.836 90.3041 153.604 90.2384ZM148.708 107.553L109.943 96.6161C109.786 96.5695 109.654 96.4625 109.575 96.3185C109.496 96.1745 109.478 96.0052 109.524 95.8477C109.567 95.6901 109.672 95.5561 109.814 95.4749C109.956 95.3937 110.124 95.3719 110.282 95.4143L149.049 106.353C149.372 106.446 149.561 106.79 149.468 107.121C149.424 107.279 149.32 107.413 149.177 107.494C149.035 107.576 148.866 107.597 148.708 107.555V107.553ZM144.232 123.388L105.467 112.451C105.389 112.428 105.316 112.39 105.253 112.339C105.189 112.288 105.137 112.225 105.098 112.154C105.059 112.082 105.034 112.004 105.026 111.923C105.017 111.842 105.024 111.761 105.047 111.683C105.091 111.525 105.195 111.391 105.337 111.31C105.479 111.229 105.648 111.207 105.806 111.249L144.572 122.188C144.895 122.281 145.085 122.625 144.992 122.956C144.948 123.114 144.844 123.249 144.701 123.33C144.559 123.411 144.39 123.431 144.232 123.388ZM139.751 139.229L100.987 128.292C100.908 128.269 100.836 128.231 100.772 128.18C100.709 128.129 100.656 128.066 100.617 127.995C100.578 127.923 100.554 127.845 100.545 127.764C100.537 127.683 100.544 127.601 100.567 127.523C100.611 127.366 100.715 127.232 100.857 127.151C100.999 127.069 101.167 127.048 101.325 127.09L140.092 138.029C140.415 138.121 140.604 138.466 140.512 138.797C140.468 138.955 140.363 139.09 140.221 139.171C140.078 139.252 139.909 139.272 139.751 139.229ZM135.277 155.064L96.5121 144.125C96.3552 144.078 96.2231 143.971 96.1445 143.828C96.0659 143.684 96.0472 143.516 96.0924 143.358C96.1362 143.201 96.2405 143.067 96.3825 142.985C96.5246 142.904 96.6929 142.883 96.851 142.925L135.616 153.864C135.694 153.887 135.766 153.925 135.83 153.976C135.893 154.027 135.946 154.089 135.985 154.161C136.024 154.232 136.048 154.311 136.057 154.391C136.066 154.472 136.058 154.554 136.035 154.632C135.992 154.79 135.888 154.924 135.746 155.006C135.603 155.087 135.435 155.106 135.277 155.064ZM130.8 170.898L92.0357 159.96C91.8786 159.914 91.746 159.808 91.667 159.664C91.588 159.521 91.569 159.352 91.614 159.195C91.6578 159.037 91.7624 158.903 91.9049 158.822C92.0474 158.74 92.2163 158.719 92.3746 158.762L131.139 169.699C131.217 169.721 131.29 169.759 131.353 169.81C131.417 169.861 131.469 169.924 131.508 169.996C131.547 170.067 131.572 170.145 131.581 170.226C131.589 170.307 131.582 170.389 131.559 170.467C131.515 170.625 131.411 170.759 131.269 170.84C131.127 170.921 130.958 170.941 130.8 170.898Z" fill="#FFB51B"/>
<path d="M145.762 99.887L116.465 91.6021C115.699 91.3671 115.055 90.8416 114.672 90.138C114.288 89.4344 114.196 88.6086 114.414 87.8376C114.631 87.0665 115.143 86.4114 115.837 86.0124C116.532 85.6135 117.356 85.5025 118.132 85.7032L147.429 93.9881C148.187 94.2298 148.821 94.7566 149.198 95.4572C149.574 96.1577 149.664 96.9772 149.447 97.7426C149.231 98.508 148.726 99.1593 148.038 99.5591C147.351 99.9588 146.534 100.078 145.762 99.887ZM129.784 112.323L109.005 106.45C108.246 106.21 107.609 105.683 107.231 104.981C106.853 104.28 106.763 103.459 106.98 102.692C107.197 101.925 107.704 101.273 108.394 100.874C109.083 100.475 109.901 100.36 110.674 100.553L131.45 106.424C131.838 106.534 132.2 106.718 132.516 106.968C132.832 107.217 133.095 107.526 133.292 107.877C133.488 108.229 133.614 108.615 133.661 109.015C133.708 109.415 133.676 109.82 133.566 110.207C133.457 110.594 133.272 110.956 133.023 111.272C132.774 111.588 132.465 111.852 132.113 112.049C131.762 112.245 131.375 112.371 130.976 112.418C130.576 112.465 130.171 112.433 129.784 112.323ZM125.138 128.761L104.359 122.886C103.6 122.645 102.964 122.119 102.585 121.417C102.207 120.716 102.117 119.895 102.334 119.128C102.551 118.361 103.058 117.709 103.748 117.31C104.437 116.911 105.255 116.795 106.028 116.989L126.805 122.862C127.587 123.083 128.249 123.606 128.645 124.315C129.042 125.024 129.141 125.862 128.92 126.644C128.699 127.426 128.176 128.088 127.467 128.485C126.757 128.881 125.92 128.982 125.138 128.761ZM120.49 145.197L99.7136 139.322C98.9476 139.087 98.304 138.561 97.9206 137.857C97.5373 137.154 97.4446 136.328 97.6625 135.557C97.8804 134.786 98.3915 134.131 99.0864 133.732C99.7813 133.333 100.605 133.222 101.38 133.423L122.159 139.298C122.941 139.519 123.603 140.042 123.999 140.751C124.396 141.461 124.494 142.299 124.273 143.081C124.052 143.863 123.529 144.525 122.819 144.921C122.11 145.318 121.272 145.418 120.49 145.197ZM115.935 161.313L95.1565 155.442C94.3873 155.21 93.7401 154.684 93.3543 153.979C92.9685 153.274 92.8749 152.446 93.0937 151.673C93.3124 150.9 93.826 150.243 94.5239 149.845C95.2218 149.447 96.0482 149.338 96.8253 149.543L117.602 155.417C118.359 155.658 118.993 156.185 119.37 156.886C119.747 157.586 119.836 158.406 119.62 159.171C119.403 159.936 118.898 160.588 118.211 160.988C117.523 161.387 116.707 161.504 115.935 161.313ZM134.15 148.767L127.815 146.988C127.428 146.878 127.066 146.693 126.751 146.443C126.435 146.193 126.172 145.883 125.976 145.531C125.781 145.18 125.656 144.793 125.611 144.393C125.565 143.993 125.598 143.588 125.709 143.201C125.931 142.417 126.453 141.752 127.163 141.353C127.873 140.953 128.713 140.85 129.498 141.067L135.834 142.846C136.221 142.956 136.583 143.141 136.899 143.391C137.214 143.641 137.477 143.951 137.673 144.303C137.868 144.655 137.992 145.042 138.038 145.441C138.083 145.841 138.05 146.246 137.938 146.633C137.717 147.417 137.194 148.082 136.484 148.482C135.774 148.881 134.935 148.984 134.15 148.767ZM129.594 164.884L123.258 163.106C122.871 162.997 122.509 162.811 122.193 162.561C121.878 162.311 121.614 162.001 121.419 161.649C121.223 161.297 121.099 160.91 121.054 160.51C121.008 160.11 121.042 159.705 121.154 159.318C121.376 158.534 121.899 157.87 122.609 157.47C123.319 157.071 124.158 156.969 124.943 157.186L131.279 158.965C131.666 159.075 132.028 159.26 132.343 159.51C132.659 159.76 132.922 160.07 133.117 160.421C133.313 160.773 133.437 161.16 133.483 161.56C133.528 161.96 133.494 162.365 133.383 162.752C133.161 163.535 132.638 164.2 131.928 164.599C131.219 164.998 130.379 165.101 129.594 164.884Z" fill="#EEEEEE"/>
<path d="M102.06 69.8461L63.1734 58.8521C62.4073 58.6171 61.7637 58.0916 61.3804 57.388C60.997 56.6844 60.9044 55.8586 61.1222 55.0876C61.3401 54.3165 61.8512 53.6614 62.5461 53.2624C63.241 52.8635 64.0645 52.7525 64.8402 52.9532L103.729 63.9472C104.498 64.1797 105.145 64.705 105.531 65.4099C105.917 66.1148 106.01 66.943 105.792 67.7162C105.573 68.4895 105.059 69.1459 104.362 69.5442C103.664 69.9426 102.837 70.051 102.06 69.8461ZM90.3845 104.686L51.4957 93.7472C51.1075 93.6357 50.7451 93.4487 50.4293 93.1969C50.1134 92.9451 49.8503 92.6335 49.6551 92.28C49.4598 91.9264 49.3362 91.5378 49.2913 91.1364C49.2464 90.735 49.2811 90.3286 49.3935 89.9407C49.6133 89.154 50.1358 88.4865 50.8465 88.084C51.5573 87.6816 52.3985 87.577 53.1862 87.7931L92.0789 98.7339C92.4671 98.8454 92.8295 99.0324 93.1454 99.2842C93.4612 99.536 93.7243 99.8475 93.9196 100.201C94.1148 100.555 94.2384 100.943 94.2833 101.345C94.3282 101.746 94.2935 102.152 94.1812 102.54C93.9613 103.327 93.4385 103.995 92.7273 104.398C92.0161 104.8 91.1744 104.905 90.3865 104.688L90.3845 104.686ZM87.4528 115.061L48.56 104.119C48.1718 104.007 47.8094 103.82 47.4936 103.568C47.1777 103.317 46.9147 103.005 46.7194 102.651C46.5241 102.298 46.4005 101.909 46.3556 101.508C46.3107 101.106 46.3454 100.7 46.4578 100.312C46.6777 99.525 47.2004 98.8571 47.9116 98.4546C48.6228 98.0521 49.4645 97.9478 50.2525 98.1645L89.1432 109.105C89.5315 109.217 89.894 109.404 90.2098 109.656C90.5257 109.908 90.7888 110.22 90.984 110.574C91.1793 110.927 91.3029 111.316 91.3477 111.718C91.3926 112.119 91.3579 112.526 91.2455 112.914C91.0256 113.7 90.5032 114.368 89.7924 114.77C89.0816 115.173 88.2404 115.277 87.4528 115.061ZM84.521 125.429L45.6283 114.486C45.2401 114.375 44.8777 114.188 44.5619 113.936C44.246 113.684 43.9829 113.372 43.7877 113.019C43.5924 112.665 43.4688 112.277 43.4239 111.875C43.379 111.474 43.4137 111.067 43.5261 110.68C43.7459 109.892 44.2687 109.225 44.9799 108.822C45.6911 108.42 46.5328 108.315 47.3208 108.532L86.2115 119.473C86.5998 119.584 86.9622 119.772 87.2781 120.024C87.594 120.276 87.857 120.587 88.0523 120.941C88.2475 121.295 88.3711 121.684 88.416 122.085C88.4609 122.487 88.4261 122.893 88.3138 123.281C88.0939 124.068 87.5714 124.735 86.8607 125.138C86.1499 125.54 85.3087 125.645 84.521 125.429ZM81.5893 135.796L42.6966 124.855C42.3083 124.744 41.9459 124.556 41.63 124.305C41.3141 124.053 41.051 123.741 40.8558 123.387C40.6605 123.033 40.5369 122.645 40.4921 122.243C40.4472 121.842 40.482 121.435 40.5943 121.047C40.8142 120.26 41.3369 119.592 42.0482 119.189C42.7594 118.787 43.6011 118.683 44.389 118.899L83.2798 129.84C83.6681 129.952 84.0305 130.139 84.3464 130.391C84.6622 130.643 84.9253 130.955 85.1206 131.309C85.3158 131.662 85.4394 132.051 85.4843 132.453C85.5291 132.854 85.4944 133.261 85.382 133.649C85.1621 134.435 84.6397 135.103 83.9289 135.505C83.2182 135.908 82.377 136.012 81.5893 135.796ZM78.6556 146.17L39.7668 135.229C39.3782 135.118 39.0154 134.931 38.6992 134.679C38.383 134.427 38.1196 134.115 37.9241 133.761C37.7286 133.408 37.6049 133.019 37.56 132.617C37.5151 132.215 37.55 131.809 37.6626 131.42C37.8825 130.634 38.4049 129.966 39.1157 129.564C39.8264 129.161 40.6676 129.057 41.4553 129.273L80.348 140.216C80.7361 140.327 81.0983 140.514 81.414 140.766C81.7298 141.018 81.9927 141.33 82.188 141.683C82.3832 142.037 82.5069 142.425 82.5519 142.826C82.5969 143.228 82.5624 143.634 82.4503 144.022C82.2304 144.809 81.708 145.476 80.9972 145.879C80.2864 146.281 79.4433 146.386 78.6556 146.17Z" fill="white"/>
</g>
<path d="M15.9766 82.3606C15.8172 82.3611 15.6592 82.3301 15.5118 82.2692C15.3645 82.2084 15.2306 82.119 15.1179 82.0062C15.0053 81.8933 14.9161 81.7593 14.8555 81.6118C14.7949 81.4644 14.7641 81.3064 14.7649 81.1469V73.8412C14.767 72.5477 15.2819 71.3078 16.1967 70.3933C17.1116 69.4789 18.3517 68.9645 19.6452 68.9629H26.9351C27.6149 68.9629 28.1468 69.5087 28.1468 70.1746C28.1453 70.4955 28.0171 70.8028 27.7902 71.0297C27.5633 71.2566 27.256 71.3848 26.9351 71.3863H19.6452C18.9979 71.3868 18.3773 71.6442 17.9196 72.1019C17.462 72.5596 17.2046 73.1802 17.2041 73.8274V81.1331C17.2046 81.2924 17.1736 81.4502 17.1129 81.5974C17.0522 81.7447 16.963 81.8785 16.8503 81.9911C16.7377 82.1037 16.6039 82.193 16.4567 82.2537C16.3094 82.3144 16.1516 82.3454 15.9924 82.3448L15.9766 82.3606ZM127.26 173.632C127.94 173.632 128.472 174.178 128.472 174.844V182.15C128.471 183.443 127.957 184.684 127.042 185.599C126.127 186.514 124.887 187.029 123.594 187.03H116.304C116.144 187.031 115.986 187 115.839 186.939C115.691 186.878 115.557 186.789 115.444 186.676C115.332 186.563 115.242 186.429 115.181 186.281C115.121 186.134 115.089 185.976 115.09 185.816C115.09 185.15 115.638 184.605 116.302 184.605H123.594C124.241 184.604 124.861 184.346 125.318 183.888C125.775 183.431 126.032 182.811 126.033 182.164V174.86C126.033 174.178 126.58 173.646 127.244 173.646L127.26 173.632ZM127.26 82.3606C127.42 82.3611 127.578 82.3301 127.725 82.2692C127.872 82.2084 128.006 82.119 128.119 82.0062C128.232 81.8933 128.321 81.7593 128.381 81.6118C128.442 81.4644 128.473 81.3064 128.472 81.1469V73.8412C128.47 72.5479 127.956 71.308 127.041 70.3935C126.127 69.4789 124.887 68.9645 123.594 68.9629H116.304C116.144 68.9621 115.986 68.9929 115.839 69.0535C115.691 69.1141 115.557 69.2033 115.444 69.3159C115.332 69.4286 115.242 69.5625 115.181 69.7098C115.121 69.8572 115.089 70.0152 115.09 70.1746C115.09 70.8405 115.638 71.3863 116.302 71.3863H123.594C124.241 71.3874 124.861 71.6449 125.318 72.1026C125.775 72.5602 126.032 73.1805 126.033 73.8274V81.1331C126.033 81.8129 126.58 82.3448 127.244 82.3448L127.26 82.3606ZM15.9766 173.632C15.8173 173.632 15.6595 173.663 15.5123 173.724C15.3651 173.784 15.2313 173.874 15.1187 173.986C15.006 174.099 14.9168 174.233 14.8561 174.38C14.7954 174.527 14.7644 174.685 14.7649 174.844V182.15C14.7665 183.444 15.2812 184.684 16.196 185.599C17.1109 186.514 18.3514 187.029 19.6452 187.03H26.9351C27.0945 187.03 27.2523 186.999 27.3996 186.938C27.5469 186.877 27.6806 186.788 27.7932 186.675C27.9058 186.562 27.995 186.428 28.0557 186.281C28.1164 186.134 28.1474 185.976 28.1468 185.816C28.1453 185.496 28.0171 185.188 27.7902 184.961C27.5633 184.734 27.256 184.606 26.9351 184.605H19.6452C18.9979 184.604 18.3773 184.347 17.9196 183.889C17.462 183.431 17.2046 182.811 17.2041 182.164V174.86C17.2049 174.7 17.1741 174.542 17.1135 174.395C17.0529 174.247 16.9637 174.113 16.851 174.001C16.7384 173.888 16.6045 173.798 16.4572 173.738C16.3098 173.677 16.1518 173.646 15.9924 173.646L15.9766 173.632Z" fill="white"/>
<path opacity="0.3" d="M77.6141 241.945C77.6141 246.436 73.9737 250.076 69.4831 250.076C64.9925 250.076 61.3521 246.436 61.3521 241.945C61.3521 237.454 64.9925 233.814 69.4831 233.814C73.9737 233.814 77.6141 237.454 77.6141 241.945Z" fill="#FFFDB7" stroke="#FFB51B" stroke-width="0.3"/>
<g opacity="0.3">
<path d="M103.388 249.347C103.216 249.348 103.05 249.288 102.917 249.179L100.05 246.677H93.8914C93.3493 246.677 92.8297 246.461 92.4466 246.078C92.0635 245.694 91.8483 245.174 91.8483 244.632V244.132C91.8483 243.846 92.0768 243.623 92.3566 243.623C92.6344 243.623 92.8629 243.852 92.8629 244.132V244.632C92.8629 245.198 93.322 245.655 93.8875 245.655H100.137C100.322 245.655 100.502 245.724 100.638 245.842L103.128 248.015V238.883C103.127 238.612 103.019 238.353 102.828 238.161C102.636 237.97 102.376 237.862 102.105 237.862H101.443C101.309 237.862 101.179 237.809 101.084 237.713C100.989 237.618 100.935 237.489 100.935 237.354C100.935 237.219 100.989 237.09 101.084 236.995C101.179 236.899 101.309 236.846 101.443 236.846H102.105C103.234 236.846 104.15 237.762 104.15 238.889V248.579C104.147 248.781 104.066 248.975 103.922 249.118C103.779 249.262 103.585 249.344 103.382 249.347H103.388Z" fill="#FFB51B"/>
<path d="M88.012 245.854C87.9117 245.855 87.8123 245.835 87.7196 245.797C87.6269 245.759 87.5426 245.703 87.4717 245.632C87.4008 245.561 87.3446 245.477 87.3065 245.384C87.2684 245.291 87.249 245.192 87.2495 245.092V235.029C87.2495 233.902 88.1676 232.986 89.2946 232.986H98.543C99.6719 232.986 100.588 233.902 100.588 235.029V241.145C100.587 241.687 100.371 242.207 99.988 242.59C99.6046 242.973 99.0851 243.189 98.543 243.19H91.3634L88.5144 245.675C88.3732 245.786 88.1997 245.849 88.0199 245.854H88.012ZM89.2946 234.009C89.0238 234.009 88.764 234.116 88.5723 234.308C88.3806 234.499 88.2726 234.759 88.2721 235.029V244.528L90.7625 242.353C90.9014 242.231 91.0803 242.165 91.2649 242.168H98.5371C98.8085 242.168 99.0687 242.06 99.2608 241.868C99.4529 241.677 99.5611 241.417 99.5616 241.145V235.029C99.5614 234.895 99.5346 234.762 99.483 234.638C99.4314 234.514 99.3558 234.402 99.2607 234.307C99.1656 234.212 99.0527 234.137 98.9285 234.086C98.8044 234.035 98.6714 234.009 98.5371 234.009H89.2887H89.2946Z" fill="#FFB51B"/>
<path d="M97.0832 236.548H90.8415C90.7748 236.548 90.7088 236.535 90.6472 236.509C90.5857 236.484 90.5298 236.446 90.4827 236.399C90.4357 236.352 90.3984 236.296 90.3731 236.234C90.3478 236.172 90.3348 236.106 90.3351 236.04C90.3361 235.905 90.3897 235.777 90.4844 235.682C90.5791 235.587 90.7073 235.533 90.8415 235.531H97.0812C97.2161 235.531 97.3454 235.585 97.4407 235.68C97.536 235.775 97.5896 235.905 97.5896 236.04C97.5896 236.174 97.536 236.304 97.4407 236.399C97.3454 236.494 97.218 236.548 97.0832 236.548ZM97.0832 238.469H90.8415C90.7066 238.469 90.5773 238.415 90.482 238.32C90.3867 238.225 90.3331 238.095 90.3331 237.961C90.3331 237.826 90.3867 237.696 90.482 237.601C90.5773 237.506 90.7066 237.452 90.8415 237.452H97.0812C97.365 237.452 97.5876 237.681 97.5876 237.961C97.5866 238.095 97.533 238.223 97.4383 238.318C97.3436 238.413 97.2174 238.467 97.0832 238.469ZM94.782 240.388H90.8493C90.715 240.388 90.5863 240.335 90.4913 240.24C90.3963 240.145 90.343 240.016 90.343 239.882C90.343 239.602 90.5715 239.373 90.8493 239.373H94.7839C95.0696 239.373 95.2922 239.602 95.2922 239.882C95.2912 240.016 95.2373 240.144 95.1421 240.239C95.0469 240.334 94.9163 240.387 94.782 240.388Z" fill="#FFB51B"/>
</g>
<path d="M30.0325 232.988H14.9739C14.6606 232.988 14.3504 233.05 14.0611 233.17C13.7717 233.29 13.5088 233.466 13.2874 233.687C13.066 233.909 12.8904 234.172 12.7708 234.461C12.6511 234.751 12.5896 235.061 12.5898 235.374V246.965C12.5898 248.281 13.6577 249.351 14.9739 249.351H30.0325C31.3506 249.351 32.4165 248.281 32.4165 246.965V235.374C32.4167 235.061 32.3553 234.751 32.2356 234.461C32.1159 234.172 31.9403 233.909 31.7189 233.687C31.4975 233.466 31.2346 233.29 30.9452 233.17C30.6559 233.05 30.3457 232.988 30.0325 232.988Z" fill="#FFB51B"/>
<path d="M17.6558 249.329H14.6078C14.0671 249.329 13.5488 249.114 13.1664 248.731C12.7841 248.349 12.5691 247.831 12.5686 247.29V244.23C12.5686 243.946 12.7972 243.724 13.075 243.724C13.3528 243.724 13.5813 243.952 13.5813 244.23V247.29C13.5813 247.851 14.0404 248.311 14.6019 248.311H17.6499C17.9336 248.311 18.1562 248.539 18.1562 248.817C18.1557 248.951 18.1022 249.08 18.0074 249.174C17.9125 249.269 17.784 249.323 17.6499 249.323L17.6558 249.329ZM30.4013 249.329H27.3474C27.2809 249.329 27.2149 249.317 27.1534 249.291C27.0918 249.266 27.0359 249.229 26.9888 249.181C26.9417 249.134 26.9045 249.078 26.8791 249.017C26.8538 248.955 26.8408 248.889 26.8411 248.823C26.8411 248.545 27.0696 248.316 27.3474 248.316H30.4013C30.672 248.316 30.9316 248.209 31.123 248.018C31.3144 247.826 31.4219 247.567 31.4219 247.296V244.242C31.4219 243.958 31.6505 243.736 31.9283 243.736C32.2061 243.736 32.4346 243.964 32.4346 244.242V247.296C32.4346 248.421 31.5204 249.335 30.3954 249.335L30.4013 249.329ZM31.9302 238.637C31.8633 238.637 31.797 238.624 31.7351 238.599C31.6732 238.574 31.6169 238.536 31.5696 238.489C31.5223 238.442 31.4849 238.385 31.4595 238.323C31.4342 238.262 31.4214 238.195 31.4219 238.128V235.07C31.4219 234.8 31.3144 234.54 31.123 234.349C30.9316 234.157 30.672 234.05 30.4013 234.05H27.3474C27.2809 234.05 27.2149 234.037 27.1534 234.012C27.0918 233.987 27.0359 233.949 26.9888 233.902C26.9417 233.855 26.9045 233.799 26.8791 233.738C26.8538 233.676 26.8408 233.61 26.8411 233.544C26.8411 233.264 27.0696 233.035 27.3474 233.035H30.4013C31.5263 233.035 32.4425 233.951 32.4425 235.076V238.136C32.4428 238.203 32.4298 238.269 32.4043 238.331C32.3788 238.392 32.3414 238.448 32.2941 238.496C32.2468 238.543 32.1907 238.58 32.1289 238.605C32.0671 238.63 32.0009 238.643 31.9342 238.643L31.9302 238.637ZM13.0809 238.631C13.0141 238.631 12.948 238.618 12.8863 238.593C12.8246 238.567 12.7686 238.53 12.7215 238.482C12.6744 238.435 12.6372 238.379 12.612 238.317C12.5867 238.255 12.574 238.189 12.5745 238.122V235.07C12.5745 233.945 13.4887 233.029 14.6137 233.029H17.6617C17.9454 233.029 18.1681 233.258 18.1681 233.536C18.1675 233.67 18.1141 233.799 18.0193 233.894C17.9245 233.989 17.796 234.043 17.6617 234.044H14.6137C14.3437 234.044 14.0849 234.152 13.894 234.343C13.7031 234.534 13.5956 234.793 13.5951 235.063V238.116C13.5954 238.183 13.5824 238.249 13.5569 238.311C13.5314 238.373 13.494 238.429 13.4467 238.476C13.3994 238.523 13.3432 238.56 13.2815 238.585C13.2197 238.611 13.1535 238.623 13.0868 238.623L13.0809 238.631Z" fill="#FFB51B"/>
<path d="M15.7051 247.608C15.6385 247.609 15.5726 247.596 15.511 247.57C15.4495 247.545 15.3935 247.508 15.3465 247.461C15.2994 247.414 15.2621 247.358 15.2367 247.296C15.2114 247.235 15.1985 247.169 15.1987 247.102V236.532C15.1987 236.246 15.4273 236.023 15.7051 236.023C15.8392 236.025 15.9674 236.079 16.0621 236.174C16.1568 236.269 16.2104 236.398 16.2114 236.532V247.102C16.2117 247.169 16.1988 247.235 16.1734 247.296C16.1481 247.358 16.1108 247.414 16.0637 247.461C16.0166 247.508 15.9607 247.545 15.8992 247.57C15.8376 247.596 15.7717 247.609 15.7051 247.608ZM18.2585 247.608C18.1918 247.609 18.1256 247.596 18.0638 247.571C18.0021 247.546 17.9459 247.509 17.8986 247.461C17.8513 247.414 17.8139 247.358 17.7884 247.297C17.7629 247.235 17.7499 247.169 17.7502 247.102V236.532C17.7502 236.397 17.8037 236.268 17.8988 236.173C17.9939 236.078 18.123 236.024 18.2575 236.024C18.3921 236.024 18.5211 236.078 18.6163 236.173C18.7114 236.268 18.7649 236.397 18.7649 236.532V247.102C18.7651 247.169 18.7522 247.235 18.7267 247.297C18.7012 247.358 18.6637 247.414 18.6165 247.461C18.5692 247.509 18.513 247.546 18.4512 247.571C18.3895 247.596 18.3253 247.609 18.2585 247.608ZM20.81 247.608C20.7433 247.609 20.6771 247.596 20.6155 247.57C20.5538 247.545 20.4978 247.507 20.4507 247.46C20.4036 247.413 20.3663 247.357 20.3411 247.295C20.3159 247.233 20.3031 247.167 20.3036 247.1V241.136C20.3036 240.853 20.5322 240.63 20.81 240.63C21.0878 240.63 21.3164 240.858 21.3164 241.136V247.1C21.3166 247.167 21.3037 247.233 21.2784 247.295C21.253 247.356 21.2158 247.412 21.1687 247.46C21.1217 247.507 21.0658 247.544 21.0042 247.57C20.9427 247.595 20.8767 247.608 20.81 247.608ZM20.81 239.201C20.7434 239.202 20.6775 239.189 20.6159 239.163C20.5544 239.138 20.4984 239.101 20.4514 239.054C20.4043 239.007 20.367 238.951 20.3417 238.889C20.3163 238.828 20.3034 238.762 20.3036 238.695V236.538C20.3036 236.254 20.5322 236.031 20.81 236.031C21.0878 236.031 21.3164 236.26 21.3164 236.538V238.695C21.3166 238.762 21.3037 238.828 21.2783 238.889C21.253 238.951 21.2157 239.007 21.1686 239.054C21.1216 239.101 21.0656 239.138 21.0041 239.163C20.9425 239.189 20.8766 239.202 20.81 239.201ZM23.3634 247.608C23.2969 247.609 23.2309 247.596 23.1694 247.57C23.1078 247.545 23.0519 247.508 23.0048 247.461C22.9577 247.414 22.9205 247.358 22.8951 247.296C22.8697 247.235 22.8568 247.169 22.8571 247.102V236.532C22.8571 236.246 23.0856 236.023 23.3634 236.023C23.4976 236.025 23.6258 236.079 23.7205 236.174C23.8152 236.269 23.8688 236.398 23.8698 236.532V247.102C23.8701 247.169 23.8571 247.235 23.8318 247.296C23.8064 247.358 23.7691 247.414 23.7221 247.461C23.675 247.508 23.6191 247.545 23.5575 247.57C23.496 247.596 23.43 247.609 23.3634 247.608ZM25.9228 247.608C25.8562 247.609 25.7903 247.596 25.7287 247.57C25.6672 247.545 25.6112 247.508 25.5642 247.461C25.5171 247.414 25.4798 247.358 25.4545 247.296C25.4291 247.235 25.4162 247.169 25.4164 247.102V244.332C25.4164 244.048 25.645 243.826 25.9228 243.826C26.2006 243.826 26.4292 244.054 26.4292 244.332V247.102C26.4294 247.169 26.4165 247.235 26.3911 247.296C26.3658 247.358 26.3285 247.414 26.2814 247.461C26.2344 247.508 26.1784 247.545 26.1169 247.57C26.0553 247.596 25.9894 247.609 25.9228 247.608ZM25.9228 242.255C25.8562 242.256 25.7903 242.243 25.7287 242.217C25.6672 242.192 25.6112 242.155 25.5642 242.108C25.5171 242.061 25.4798 242.005 25.4545 241.943C25.4291 241.882 25.4162 241.816 25.4164 241.749V236.538C25.4164 236.254 25.645 236.031 25.9228 236.031C26.2006 236.031 26.4292 236.26 26.4292 236.538V241.749C26.4294 241.816 26.4165 241.882 26.3911 241.943C26.3658 242.005 26.3285 242.061 26.2814 242.108C26.2344 242.155 26.1784 242.192 26.1169 242.217C26.0553 242.243 25.9894 242.256 25.9228 242.255ZM28.4762 247.608C28.4095 247.609 28.3433 247.596 28.2816 247.571C28.2198 247.546 28.1636 247.509 28.1163 247.461C28.0691 247.414 28.0316 247.358 28.0061 247.297C27.9806 247.235 27.9677 247.169 27.9679 247.102V236.532C27.9679 236.246 28.1965 236.023 28.4762 236.023C28.6104 236.025 28.7386 236.079 28.8333 236.174C28.928 236.269 28.9816 236.398 28.9826 236.532V247.102C28.9829 247.169 28.9699 247.235 28.9444 247.297C28.9189 247.358 28.8815 247.414 28.8342 247.461C28.7869 247.509 28.7307 247.546 28.669 247.571C28.6072 247.596 28.543 247.609 28.4762 247.608Z" fill="white"/>
<path d="M69.1192 148.3L39.3687 139.887C37.2746 139.295 35.0968 140.512 34.5046 142.606L27.9875 165.653C27.3953 167.747 28.6129 169.925 30.707 170.517L60.4575 178.93C62.5517 179.522 64.7294 178.304 65.3216 176.21L71.8388 153.164C72.431 151.07 71.2134 148.892 69.1192 148.3Z" fill="white"/>
<path d="M37.9056 170.768L32.7928 169.32C31.8852 169.063 31.117 168.456 30.6567 167.632C30.1964 166.809 30.0817 165.836 30.3378 164.928L31.7879 159.794C31.8191 159.682 31.8721 159.577 31.9439 159.486C32.0157 159.394 32.105 159.318 32.2064 159.261C32.3079 159.204 32.4196 159.168 32.5351 159.155C32.6507 159.141 32.7677 159.151 32.8794 159.183C33.1049 159.247 33.2957 159.398 33.4101 159.603C33.5246 159.807 33.5534 160.049 33.4902 160.275L32.0382 165.409C31.9101 165.863 31.9674 166.35 32.1975 166.761C32.4276 167.173 32.8118 167.477 33.2656 167.606L38.3804 169.052C38.4924 169.083 38.5972 169.136 38.6886 169.208C38.7801 169.28 38.8564 169.369 38.9132 169.471C38.97 169.572 39.0061 169.684 39.0195 169.799C39.0329 169.915 39.0232 170.032 38.9912 170.144C38.9269 170.369 38.776 170.56 38.5715 170.674C38.3669 170.789 38.1254 170.818 37.8996 170.754L37.9075 170.766L37.9056 170.768ZM59.2867 176.813L54.1621 175.363C54.0503 175.332 53.9457 175.279 53.8544 175.207C53.7631 175.135 53.6869 175.046 53.6301 174.945C53.5734 174.844 53.5372 174.732 53.5236 174.617C53.5101 174.502 53.5195 174.385 53.5513 174.273C53.6156 174.048 53.7665 173.857 53.971 173.743C54.1756 173.628 54.4171 173.599 54.6428 173.663L59.7674 175.111C60.2215 175.239 60.7079 175.181 61.1197 174.951C61.5316 174.721 61.8353 174.337 61.9643 173.883L63.4124 168.761C63.4435 168.649 63.4965 168.544 63.5684 168.452C63.6402 168.361 63.7294 168.285 63.8309 168.228C63.9324 168.171 64.0441 168.135 64.1596 168.121C64.2751 168.108 64.3921 168.118 64.5039 168.15C64.7289 168.214 64.9193 168.365 65.0337 168.569C65.1482 168.773 65.1773 169.014 65.1147 169.239L63.6646 174.364C63.4076 175.272 62.8007 176.041 61.9772 176.501C61.1537 176.962 60.1811 177.077 59.2729 176.821L59.2867 176.813ZM66.9352 159.593C66.8234 159.562 66.7188 159.509 66.6275 159.437C66.5362 159.366 66.46 159.276 66.4032 159.175C66.3465 159.074 66.3103 158.962 66.2968 158.847C66.2832 158.732 66.2926 158.615 66.3244 158.503L67.7765 153.367C67.904 152.913 67.8464 152.427 67.6163 152.016C67.3862 151.605 67.0024 151.301 66.549 151.172L61.4244 149.722C61.3124 149.691 61.2076 149.638 61.1162 149.566C61.0247 149.494 60.9484 149.405 60.8916 149.304C60.8348 149.202 60.7987 149.09 60.7853 148.975C60.7719 148.859 60.7816 148.742 60.8136 148.631C60.8779 148.405 61.0288 148.214 61.2333 148.1C61.4379 147.985 61.6794 147.957 61.9052 148.02L67.0298 149.47C67.9375 149.728 68.7057 150.335 69.166 151.159C69.6262 151.983 69.7409 152.955 69.4847 153.864L68.0326 158.996C68.0015 159.108 67.9485 159.213 67.8767 159.304C67.8048 159.396 67.7156 159.472 67.6141 159.529C67.5127 159.586 67.4009 159.622 67.2854 159.635C67.1699 159.648 67.0529 159.639 66.9411 159.607L66.9352 159.593ZM35.3048 150.65C35.1928 150.619 35.088 150.566 34.9966 150.494C34.9051 150.422 34.8288 150.333 34.772 150.232C34.7152 150.13 34.6791 150.018 34.6657 149.903C34.6523 149.787 34.662 149.67 34.694 149.559L36.1442 144.434C36.402 143.527 37.0092 142.759 37.8325 142.299C38.6558 141.838 39.6279 141.723 40.5358 141.979L45.6486 143.425C45.7605 143.456 45.865 143.509 45.9563 143.581C46.0476 143.653 46.1238 143.742 46.1806 143.843C46.2374 143.944 46.2735 144.056 46.2871 144.171C46.3006 144.286 46.2912 144.403 46.2594 144.515C46.1952 144.74 46.0443 144.931 45.8397 145.045C45.6352 145.16 45.3936 145.189 45.1679 145.125L40.0531 143.679C39.5993 143.552 39.1135 143.609 38.7021 143.84C38.2907 144.07 37.9872 144.453 37.8583 144.907L36.4082 150.031C36.377 150.143 36.3241 150.248 36.2524 150.339C36.1807 150.43 36.0917 150.507 35.9904 150.563C35.8891 150.62 35.7777 150.656 35.6624 150.67C35.5471 150.683 35.4303 150.674 35.3186 150.642L35.3048 150.65Z" fill="#FFB51B"/>
<path d="M36.4403 166.084C36.3285 166.053 36.2239 166 36.1326 165.928C36.0414 165.857 35.9651 165.767 35.9084 165.666C35.8516 165.565 35.8154 165.454 35.8019 165.338C35.7884 165.223 35.7978 165.106 35.8296 164.994L40.8458 147.254C40.8769 147.142 40.9299 147.038 41.0018 146.946C41.0736 146.855 41.1628 146.778 41.2643 146.722C41.3658 146.665 41.4775 146.629 41.593 146.615C41.7085 146.602 41.8255 146.611 41.9373 146.644C42.1627 146.708 42.3535 146.859 42.468 147.063C42.5824 147.268 42.6112 147.509 42.5481 147.735L37.5299 165.475C37.4987 165.587 37.4458 165.692 37.3741 165.783C37.3024 165.874 37.2134 165.95 37.1121 166.007C37.0109 166.064 36.8994 166.1 36.7841 166.114C36.6688 166.127 36.552 166.116 36.4403 166.084ZM40.7237 167.296C40.6118 167.265 40.5073 167.212 40.416 167.14C40.3247 167.068 40.2485 166.979 40.1917 166.878C40.1349 166.777 40.0987 166.665 40.0852 166.55C40.0717 166.435 40.0811 166.318 40.1129 166.206L45.1311 148.466C45.1622 148.354 45.2152 148.25 45.2869 148.158C45.3586 148.067 45.4476 147.991 45.5489 147.934C45.6501 147.877 45.7616 147.841 45.8769 147.828C45.9922 147.814 46.109 147.823 46.2206 147.855C46.4461 147.92 46.6369 148.07 46.7513 148.275C46.8658 148.479 46.8946 148.721 46.8314 148.947L41.8152 166.687C41.784 166.799 41.731 166.904 41.6592 166.995C41.5874 167.087 41.4981 167.163 41.3967 167.22C41.2952 167.276 41.1835 167.313 41.068 167.326C40.9524 167.339 40.8354 167.328 40.7237 167.296ZM45.0188 168.511C44.9068 168.48 44.802 168.427 44.7105 168.355C44.6191 168.284 44.5428 168.194 44.486 168.093C44.4292 167.991 44.3931 167.88 44.3797 167.764C44.3663 167.649 44.3759 167.532 44.408 167.42L47.2393 157.409C47.2704 157.297 47.3234 157.192 47.3952 157.101C47.4671 157.009 47.5563 156.933 47.6578 156.876C47.7592 156.819 47.871 156.783 47.9865 156.77C48.102 156.757 48.219 156.766 48.3308 156.798C48.5562 156.862 48.747 157.013 48.8615 157.218C48.9759 157.422 49.0047 157.664 48.9416 157.89L46.1103 167.901C46.0792 168.013 46.0262 168.117 45.9543 168.209C45.8825 168.3 45.7933 168.377 45.6918 168.433C45.5903 168.49 45.4786 168.526 45.3631 168.54C45.2476 168.553 45.1306 168.543 45.0188 168.511ZM49.0125 154.393C48.9004 154.361 48.7957 154.308 48.7042 154.237C48.6128 154.165 48.5365 154.076 48.4797 153.974C48.4229 153.873 48.3868 153.761 48.3734 153.645C48.36 153.53 48.3696 153.413 48.4017 153.301L49.4262 149.68C49.4574 149.568 49.5103 149.463 49.582 149.372C49.6537 149.281 49.7427 149.205 49.844 149.148C49.9453 149.091 50.0567 149.055 50.172 149.041C50.2873 149.028 50.4041 149.037 50.5158 149.069C50.7416 149.133 50.9328 149.284 51.0473 149.489C51.1618 149.694 51.1903 149.936 51.1266 150.162L50.102 153.782C50.0709 153.894 50.0179 153.999 49.9461 154.09C49.8742 154.181 49.785 154.258 49.6835 154.315C49.5821 154.371 49.4703 154.407 49.3548 154.421C49.2393 154.434 49.1223 154.425 49.0105 154.393H49.0125ZM49.3021 169.723C49.1901 169.692 49.0853 169.639 48.9939 169.567C48.9024 169.495 48.8261 169.406 48.7693 169.305C48.7125 169.203 48.6764 169.091 48.663 168.976C48.6496 168.86 48.6593 168.743 48.6913 168.632L53.7096 150.891C53.7407 150.779 53.7937 150.675 53.8655 150.583C53.9374 150.492 54.0266 150.415 54.1281 150.359C54.2295 150.302 54.3413 150.266 54.4568 150.252C54.5723 150.239 54.6893 150.249 54.8011 150.281C55.0269 150.345 55.2181 150.496 55.3326 150.701C55.4471 150.906 55.4756 151.148 55.4119 151.374L50.3936 169.112C50.3625 169.224 50.3095 169.329 50.2377 169.421C50.1658 169.512 50.0766 169.588 49.9751 169.645C49.8736 169.702 49.7619 169.738 49.6464 169.751C49.5309 169.765 49.4139 169.755 49.3021 169.723ZM53.5874 170.935C53.4754 170.904 53.3706 170.851 53.2791 170.779C53.1877 170.707 53.1114 170.618 53.0546 170.516C52.9978 170.415 52.9617 170.303 52.9483 170.188C52.9349 170.072 52.9445 169.955 52.9766 169.843L54.2908 165.193C54.3221 165.082 54.3753 164.977 54.4472 164.886C54.5191 164.795 54.6084 164.718 54.7098 164.662C54.8113 164.605 54.9229 164.569 55.0384 164.556C55.1538 164.543 55.2707 164.553 55.3823 164.585C55.6077 164.649 55.7985 164.8 55.913 165.004C56.0274 165.209 56.0562 165.45 55.9931 165.676L54.6789 170.324C54.6478 170.436 54.5948 170.541 54.523 170.632C54.4511 170.724 54.3619 170.8 54.2604 170.857C54.1589 170.914 54.0472 170.95 53.9317 170.963C53.8162 170.976 53.6992 170.967 53.5874 170.935ZM56.131 161.941C56.019 161.909 55.9142 161.856 55.8227 161.785C55.7313 161.713 55.655 161.624 55.5982 161.522C55.5414 161.421 55.5053 161.309 55.4919 161.193C55.4785 161.078 55.4881 160.961 55.5202 160.849L57.9929 152.103C58.024 151.991 58.077 151.886 58.1488 151.795C58.2207 151.703 58.3099 151.627 58.4114 151.57C58.5129 151.514 58.6246 151.477 58.7401 151.464C58.8556 151.451 58.9726 151.46 59.0844 151.492C59.3098 151.557 59.5006 151.707 59.6151 151.912C59.7295 152.117 59.7583 152.358 59.6952 152.584L57.2225 161.33C57.1914 161.442 57.1384 161.547 57.0666 161.638C56.9947 161.729 56.9055 161.806 56.804 161.863C56.7025 161.919 56.5908 161.955 56.4753 161.969C56.3598 161.982 56.2428 161.973 56.131 161.941ZM57.8727 172.144C57.7609 172.113 57.6563 172.06 57.565 171.989C57.4737 171.917 57.3975 171.828 57.3407 171.727C57.284 171.625 57.2478 171.514 57.2343 171.399C57.2207 171.283 57.2301 171.167 57.2619 171.055L62.2782 153.315C62.3093 153.203 62.3623 153.098 62.4341 153.007C62.506 152.915 62.5952 152.839 62.6967 152.782C62.7982 152.725 62.9099 152.689 63.0254 152.676C63.1409 152.662 63.2579 152.672 63.3697 152.704C63.5951 152.768 63.7859 152.919 63.9004 153.124C64.0148 153.328 64.0436 153.57 63.9805 153.796L58.9622 171.538C58.9311 171.649 58.8782 171.754 58.8065 171.845C58.7348 171.937 58.6457 172.013 58.5445 172.07C58.4432 172.126 58.3317 172.163 58.2165 172.176C58.1012 172.19 57.9843 172.18 57.8727 172.148V172.144Z" fill="#FFB51B"/>
<g opacity="0.3">
<path d="M49.8325 238.187H42.7021C42.6357 238.187 42.57 238.173 42.5087 238.148C42.4473 238.122 42.3917 238.085 42.3448 238.038C42.2979 237.991 42.2608 237.935 42.2356 237.874C42.2104 237.812 42.1975 237.747 42.1978 237.68C42.1978 237.402 42.4243 237.174 42.7021 237.174H49.8344C50.1162 237.174 50.3388 237.402 50.3388 237.68C50.3383 237.814 50.2848 237.943 50.19 238.038C50.0951 238.133 49.9666 238.186 49.8325 238.187ZM49.8325 240.135H42.7021C42.6357 240.135 42.57 240.122 42.5087 240.097C42.4473 240.071 42.3917 240.034 42.3448 239.987C42.2979 239.94 42.2608 239.884 42.2356 239.822C42.2104 239.761 42.1975 239.695 42.1978 239.629C42.1978 239.349 42.4243 239.12 42.7021 239.12H49.8344C49.9635 239.128 50.0847 239.185 50.1733 239.28C50.2618 239.374 50.3111 239.498 50.3111 239.628C50.3111 239.757 50.2618 239.882 50.1733 239.976C50.0847 240.07 49.9635 240.127 49.8344 240.135H49.8325ZM47.2593 242.084H42.7081C42.5735 242.084 42.4445 242.03 42.3493 241.935C42.2542 241.84 42.2007 241.711 42.2007 241.576C42.2007 241.442 42.2542 241.313 42.3493 241.218C42.4445 241.122 42.5735 241.069 42.7081 241.069H47.2593C47.545 241.069 47.7657 241.298 47.7657 241.575C47.7652 241.709 47.712 241.838 47.6176 241.933C47.5233 242.028 47.3953 242.082 47.2613 242.084H47.2593Z" fill="#FFB51B"/>
<path d="M51.0106 249.348H41.8016C40.6786 249.348 39.7664 248.433 39.7664 247.308V235.658C39.7664 234.531 40.6786 233.617 41.8016 233.617H43.5039V234.638H41.8016C41.5316 234.639 41.2731 234.747 41.0825 234.938C40.892 235.129 40.785 235.388 40.785 235.658V247.308C40.785 247.87 41.2401 248.327 41.8016 248.327H51.0106C51.2807 248.327 51.5398 248.22 51.7308 248.029C51.9219 247.838 52.0292 247.579 52.0292 247.308V235.658C52.0292 235.388 51.9219 235.129 51.731 234.937C51.54 234.746 51.2809 234.638 51.0106 234.638H49.2472V233.617H51.0106C52.1336 233.617 53.0458 234.531 53.0458 235.658V247.308C53.0458 248.433 52.1336 249.348 51.0106 249.348Z" fill="#FFB51B"/>
<path d="M48.6603 235.806H44.1524C43.9495 235.805 43.755 235.724 43.6117 235.581C43.4684 235.437 43.3879 235.242 43.3879 235.039V233.753C43.3879 233.333 43.7268 232.986 44.1524 232.986H48.6603C49.08 232.986 49.4268 233.325 49.4268 233.753V235.039C49.4268 235.243 49.346 235.438 49.2023 235.581C49.0585 235.725 48.8636 235.806 48.6603 235.806ZM44.4046 234.785H48.4081V234.013H44.4046V234.785Z" fill="#FFB51B"/>
</g>
<g opacity="0.3">
<path d="M121.377 249.349C117.862 249.349 114.862 246.81 114.237 243.305C114.198 243.082 114.207 242.853 114.265 242.634C114.323 242.416 114.428 242.212 114.572 242.038C114.715 241.864 114.894 241.724 115.097 241.628C115.3 241.531 115.522 241.481 115.746 241.48H127.008C127.467 241.48 127.893 241.679 128.185 242.038C128.476 242.388 128.598 242.853 128.519 243.305C127.901 246.804 124.898 249.349 121.377 249.349ZM115.746 242.515C115.671 242.515 115.596 242.531 115.527 242.564C115.459 242.596 115.398 242.643 115.35 242.702C115.302 242.759 115.266 242.827 115.247 242.9C115.228 242.973 115.225 243.049 115.238 243.123C115.486 244.572 116.237 245.887 117.359 246.836C118.481 247.786 119.902 248.31 121.371 248.315C122.841 248.31 124.262 247.786 125.384 246.836C126.506 245.887 127.257 244.572 127.505 243.123C127.518 243.049 127.514 242.973 127.495 242.9C127.475 242.827 127.44 242.759 127.392 242.701C127.343 242.643 127.283 242.597 127.215 242.564C127.146 242.532 127.072 242.515 126.996 242.515H115.735H115.746ZM125.245 240.696C124.587 240.697 123.949 240.466 123.444 240.044C123.359 239.973 123.29 239.885 123.242 239.785C123.194 239.686 123.168 239.577 123.166 239.467C123.163 239.358 123.182 239.249 123.223 239.148C123.263 239.047 123.324 238.955 123.401 238.877L126.384 235.999C126.462 235.923 126.556 235.865 126.658 235.828C126.761 235.791 126.87 235.776 126.979 235.784C127.195 235.804 127.398 235.916 127.528 236.099C128.376 237.266 128.24 238.895 127.201 239.9C126.675 240.408 125.971 240.692 125.239 240.69L125.245 240.696ZM124.329 239.415C124.669 239.616 125.066 239.7 125.459 239.654C125.851 239.607 126.218 239.434 126.502 239.159C126.788 238.881 126.977 238.518 127.043 238.124C127.108 237.731 127.046 237.326 126.866 236.97L124.329 239.415ZM116.712 239.346C116.541 239.347 116.371 239.313 116.214 239.246C116.056 239.179 115.914 239.082 115.796 238.958L113.668 236.781C113.472 236.581 113.322 236.341 113.228 236.076C113.135 235.812 113.101 235.531 113.128 235.252C113.154 234.975 113.241 234.707 113.383 234.467C113.525 234.228 113.718 234.022 113.949 233.866C114.18 233.71 114.443 233.607 114.718 233.565C114.993 233.523 115.274 233.542 115.541 233.621C115.808 233.703 116.053 233.844 116.258 234.033C116.464 234.222 116.625 234.454 116.729 234.712L117.9 237.542C118.136 238.117 117.937 238.783 117.423 239.134C117.213 239.275 116.965 239.352 116.712 239.354V239.346ZM114.998 234.574C114.783 234.576 114.577 234.657 114.419 234.802C114.262 234.947 114.164 235.145 114.145 235.359C114.132 235.486 114.147 235.616 114.189 235.737C114.232 235.858 114.301 235.968 114.391 236.06L116.519 238.237C116.613 238.332 116.755 238.344 116.86 238.275C116.911 238.238 116.949 238.186 116.967 238.125C116.985 238.065 116.982 238 116.958 237.942L115.79 235.114C115.724 234.958 115.615 234.823 115.474 234.728C115.333 234.633 115.167 234.582 114.998 234.58V234.574Z" fill="#FFB51B"/>
<path d="M114.243 234.806C114.158 234.807 114.074 234.786 114 234.745C113.925 234.704 113.862 234.645 113.816 234.574L113.362 233.884C113.288 233.77 113.261 233.631 113.288 233.497C113.315 233.363 113.393 233.246 113.506 233.169C113.562 233.132 113.624 233.106 113.69 233.093C113.756 233.079 113.823 233.08 113.889 233.093C113.955 233.106 114.017 233.133 114.072 233.171C114.128 233.208 114.175 233.257 114.212 233.313L114.665 234.003C114.716 234.081 114.744 234.171 114.748 234.264C114.753 234.357 114.731 234.449 114.688 234.531C114.644 234.614 114.579 234.682 114.499 234.731C114.419 234.779 114.328 234.805 114.235 234.806H114.243ZM121.712 237.88C121.612 237.88 121.513 237.86 121.421 237.821C121.328 237.782 121.245 237.725 121.174 237.653L119.519 235.979C119.375 235.834 119.294 235.637 119.294 235.433C119.294 235.228 119.375 235.032 119.519 234.887L121.174 233.212C121.245 233.141 121.33 233.085 121.423 233.047C121.515 233.008 121.615 232.988 121.715 232.988C121.816 232.988 121.915 233.008 122.008 233.047C122.101 233.085 122.185 233.141 122.256 233.212L123.909 234.887C124.053 235.032 124.133 235.229 124.133 235.433C124.133 235.637 124.053 235.833 123.909 235.979L122.256 237.653C122.186 237.725 122.102 237.781 122.01 237.82C121.917 237.859 121.818 237.879 121.718 237.88H121.712ZM120.424 235.433L121.712 236.737L122.999 235.433L121.712 234.129L120.424 235.433ZM118.82 242.293C118.737 242.292 118.656 242.271 118.583 242.232C118.51 242.193 118.447 242.137 118.4 242.069C118.154 241.699 118.023 241.264 118.024 240.82C118.024 239.592 119.013 238.587 120.227 238.587C121.438 238.587 122.429 239.592 122.429 240.82C122.429 241.21 122.331 241.592 122.138 241.931C122.105 241.989 122.061 242.04 122.009 242.081C121.956 242.122 121.896 242.152 121.831 242.169C121.767 242.187 121.7 242.191 121.634 242.182C121.568 242.174 121.504 242.152 121.446 242.118C121.329 242.049 121.244 241.937 121.209 241.806C121.174 241.674 121.192 241.535 121.259 241.417C121.36 241.233 121.413 241.028 121.415 240.82C121.416 240.504 121.292 240.201 121.071 239.977C120.849 239.753 120.548 239.625 120.233 239.622C120.016 239.623 119.803 239.683 119.618 239.796C119.433 239.909 119.282 240.07 119.182 240.263C119.081 240.455 119.035 240.671 119.048 240.887C119.061 241.104 119.133 241.313 119.255 241.491C119.33 241.605 119.357 241.743 119.331 241.877C119.305 242.01 119.229 242.129 119.118 242.207C119.035 242.265 118.935 242.296 118.834 242.293H118.82ZM121.502 244.628H116.934C116.868 244.628 116.801 244.615 116.74 244.59C116.678 244.564 116.622 244.527 116.574 244.48C116.527 244.433 116.49 244.376 116.464 244.315C116.439 244.253 116.426 244.187 116.426 244.12C116.426 243.842 116.657 243.613 116.934 243.613H121.502C121.785 243.613 122.008 243.842 122.008 244.12C122.008 244.254 121.955 244.383 121.86 244.479C121.765 244.574 121.636 244.628 121.502 244.628Z" fill="#FFB51B"/>
</g>
</svg>
