<svg width="256" height="270" viewBox="0 0 256 270" fill="none" xmlns="http://www.w3.org/2000/svg">
<path d="M127.739 211.428L63.389 147.077C55.8675 139.551 51.6408 129.347 51.6373 118.707C51.6373 108.042 55.8634 97.8592 63.389 90.3337C70.9158 82.8113 81.121 78.5845 91.7624 78.582C102.425 78.582 112.608 82.8081 120.134 90.3337L127.981 98.1813L135.989 90.215C143.506 82.7673 153.658 78.5868 164.24 78.582H164.402C169.673 78.5981 174.89 79.655 179.752 81.692C184.614 83.729 189.026 86.7061 192.734 90.4523C200.224 98.0228 204.407 108.255 204.363 118.905C204.348 124.176 203.291 129.393 201.253 134.255C199.216 139.117 196.238 143.529 192.491 147.237L127.699 211.466L127.739 211.428Z" fill="#FFCC2F"/>
<path d="M129.851 98.6468C128.682 97.5381 127.446 96.5034 126.148 95.5488L129.568 98.9689L129.851 98.6864V98.6468Z" fill="#FFB51B"/>
<path d="M128.019 220.173C128.946 220.173 129.671 220.899 129.671 221.823V267.903C129.673 268.12 129.632 268.336 129.55 268.537C129.468 268.738 129.346 268.921 129.193 269.075C129.039 269.228 128.856 269.35 128.655 269.432C128.454 269.514 128.238 269.555 128.021 269.553C127.804 269.555 127.588 269.514 127.387 269.432C127.186 269.35 127.003 269.228 126.85 269.075C126.696 268.921 126.574 268.738 126.492 268.537C126.41 268.336 126.369 268.12 126.371 267.903V221.823C126.371 220.899 127.093 220.173 128.019 220.173ZM178.406 203.714C178.76 203.463 179.199 203.36 179.627 203.428C180.056 203.496 180.441 203.729 180.7 204.077L207.945 241.262C208.197 241.616 208.301 242.055 208.233 242.484C208.165 242.913 207.931 243.298 207.582 243.556C207.228 243.808 206.79 243.911 206.361 243.843C205.932 243.775 205.547 243.542 205.288 243.193L178.045 206.008C177.792 205.654 177.689 205.216 177.757 204.787C177.824 204.358 178.057 203.972 178.406 203.714ZM209.032 161.781C209.313 160.896 210.239 160.453 211.124 160.734L254.869 175.303C255.754 175.585 256.197 176.508 255.916 177.395C255.634 178.28 254.709 178.723 253.822 178.442L210.077 163.873C209.192 163.591 208.75 162.666 209.032 161.781ZM209.032 107.814C208.75 106.928 209.192 106.002 210.077 105.721L253.822 91.1523C254.709 90.8698 255.634 91.3124 255.916 92.1975C256.197 93.0827 255.754 94.0092 254.869 94.2917L211.124 108.859C210.239 109.141 209.313 108.699 209.032 107.814ZM178.406 65.8788C178.057 65.6201 177.824 65.2348 177.757 64.8058C177.689 64.3768 177.792 63.9384 178.045 63.585L205.288 26.3997C205.547 26.0513 205.932 25.8184 206.361 25.7508C206.79 25.6832 207.228 25.7863 207.582 26.0381C207.931 26.2966 208.165 26.6817 208.233 27.1107C208.301 27.5397 208.197 27.9783 207.945 28.332L180.7 65.5172C180.441 65.8656 180.056 66.0986 179.627 66.1662C179.198 66.2338 178.76 66.1306 178.406 65.8788ZM128.019 49.419C127.802 49.421 127.587 49.3797 127.386 49.2975C127.185 49.2152 127.002 49.0938 126.849 48.9401C126.695 48.7865 126.574 48.6038 126.492 48.4028C126.41 48.2017 126.369 47.9863 126.371 47.7692V1.64975C126.371 0.72506 127.095 0 128.021 0C128.946 0 129.671 0.72506 129.671 1.64975V47.7711C129.673 47.9883 129.632 48.2038 129.55 48.4048C129.468 48.6059 129.346 48.7886 129.193 48.9421C129.039 49.0956 128.856 49.2168 128.655 49.2987C128.454 49.3806 128.236 49.4215 128.019 49.419ZM77.5965 65.8788C77.2429 66.1306 76.8046 66.2338 76.3758 66.1662C75.947 66.0986 75.5617 65.8656 75.3027 65.5172L48.016 28.332C47.7643 27.9781 47.6615 27.5397 47.7294 27.1109C47.7974 26.682 48.0307 26.2969 48.3794 26.0381C48.7331 25.7863 49.1713 25.6832 49.6001 25.7508C50.029 25.8184 50.4142 26.0513 50.6733 26.3997L77.9186 63.5868C78.1702 63.9407 78.273 64.3791 78.2051 64.808C78.1371 65.2368 77.9038 65.6219 77.5551 65.8807L77.5965 65.8788ZM46.9707 107.814C46.6882 108.699 45.7636 109.141 44.8784 108.859L1.12998 94.2917C0.244842 94.0092 -0.197728 93.0846 0.0847632 92.1994C0.367254 91.3143 1.29006 90.8698 2.1752 91.1523L45.9236 105.719C46.8088 106.002 47.2495 106.928 46.9689 107.814H46.9707ZM46.9707 161.781C47.2532 162.666 46.8088 163.591 45.9236 163.873L2.17896 178.442C1.29382 178.725 0.367254 178.28 0.0866463 177.395C-0.195845 176.51 0.246725 175.583 1.13186 175.303L44.8765 160.734C45.7617 160.451 46.6882 160.896 46.9707 161.781ZM77.5965 203.714C78.3197 204.237 78.4817 205.284 77.9581 206.008L50.7128 243.193C50.4544 243.542 50.0692 243.775 49.6402 243.843C49.2112 243.911 48.7727 243.808 48.419 243.556C48.0706 243.297 47.8376 242.912 47.77 242.483C47.7024 242.054 47.8056 241.616 48.0574 241.262L75.3027 204.077C75.5617 203.729 75.9468 203.496 76.3755 203.428C76.8042 203.36 77.2425 203.463 77.5965 203.714Z" fill="#FFE337"/>
<path d="M127.998 136.686C128.925 136.686 129.65 137.411 129.65 138.335V184.415C129.652 184.633 129.611 184.848 129.529 185.049C129.447 185.25 129.325 185.433 129.172 185.587C129.018 185.74 128.835 185.862 128.634 185.944C128.433 186.026 128.217 186.067 128 186.065C127.783 186.067 127.567 186.026 127.366 185.944C127.165 185.862 126.982 185.74 126.829 185.587C126.675 185.433 126.554 185.25 126.471 185.049C126.389 184.848 126.348 184.633 126.35 184.415V138.335C126.35 137.411 127.072 136.686 127.998 136.686Z" fill="#FFE337"/>
<path d="M194.347 109.835C194.347 100.618 191.247 91.7251 185.533 84.6026C178.923 80.1337 171.137 77.7246 163.158 77.6797H162.996C152.414 77.6769 142.259 81.8578 134.747 89.3108L126.737 97.277L118.89 89.4313C118.671 89.2205 118.443 89.0195 118.206 88.8287L117.924 89.1093L114.502 85.6892C106.779 79.9039 97.2298 77.0974 87.6053 77.7847C77.9808 78.4721 68.927 82.6072 62.1053 89.4313C54.5834 96.9577 50.3566 107.162 50.3536 117.803C50.3536 128.468 54.5797 138.651 62.1053 146.174L118.005 202.034L182.475 138.127C186.218 134.416 189.193 130.004 191.23 125.143C193.267 120.281 194.326 115.066 194.347 109.795V109.835Z" fill="#FFB51B"/>
</svg>
