<svg width="219" height="219" viewBox="0 0 219 219" fill="none" xmlns="http://www.w3.org/2000/svg">
<mask id="mask0_2_7702" style="mask-type:luminance" maskUnits="userSpaceOnUse" x="0" y="0" width="219" height="219">
<path d="M0 0H218.651V218.651H0V0Z" fill="white"/>
</mask>
<g mask="url(#mask0_2_7702)">
<path d="M109.395 211.399C53.149 211.399 7.39098 165.641 7.39098 109.395C7.39098 53.1508 53.149 7.39098 109.395 7.39098C165.643 7.39098 211.399 53.1508 211.399 109.395C211.399 165.641 165.643 211.399 109.395 211.399ZM109.395 0C49.074 0 0 49.074 0 109.395C0 169.716 49.074 218.79 109.395 218.79C169.716 218.79 218.79 169.716 218.79 109.395C218.79 49.074 169.716 0 109.395 0Z" fill="#FFB51B"/>
</g>
<path d="M115.072 197.506C113.194 197.625 111.303 197.682 109.395 197.682C60.7127 197.682 21.1042 158.076 21.1042 109.395C21.1042 60.7107 60.7127 21.1041 109.395 21.1041C111.305 21.1041 113.197 21.1653 115.307 21.2896C117.244 21.2896 118.872 19.7829 118.994 17.8233C119.121 15.7895 117.571 14.0341 115.535 13.9061C113.505 13.7836 111.459 13.7168 109.395 13.7168C56.6377 13.7168 13.7151 56.6394 13.7151 109.395C13.7151 162.152 56.6377 205.071 109.395 205.071C111.46 205.071 113.509 205.008 115.539 204.878C117.575 204.75 119.122 202.995 118.994 200.959C118.864 198.924 117.155 197.376 115.072 197.506Z" fill="#FFB51B"/>
<path d="M148.382 188.63C144.932 190.33 141.338 191.816 137.705 193.05C135.773 193.702 134.736 195.801 135.391 197.734C135.912 199.274 137.348 200.241 138.89 200.241C139.284 200.241 139.683 200.18 140.076 200.046C144.014 198.714 147.909 197.103 151.651 195.259C153.481 194.357 154.235 192.139 153.331 190.31C152.427 188.48 150.212 187.727 148.382 188.63Z" fill="#FFB51B"/>
<path d="M193.045 81.0651C193.567 82.6053 195.003 83.5739 196.543 83.5739C196.937 83.5739 197.337 83.5108 197.727 83.3772C199.661 82.724 200.698 80.6253 200.043 78.6918C198.709 74.7504 197.096 70.8554 195.252 67.1163C194.35 65.2904 192.132 64.5333 190.303 65.4407C188.473 66.3444 187.723 68.56 188.623 70.3897C190.325 73.8337 191.811 77.4262 193.045 81.0651Z" fill="#FFB51B"/>
<path d="M137.829 25.7818C141.457 27.014 145.042 28.504 148.49 30.2075C149.015 30.4691 149.575 30.5916 150.125 30.5916C151.487 30.5916 152.795 29.8364 153.441 28.5356C154.342 26.7059 153.595 24.4884 151.765 23.5848C148.03 21.7347 144.14 20.1203 140.208 18.7861C138.278 18.1385 136.178 19.1609 135.519 21.0926C134.864 23.0281 135.899 25.1268 137.829 25.7818Z" fill="#FFB51B"/>
<path d="M197.688 135.533C195.754 134.882 193.658 135.912 193.001 137.843C191.765 141.479 190.275 145.066 188.571 148.504C187.666 150.334 188.414 152.549 190.243 153.455C190.768 153.715 191.329 153.839 191.88 153.839C193.24 153.839 194.55 153.086 195.194 151.783C197.042 148.053 198.657 144.166 199.996 140.222C200.655 138.291 199.622 136.192 197.688 135.533Z" fill="#FFB51B"/>
<path d="M172.518 37.4937C170.987 36.1539 168.655 36.2987 167.304 37.8351C165.959 39.3679 166.109 41.7023 167.644 43.0476C170.523 45.575 173.27 48.3232 175.808 51.2216C176.538 52.0511 177.56 52.4779 178.588 52.4779C179.453 52.4779 180.321 52.1773 181.023 51.5612C182.557 50.2159 182.711 47.8834 181.364 46.3469C178.614 43.2109 175.638 40.2307 172.518 37.4937Z" fill="#FFB51B"/>
<path d="M204.878 103.204C204.745 101.165 202.954 99.6209 200.952 99.7563C198.914 99.8862 197.371 101.643 197.502 103.681C197.625 105.568 197.686 107.474 197.686 109.393C197.684 111.352 197.619 113.302 197.493 115.238C197.361 117.273 198.903 119.031 200.939 119.164C201.022 119.17 201.102 119.172 201.184 119.172C203.116 119.172 204.739 117.671 204.869 115.717C205.003 113.636 205.073 111.51 205.075 109.394C205.075 107.322 205.008 105.242 204.878 103.204Z" fill="#FFB51B"/>
<path d="M180.948 167.319C179.412 165.98 177.081 166.126 175.732 167.659C173.203 170.539 170.451 173.285 167.556 175.824C166.02 177.167 165.867 179.503 167.213 181.038C167.944 181.869 168.964 182.298 169.993 182.298C170.857 182.298 171.726 181.997 172.427 181.381C175.561 178.633 178.543 175.657 181.284 172.537C182.631 171.005 182.481 168.668 180.948 167.319Z" fill="#FFB51B"/>
<path d="M106.773 152.675C102.44 151.916 98.6734 149.29 96.4299 145.475C95.3945 143.718 93.1269 143.137 91.3715 144.161C89.6142 145.199 89.0241 147.463 90.0595 149.224C93.3997 154.907 99.0259 158.817 105.495 159.955C105.712 159.994 105.925 160.01 106.139 160.01C107.9 160.01 109.458 158.749 109.772 156.952C110.126 154.943 108.783 153.028 106.773 152.675Z" fill="#FFB51B"/>
<path d="M109.395 173.158C87.5059 173.158 69.6992 155.347 69.6974 133.62C69.8811 129.348 70.4656 124.833 71.4435 120.144C71.5215 120.187 71.6013 120.22 71.6792 120.259C72.0744 120.467 72.4771 120.664 72.8835 120.853C72.9744 120.894 73.0635 120.935 73.1544 120.975C73.622 121.185 74.0952 121.384 74.5758 121.569C74.5981 121.578 74.6222 121.588 74.6445 121.597C76.2311 122.206 77.8807 122.673 79.5879 122.992C79.6473 123.005 79.7104 123.017 79.7735 123.028C80.2429 123.113 80.718 123.185 81.193 123.247C81.3099 123.263 81.425 123.278 81.5419 123.291C81.9761 123.343 82.4122 123.382 82.8519 123.412C82.9818 123.423 83.1099 123.436 83.2398 123.443C83.7872 123.473 84.3383 123.494 84.895 123.494C100.74 123.494 113.633 110.601 113.628 94.5976C113.602 93.9908 113.561 93.3822 113.513 92.7754C113.501 92.6344 113.492 92.4915 113.479 92.3504C113.427 91.7808 113.368 91.2092 113.299 90.6395C113.277 90.454 113.253 90.2684 113.229 90.081C113.169 89.6412 113.106 89.1996 113.036 88.7579C112.987 88.4406 112.934 88.1196 112.878 87.8004C112.815 87.4386 112.75 87.0767 112.681 86.7167C112.622 86.4106 112.562 86.1025 112.499 85.7926C112.407 85.3603 112.312 84.9298 112.214 84.4956C112.128 84.1281 112.039 83.7552 111.946 83.3822C111.907 83.2374 111.87 83.089 111.831 82.9405C111.666 82.2929 111.49 81.6434 111.302 80.9884C111.262 80.8455 111.221 80.7045 111.176 80.5635C110.994 79.94 110.801 79.3128 110.597 78.6837C110.534 78.4889 110.471 78.2977 110.408 78.1029C110.243 77.6019 110.068 77.1009 109.89 76.5961C109.77 76.251 109.645 75.9077 109.519 75.5663C109.423 75.3083 109.328 75.0485 109.23 74.7887C108.992 74.1615 108.745 73.5436 108.495 72.9238C108.456 72.8273 108.417 72.7309 108.378 72.6344C106.274 67.5017 103.746 62.6696 101.193 58.3664C104.518 53.7607 107.413 50.0922 109.393 47.6724C118.565 58.9101 147.534 97.138 149.091 133.462C149.091 155.347 131.284 173.158 109.395 173.158ZM63.5441 94.9149C64.3643 75.7592 78.7399 55.5607 84.895 47.7466C87.2034 50.6748 90.666 55.3399 94.1342 61.0292C94.149 61.0478 94.1602 61.0701 94.1713 61.0886C94.3661 61.4096 94.5628 61.7381 94.7577 62.0665C99.2502 69.6171 104.164 79.7637 105.752 89.927C105.775 90.0754 105.797 90.2239 105.817 90.3723C105.878 90.7899 105.932 91.2074 105.982 91.6249C106.023 91.983 106.064 92.3375 106.096 92.6956C106.114 92.8682 106.127 93.0426 106.142 93.2152C106.183 93.7292 106.22 94.2432 106.24 94.7553C106.24 106.529 96.6671 116.103 84.895 116.103C84.548 116.103 84.2028 116.093 83.8577 116.078C83.7798 116.075 83.7037 116.067 83.6295 116.064C83.3474 116.045 83.0691 116.026 82.7907 116C82.7295 115.993 82.6719 115.987 82.6126 115.98C82.2971 115.947 81.9817 115.908 81.6681 115.859C81.6569 115.858 81.6458 115.856 81.6347 115.854C78.8456 115.427 76.2366 114.457 73.9115 113.059C73.8744 113.037 73.8336 113.015 73.7965 112.992C73.6016 112.872 73.4068 112.746 73.2157 112.62C73.1099 112.549 73.0023 112.482 72.9002 112.412C72.8482 112.378 72.8018 112.343 72.7517 112.308C72.2897 111.987 71.8388 111.649 71.3971 111.289C71.373 111.269 71.347 111.254 71.3211 111.235C66.5781 107.333 63.546 101.447 63.5441 94.9149ZM109.393 38.2402C108.339 38.2402 107.335 38.6912 106.634 39.4817C106.439 39.7006 102.472 44.1801 96.938 51.6639C92.132 44.5568 88.0607 39.9344 87.6543 39.4798C86.2533 37.9025 83.5385 37.9025 82.1357 39.4798C81.1244 40.6173 57.3166 67.6538 56.1587 94.7553C56.1587 102.853 59.5322 110.176 64.9377 115.403C63.4402 121.64 62.5551 127.665 62.3101 133.462C62.3101 159.424 83.4328 180.547 109.395 180.547C135.357 180.547 156.48 159.424 156.476 133.302C154.518 87.5685 113.884 41.4226 112.154 39.4798C111.455 38.6912 110.451 38.2402 109.393 38.2402Z" fill="#FFB51B"/>
<path d="M82.3754 111.586C82.5907 111.625 82.8059 111.641 83.0174 111.641C84.7803 111.641 86.3372 110.378 86.6526 108.583C87.0052 106.574 85.6636 104.66 83.6539 104.304C81.6035 103.948 79.8202 102.703 78.7588 100.897C77.727 99.138 75.4576 98.5498 73.7022 99.5852C71.9412 100.619 71.3548 102.883 72.3884 104.642C74.5483 108.318 78.1891 110.849 82.3754 111.586Z" fill="#FFB51B"/>
</svg>
