<svg width="696" height="690" viewBox="0 0 696 690" fill="none" xmlns="http://www.w3.org/2000/svg">
<path d="M8.0474 563.331C28.5562 612.565 76.453 635.862 107.063 650.756C227.726 709.458 411.004 702.63 542.913 595.672C573.785 570.64 725.924 439.507 690.45 261.857C659.081 104.819 501.51 13.6661 368.82 1.52342C258.899 -8.54211 115.354 31.0516 64.6491 126.834C32.7607 187.062 71.0982 206.204 45.0448 342.691C22.4924 460.825 -17.0345 503.11 8.0474 563.331Z" fill="#FFFDB7"/>
<path d="M348.635 224.065L327.523 224.628L323.291 69.2478L342.437 68.7341C343.52 68.7064 344.43 69.5572 344.458 70.6289L348.635 224.065Z" fill="#F7CE4D"/>
<path d="M355.76 226.926L334.648 227.489L330.41 72.1091L351.522 71.54L355.76 226.926Z" fill="white"/>
<path d="M323.48 69.4358L330.41 72.1096L351.198 71.6621L345.586 69.3474C344.369 68.8502 343.062 68.6237 341.75 68.69L323.48 69.4358Z" fill="#F7CE4D"/>
<path d="M406.487 236.356L385.465 234.351L400.501 79.6221L419.564 81.4396C420.653 81.5391 421.446 82.4948 421.34 83.572L406.487 236.356Z" fill="#F7CE4D"/>
<path d="M413.204 240.063L392.176 238.058L407.213 83.3291L428.241 85.3345L413.204 240.063Z" fill="white"/>
<path d="M400.663 79.8438L407.213 83.3352L427.901 85.4124L422.613 82.4402C421.474 81.7994 420.195 81.4127 418.889 81.3133L400.663 79.8438Z" fill="#F7CE4D"/>
<path d="M485.044 236.356L464.021 234.351L479.058 79.6221L498.121 81.4396C499.204 81.5391 499.997 82.4948 499.891 83.572L485.044 236.356Z" fill="#F7CE4D"/>
<path d="M491.755 240.063L470.727 238.058L485.764 83.3291L506.792 85.3345L491.755 240.063Z" fill="white"/>
<path d="M479.22 79.8438L485.77 83.3352L506.452 85.4124L501.17 82.4402C500.025 81.7994 498.752 81.4127 497.445 81.3133L479.22 79.8438Z" fill="#F7CE4D"/>
<path d="M488.863 252.957L468.131 248.974L498.037 96.3779L517.088 100.035C518.021 100.212 518.624 101.101 518.451 102.018L488.863 252.957Z" fill="#F7CE4D"/>
<path d="M495.189 257.277L474.451 253.3L504.363 100.698L524.76 104.615C524.945 104.648 525.073 104.825 525.028 105.013L495.189 257.277Z" fill="white"/>
<path d="M497.976 96.6982L504.369 100.692L524.76 104.714L520.634 101.847C518.998 100.715 517.122 99.9521 515.157 99.6151L497.976 96.6982Z" fill="#F7CE4D"/>
<path d="M467.494 258.515L446.533 255.88L466.344 101.676L487.3 104.311L467.494 258.515Z" fill="#F7CE4D"/>
<path d="M474.089 262.421L453.133 259.78L472.938 105.582L493.671 108.19C493.793 108.206 493.883 108.317 493.866 108.444L474.089 262.421Z" fill="white"/>
<path d="M466.305 102.002L472.938 105.582L493.553 108.283L486.657 104.123L466.305 102.002Z" fill="#F7CE4D"/>
<path d="M353.85 261.122L332.894 258.465L352.901 104.289L373.856 106.952L353.85 261.122Z" fill="#F7CE4D"/>
<path d="M360.444 265.039L339.494 262.376L359.501 108.194L380.451 110.857L360.444 265.039Z" fill="white"/>
<path d="M352.862 104.615L359.495 108.195L380.11 110.924L373.214 106.759L352.862 104.615Z" fill="#F7CE4D"/>
<path d="M307.55 265.597L287.427 271.939L239.77 123.817L258.034 118.067C259.061 117.741 260.167 118.31 260.491 119.326L307.55 265.597Z" fill="#F7CE4D"/>
<path d="M315.194 266.393L295.065 272.741L247.414 124.619L267.543 118.277L315.194 266.393Z" fill="white"/>
<path d="M239.77 123.823L246.945 124.564C247.252 124.597 247.57 124.564 247.866 124.475L267.264 118.476L260.82 117.757C259.776 117.641 258.726 117.752 257.733 118.089L239.77 123.823Z" fill="#F7CE4D"/>
<path d="M328.025 268.608L307.282 272.563L277.521 119.94L298.264 115.979L328.025 268.608Z" fill="#F7CE4D"/>
<path d="M335.524 270.282L314.787 274.237L285.02 121.613L305.758 117.652L335.524 270.282Z" fill="white"/>
<path d="M277.588 120.26L285.02 121.608L305.462 117.824L299.543 116.448C298.259 116.15 296.924 116.139 295.64 116.415L277.588 120.26Z" fill="#F7CE4D"/>
<path d="M448.214 250.411H427.091V94.9697H446.533C447.46 94.9697 448.214 95.7155 448.214 96.6326V250.411Z" fill="#F7CE4D"/>
<path d="M455.26 253.46H434.132V98.0186H454.959C455.126 98.0186 455.26 98.1511 455.26 98.3169V253.46Z" fill="white"/>
<path d="M427.096 95.2954L434.132 98.0134L454.931 98.1239L449.135 95.555C448.097 95.0965 446.969 94.87 445.83 94.8921L427.096 95.2954Z" fill="#F7CE4D"/>
<path d="M424.456 276.536H403.327V121.089H424.456V276.536Z" fill="#F7CE4D"/>
<path d="M431.496 279.585H410.373V124.144H431.496V279.585Z" fill="white"/>
<path d="M403.327 121.42L410.373 124.143L431.162 124.248L423.791 120.983L403.327 121.42Z" fill="#F7CE4D"/>
<path d="M364.816 287.374L344.514 293.153L301.079 143.766L320.521 138.231C320.996 138.098 321.487 138.369 321.627 138.839L364.816 287.374Z" fill="#F7CE4D"/>
<path d="M372.432 288.381L352.136 294.159L308.7 144.773L328.997 138.994L372.432 288.381Z" fill="white"/>
<path d="M301.313 143.905L308.7 144.772L328.712 139.193L322.693 138.342C321.392 138.16 320.069 138.264 318.812 138.651L301.313 143.905Z" fill="#F7CE4D"/>
<path d="M382.896 289.866L361.94 287.198L381.947 133.027L402.902 135.69L382.896 289.866Z" fill="#F7CE4D"/>
<path d="M389.485 293.772L368.535 291.109L388.536 136.938L409.491 139.596L389.485 293.772Z" fill="white"/>
<path d="M381.908 133.353L388.541 136.938L409.15 139.667L402.26 135.496L381.908 133.353Z" fill="#F7CE4D"/>
<path d="M505.391 232.97L512.906 185.592L489.907 176.339C487.26 175.322 484.195 175.438 481.872 176.946C414.187 220.761 346.736 225.186 279.587 175.3C278.822 174.731 277.767 174.527 276.851 174.869L247.978 186.393L259.452 231.909L505.391 232.97Z" fill="#F7CE4D"/>
<path d="M497.68 464.378L297.153 465.455C282.591 465.527 270.408 454.528 269.162 440.164L247.984 195.763L276.46 188.797C277.644 188.504 278.917 188.747 279.877 189.427C347.183 237.169 414.796 232.567 482.643 190.222C484.514 189.045 486.909 188.736 489.064 189.405L512.03 196.548L497.68 464.378Z" fill="#FADD80"/>
<path d="M273.691 441.412C273.043 441.412 272.49 440.926 272.434 440.274L251.255 195.867C251.194 195.182 251.713 194.58 252.406 194.52C253.076 194.459 253.707 194.973 253.768 195.658L274.952 440.059C275.003 440.749 274.495 441.346 273.802 441.412C273.763 441.412 273.724 441.412 273.691 441.412Z" fill="white"/>
<path d="M483.491 392.935L493.436 397.493L582.981 206.093L574.762 202.331C573.807 201.895 572.668 202.309 572.227 203.254L483.491 392.935Z" fill="#F7CE4D"/>
<path d="M573.082 202.259L569.955 208.927L622.48 256.824L629.611 249.178L577.928 201.331C576.415 199.922 573.953 200.397 573.082 202.259Z" fill="#F7CE4D"/>
<path d="M407.163 330.238H592.312V306.141H407.163V330.238Z" fill="white"/>
<path d="M447.388 613.283L554.454 612.394C564.103 612.316 572.037 604.842 572.585 595.306L587.443 337.47H404.734L425.031 593.014C425.941 604.527 435.707 613.382 447.388 613.283Z" fill="white"/>
<path d="M391.607 347.116H601.782C603.278 347.116 604.495 345.912 604.495 344.431V325.698C604.495 324.217 603.278 323.013 601.782 323.013H391.607C390.105 323.013 388.893 324.217 388.893 325.698V344.431C388.893 345.912 390.105 347.116 391.607 347.116Z" fill="#F7CE4D"/>
<path d="M438.856 531.323C438.593 544.664 348.869 556.757 243.438 556.757C138.002 556.757 53.6938 545.891 52.5268 532.593C49.8243 501.64 138.002 508.418 243.438 508.418C348.869 508.418 439.76 486.37 438.856 531.323Z" fill="#FFFDB7"/>
<path d="M430.731 521.826C296.679 527.489 170.862 527.909 55.2349 521.826C49.2771 521.826 44.4026 517.854 44.4026 513.004V501.977C44.4026 497.126 49.2771 493.154 55.2349 493.154C180.002 503.363 305.194 502.546 430.731 493.154C436.689 493.154 441.564 497.126 441.564 501.977V513.004C441.564 517.854 436.689 521.826 430.731 521.826Z" fill="#FADD80"/>
<path d="M61.606 474.692L50.6452 487.779C48.596 490.227 50.299 493.635 53.8 494.105C140.66 499.685 209.797 502.784 256.147 513.556C270.949 516.993 286.142 518.893 301.43 519.004C311.615 519.075 321.459 519.02 324.396 518.6C361.941 513.203 393.924 505.982 435.036 491.558C441.195 490.067 441.603 482.824 435.639 480.835L398.748 468.565L61.606 474.692Z" fill="white"/>
<path d="M53.9227 492.862C65.386 493.602 76.5366 494.293 87.3633 494.967C159.292 499.436 216.106 502.966 256.437 512.341C271.446 515.827 286.589 517.65 301.436 517.755C317.221 517.871 322.542 517.601 324.223 517.363C364.52 511.573 396.509 503.756 434.618 490.382L434.74 490.348C437.504 489.674 438.56 487.796 438.627 486.26C438.688 484.774 437.834 482.885 435.243 482.023L398.553 469.814L62.2089 475.935L51.6166 488.575C51.0192 489.288 50.8628 490.127 51.1867 490.934C51.5831 491.945 52.6273 492.674 53.9227 492.862ZM308.415 520.274C306.282 520.274 303.948 520.269 301.419 520.247C286.388 520.147 271.055 518.297 255.862 514.766C215.738 505.447 159.013 501.922 87.207 497.453C76.3579 496.779 65.1906 496.083 53.7161 495.348L53.6268 495.343C51.4045 495.044 49.5674 493.702 48.836 491.84C48.1883 490.199 48.501 488.382 49.6735 486.984L61.0028 473.46L398.943 467.312L436.047 479.659C439.274 480.73 441.273 483.366 441.145 486.365C441.016 489.415 438.766 491.917 435.399 492.757C397.151 506.17 365.039 514.015 324.58 519.832C322.52 520.131 317.098 520.274 308.415 520.274Z" fill="#F7CE4D"/>
<path d="M423.065 480.399C309.175 487.282 189.327 487.172 63.8171 480.399C54.135 480.399 46.2118 469.156 46.2118 455.412C46.2118 441.672 54.135 430.436 63.8171 430.436C180.622 423.773 300.224 423.431 423.065 430.436C432.742 430.436 440.665 441.672 440.665 455.412C440.665 469.156 432.742 480.399 423.065 480.399Z" fill="#FADD80"/>
<path d="M32.5765 443.103C32.141 443.727 31.711 444.357 31.2867 444.998C20.3594 461.361 44.9722 458.931 53.0853 456.4C65.0623 452.66 74.4373 445.434 87.2295 443.617C100.999 441.661 115.059 443.291 128.839 444.258C171.348 447.246 218.329 444.418 258.961 430.988C263.288 429.557 267.666 427.905 271.111 424.928C298.22 401.432 229.055 401.073 219.451 401.161C191.884 401.41 164.318 401.67 136.746 401.918C95.605 402.299 57.837 407.001 32.5765 443.103Z" fill="white"/>
<path d="M221.617 402.399C220.88 402.399 220.165 402.399 219.462 402.41L136.757 403.167C98.7094 403.515 59.4059 406.94 33.615 443.81C33.185 444.424 32.7551 445.048 32.3363 445.683C29.7511 449.556 29.1313 452.423 30.4993 454.213C33.654 458.356 46.8259 457.047 52.7055 455.213C57.4349 453.732 61.846 451.661 66.1119 449.655C72.5499 446.628 79.2112 443.496 87.0507 442.385C98.8658 440.706 110.954 441.639 122.641 442.545C124.746 442.706 126.84 442.866 128.928 443.015C162.659 445.385 212.533 445.015 258.564 429.806C262.473 428.513 266.929 426.889 270.279 423.989C275.014 419.884 276.873 416.409 275.812 413.658C272.378 404.736 241.11 402.399 221.617 402.399ZM40.159 459.483C35.3291 459.483 30.6612 458.577 28.4836 455.716C26.4064 452.998 26.9983 449.153 30.2313 444.308C30.6668 443.661 31.1023 443.02 31.5434 442.391C58.0212 404.543 98.0282 401.029 136.734 400.67L219.44 399.913C228.39 399.836 273.277 400.068 278.169 412.769C279.648 416.597 277.549 421 271.937 425.862C268.235 429.071 263.506 430.8 259.363 432.17C212.94 447.512 162.715 447.887 128.75 445.501C126.656 445.357 124.556 445.192 122.446 445.031C110.893 444.136 98.9495 443.214 87.4081 444.855C79.9427 445.915 73.7504 448.821 67.1952 451.909C62.8511 453.953 58.3618 456.058 53.4649 457.588C50.8238 458.412 45.3909 459.483 40.159 459.483Z" fill="#F7CE4D"/>
<path d="M266.443 415.95C266.544 416.088 266.633 416.232 266.722 416.37C269.715 421.27 271.686 426.922 275.265 431.33C280.402 437.667 288.242 440.628 295.914 441.97C316.423 445.545 336.931 445.456 357.613 444.23C386.057 442.545 414.17 454.61 442.563 452.069C456.718 450.809 456.165 436.496 446.422 428.319C441.491 424.182 435.377 422.165 429.397 420.281C402.707 411.873 375.755 404.421 348.529 398.344C321.889 392.405 294.121 386.03 266.823 389.61C261.033 390.372 253.885 393.085 248.86 396.206C234.315 405.255 260.792 408.133 266.443 415.95Z" fill="white"/>
<path d="M363.186 442.827C375.269 442.827 387.352 444.954 399.089 447.02C413.305 449.528 428.007 452.119 442.452 450.832C447.354 450.39 450.671 448.208 451.804 444.672C453.323 439.938 450.771 433.601 445.606 429.27C441.067 425.458 435.64 423.558 429.012 421.469C400.541 412.498 374.124 405.333 348.255 399.559L346.787 399.234C320.622 393.4 293.563 387.362 266.99 390.847C261.574 391.555 254.567 394.135 249.53 397.261C247.062 398.803 245.744 400.233 245.817 401.3C245.957 403.399 250.96 405.658 255.371 407.647C260.201 409.829 265.192 412.083 267.465 415.227C267.588 415.393 267.699 415.558 267.8 415.73C268.984 417.663 270.022 419.729 271.016 421.718C272.619 424.928 274.137 427.95 276.242 430.552C280.464 435.745 287.153 439.175 296.137 440.739C318.466 444.639 340.684 443.987 357.541 442.987C359.422 442.871 361.31 442.827 363.186 442.827ZM434.473 453.671C422.417 453.671 410.368 451.544 398.642 449.478C385.225 447.114 371.349 444.667 357.692 445.479C340.695 446.484 318.288 447.142 295.696 443.197C286.092 441.523 278.889 437.794 274.277 432.115C271.999 429.303 270.352 426.011 268.76 422.828C267.783 420.878 266.773 418.867 265.645 417.017C265.572 416.901 265.5 416.79 265.416 416.68C263.54 414.078 258.637 411.868 254.321 409.912C248.536 407.305 243.539 405.051 243.299 401.471C243.159 399.35 244.756 397.289 248.19 395.151C253.578 391.798 260.832 389.14 266.655 388.378C293.68 384.831 320.962 390.914 347.345 396.803L348.808 397.129C374.75 402.918 401.233 410.1 429.777 419.094C435.204 420.801 441.955 422.928 447.237 427.364C453.251 432.408 456.054 439.672 454.211 445.423C452.754 449.976 448.655 452.782 442.681 453.318C439.95 453.561 437.209 453.671 434.473 453.671Z" fill="#F7CE4D"/>
<path d="M50.3716 528.577C174.178 551.028 303.943 551.885 440.291 528.577C440.291 588.037 388.993 636.237 325.708 636.237H164.96C101.674 636.237 50.3716 588.037 50.3716 528.577Z" fill="#F7CE4D"/>
<path d="M51.6449 530.074C52.5048 588.059 103.009 634.989 164.96 634.989H325.708C387.67 634.989 438.175 588.053 439.018 530.058C372.209 541.394 305.479 547.095 240.624 546.985C177.026 546.88 113.456 541.19 51.6449 530.074ZM325.708 637.481H164.96C101.083 637.481 49.1155 588.628 49.1155 528.577V527.08L50.6007 527.351C113.294 538.72 177.417 544.399 242.473 544.405C307.545 544.405 373.555 538.72 440.079 527.345L441.553 527.097V528.577C441.553 588.628 389.586 637.481 325.708 637.481Z" fill="#F7CE4D"/>
<path d="M246.721 572.248C189.427 572.248 128.671 566.735 61.3434 555.448C60.6566 555.332 60.1988 554.686 60.316 554.006C60.4333 553.332 61.081 552.874 61.7678 552.99C197.155 575.69 302.151 575.447 424.176 552.145C424.857 552.012 425.522 552.454 425.656 553.133C425.784 553.807 425.338 554.465 424.656 554.592C364.872 566.011 311.369 571.607 256.264 572.193C253.098 572.231 249.91 572.248 246.721 572.248Z" fill="#FFFDB7"/>
<path d="M438.939 413.171C307.718 423.701 177.746 423.706 49.0148 413.171C49.0148 353.712 114.712 305.737 177.998 305.737L308.879 304.887C372.164 304.887 438.939 353.712 438.939 413.171Z" fill="#F7CE4D"/>
<path d="M50.2879 412.023C177.551 422.375 307.879 422.375 437.666 412.023C437.27 384.776 422.814 358.43 396.844 337.702C371.712 317.643 339.651 306.136 308.879 306.136L178.003 306.981C118.085 306.981 51.1255 351.817 50.2879 412.023ZM243.02 422.282C177.836 422.282 112.998 419.657 48.9143 414.415L47.7529 414.321V413.172C47.7529 384.754 62.3989 357.408 88.9828 336.183C114.215 316.041 146.662 304.489 177.998 304.489L308.873 303.639C340.215 303.639 372.857 315.35 398.43 335.763C425.366 357.259 440.196 384.754 440.196 413.172V414.321L439.04 414.415C373.689 419.657 308.181 422.282 243.02 422.282Z" fill="#F7CE4D"/>
<path d="M233.46 396.024C179.036 396.024 123.4 393.764 66.8714 389.24C66.179 389.185 65.6597 388.582 65.7155 387.897C65.7714 387.207 66.3967 386.699 67.0724 386.754C186.68 396.317 302.307 395.748 410.753 385.058C411.44 384.997 412.065 385.489 412.132 386.174C412.199 386.864 411.691 387.472 410.999 387.538C353.666 393.195 294.328 396.024 233.46 396.024Z" fill="#FFFDB7"/>
<path d="M173.095 340.597C171.705 340.398 170.314 341.116 169.399 342.127C168.483 343.127 167.958 344.387 167.45 345.619C167.199 346.226 166.953 346.933 167.294 347.497C167.528 347.889 167.986 348.105 168.416 348.298C170.437 349.193 172.581 350.055 174.809 349.939C177.043 349.817 179.354 348.397 179.634 346.32C180.019 343.47 176.769 341.481 173.949 340.359L173.095 340.597Z" fill="white"/>
<path d="M269.793 323.99C272.055 324.581 274.283 325.559 276.628 325.432C278.973 325.311 281.463 323.493 281.067 321.316C280.698 319.256 278.197 318.289 276.064 317.698C274.327 317.212 272.585 316.731 270.843 316.245C267.448 315.3 258.503 313.632 257.928 319.261C257.414 324.261 266.22 323.051 269.793 323.99Z" fill="white"/>
<path d="M367.066 341.829C364.771 342.293 362.343 342.409 360.299 343.558C358.255 344.702 356.854 347.431 358.183 349.204C359.445 350.889 362.119 350.646 364.302 350.232C366.072 349.889 367.848 349.558 369.618 349.221C373.086 348.564 381.846 346.1 379.819 340.807C378.016 336.112 370.685 341.089 367.066 341.829Z" fill="white"/>
<path d="M226.777 331.305C225.822 332.68 224.856 334.1 224.471 335.702C224.085 337.299 224.398 339.155 225.699 340.254C226.659 341.066 227.994 341.348 229.267 341.547C231.802 341.956 234.365 342.177 236.933 342.215C237.503 342.221 238.1 342.221 238.609 341.978C239.692 341.47 239.977 340.138 239.904 339.006C239.72 336.166 238.011 333.454 235.454 331.929C232.891 330.41 229.546 330.128 226.738 331.194L226.777 331.305Z" fill="white"/>
<path d="M134.992 323.068C137.734 323.819 140.699 323.222 143.362 322.239C146.025 321.256 148.521 319.902 151.229 319.046C152.72 318.576 154.602 317.891 154.63 316.416C154.652 314.947 152.793 314.179 151.252 313.925C145.936 313.024 140.218 313.466 135.171 315.3C130.207 317.112 128.359 321.25 134.992 323.068Z" fill="#FFFDB7"/>
<path d="M196.223 319.936C199.506 320.848 203.035 319.837 206.145 318.489C207.329 317.975 208.546 317.362 209.249 316.329C209.958 315.296 209.931 313.727 208.864 313.019C208.401 312.705 207.814 312.6 207.245 312.517C204.364 312.058 193.928 309.915 191.75 312.185C189.21 314.843 193.615 319.218 196.223 319.936Z" fill="white"/>
<path d="M321.297 315.03C325.507 315.256 329.739 315.14 333.933 314.676C334.91 313.312 334.357 311.35 333.112 310.196C331.872 309.03 330.125 308.5 328.427 308.108C324.77 307.262 314.982 305.08 313.681 308.793C312.173 313.107 317.963 314.853 321.297 315.03Z" fill="white"/>
<path d="M315.144 328.935C312.922 329.211 310.822 330.233 309.298 331.774C308.421 332.653 307.706 333.802 307.846 335C308.086 337.067 310.593 338.144 312.776 338.492C315.803 338.984 318.907 338.862 321.973 338.713C323.508 338.635 325.105 338.536 326.468 337.851C327.824 337.166 328.869 335.713 328.528 334.304C328.098 332.531 325.904 331.774 324.033 331.31C321.241 330.625 318.449 329.934 315.658 329.244L315.144 328.935Z" fill="white"/>
<path d="M579.408 656.794C491.096 666.551 399.452 666.827 305.356 660.137C281.268 658.424 262.434 638.901 262.076 615.007L261.697 589.882C261.284 562.299 285.366 540.731 313.106 543.582C399.507 552.454 484.424 552.532 567.353 540.897C595.042 537.013 619.906 557.968 620.319 585.629L620.688 610.455C621.045 634.111 603.172 654.165 579.408 656.794Z" fill="#FADD80"/>
<path d="M308.265 544.581C296.947 544.581 285.969 548.747 277.571 556.354C268.096 564.928 262.769 577.148 262.959 589.859L263.339 614.99C263.685 638.336 281.787 657.208 305.451 658.893C405.197 665.981 494.765 664.887 579.268 655.551C602.513 652.982 619.778 633.608 619.432 610.477L619.058 585.65C618.873 572.85 613.128 560.74 603.295 552.42C593.434 544.073 580.391 540.327 567.537 542.134C487.691 553.332 404.421 554.216 312.977 544.824C311.403 544.658 309.834 544.581 308.265 544.581ZM429.576 665.992C389.764 665.992 348.473 664.456 305.266 661.379C293.289 660.528 282.15 655.335 273.903 646.745C265.639 638.149 260.993 626.884 260.815 615.023L260.441 589.898C260.234 576.474 265.862 563.574 275.874 554.509C285.964 545.377 299.582 540.941 313.24 542.344C404.477 551.708 487.54 550.835 567.174 539.659C580.759 537.753 594.523 541.719 604.931 550.525C615.311 559.304 621.381 572.098 621.582 585.611L621.95 610.438C622.319 634.862 604.088 655.319 579.553 658.031C531.506 663.34 481.817 665.992 429.576 665.992Z" fill="#F7CE4D"/>
<path d="M651.225 654.296C512.197 674.637 376.983 675.311 244.84 660.185C231.143 658.616 220.702 646.86 220.489 632.729L220.261 617.387C220.009 600.438 234.387 587.207 250.792 589.218C385.816 605.77 516.692 604.93 642.788 584.07C659.227 581.351 674.247 594.091 674.504 611.178L674.732 626.144C674.939 640.27 664.849 652.307 651.225 654.296Z" fill="white"/>
<path d="M247.553 590.268C241.333 590.268 235.253 592.561 230.506 596.771C224.677 601.947 221.405 609.455 221.522 617.371L221.751 632.713C221.952 646.181 231.941 657.457 244.979 658.948C381.182 674.538 517.798 672.56 651.041 653.065C664.023 651.164 673.666 639.602 673.459 626.166L673.241 611.195C673.119 603.251 669.595 595.842 663.565 590.87C657.814 586.119 650.315 584.092 642.995 585.302C520.31 605.599 388.295 607.339 250.636 590.456C249.608 590.335 248.581 590.268 247.553 590.268ZM426.862 671.903C366.687 671.903 305.501 668.384 244.689 661.429C230.395 659.793 219.451 647.463 219.227 632.751L218.998 617.404C218.87 608.77 222.449 600.566 228.826 594.914C234.89 589.528 242.952 587.003 250.948 587.981C388.368 604.831 520.126 603.096 642.582 582.838C650.628 581.507 658.863 583.738 665.179 588.953C671.779 594.395 675.637 602.488 675.765 611.156L675.983 626.127C676.206 640.811 665.642 653.451 651.404 655.534C583.355 665.489 514.068 670.958 445.461 671.792C439.274 671.864 433.071 671.903 426.862 671.903Z" fill="#F7CE4D"/>
<path d="M585.243 680.068C494.854 690.288 400.959 690.531 304.501 683.498C282.362 681.885 265.187 663.688 264.863 641.723L264.382 609.675C264.003 584.125 286.321 564.088 312 566.806C401.071 576.214 488.567 576.33 573.936 563.972C599.57 560.259 622.62 579.783 623.005 605.405L623.474 637.154C623.803 659.064 607.248 677.576 585.243 680.068Z" fill="#FADD80"/>
<path d="M307.416 567.806C297.03 567.806 286.941 571.629 279.213 578.612C270.413 586.556 265.466 597.87 265.645 609.654L266.119 641.707C266.443 663.246 282.982 680.676 304.596 682.256C406.967 689.719 498.718 688.598 585.098 678.831C606.578 676.395 622.531 658.49 622.218 637.171L621.743 605.422C621.565 593.533 616.216 582.297 607.069 574.59C597.957 566.911 585.952 563.492 574.12 565.204C492.046 577.087 406.264 578.015 311.866 568.044C310.381 567.889 308.896 567.806 307.416 567.806ZM432.317 689.609C391.395 689.609 348.903 687.985 304.412 684.742C293.395 683.941 283.161 679.09 275.584 671.097C268.023 663.114 263.763 652.689 263.601 641.745L263.121 609.692C262.937 597.196 268.18 585.192 277.51 576.767C286.885 568.309 299.498 564.226 312.134 565.563C406.314 575.513 491.889 574.585 573.757 562.735C586.298 560.923 599.04 564.547 608.705 572.69C618.404 580.866 624.072 592.782 624.262 605.389L624.736 637.138C625.077 659.738 608.153 678.731 585.382 681.306C536.402 686.847 485.692 689.609 432.317 689.609Z" fill="#F7CE4D"/>
<path d="M449.068 585.44C436.047 585.44 427.387 578.607 418.994 571.994C409.988 564.889 400.691 557.542 385.571 557.923C373.376 558.221 365.168 563.326 357.228 568.265C348.4 573.762 340.064 578.944 327.132 577.695C313.614 576.391 300.738 568.464 288.867 554.133C288.426 553.603 288.504 552.819 289.04 552.382C289.582 551.94 290.375 552.018 290.816 552.553C302.251 566.348 314.552 573.972 327.372 575.215C339.449 576.38 347.44 571.414 355.888 566.155C364.118 561.039 372.622 555.747 385.509 555.426C401.562 555.034 411.211 562.663 420.569 570.038C429.548 577.126 438.035 583.816 451.62 582.855C464.06 581.971 471.548 575.436 479.477 568.519C487.322 561.674 495.429 554.597 508.568 553.631C522.047 552.631 531.193 561.503 539.267 569.326C546.107 575.955 551.998 581.678 559 580.126C567.615 578.203 574.366 567.265 579.067 547.62C579.229 546.952 579.905 546.537 580.58 546.698C581.262 546.852 581.68 547.526 581.518 548.195C576.577 568.851 569.19 580.408 559.547 582.557C551.233 584.407 544.56 577.949 537.502 571.11C529.808 563.652 521.103 555.211 508.752 556.117C496.468 557.023 489.025 563.514 481.146 570.392C473.251 577.275 465.082 584.396 451.799 585.341C450.866 585.407 449.956 585.44 449.068 585.44Z" fill="white"/>
<path d="M611.274 505.209C610.995 505.209 610.727 505.126 610.492 504.949C609.939 504.519 609.833 503.729 610.263 503.176C613.329 499.259 616.349 495.226 619.225 491.205C619.633 490.636 620.431 490.503 621.001 490.901C621.576 491.304 621.71 492.089 621.302 492.658C618.404 496.713 615.367 500.773 612.279 504.723C612.028 505.043 611.654 505.209 611.274 505.209Z" fill="black"/>
<path d="M620.258 493.177C620.012 493.177 619.761 493.105 619.538 492.95C618.963 492.552 618.834 491.773 619.236 491.215C659.422 435.07 680.874 369.274 679.635 305.953C679.618 305.268 680.176 304.694 680.874 304.683C681.55 304.655 682.142 305.218 682.153 305.904C682.784 337.995 677.809 370.44 667.379 402.338C657.01 434.032 641.504 464.416 621.297 492.652C621.051 492.994 620.66 493.177 620.258 493.177Z" fill="black"/>
<path d="M617.729 468.643C617.5 468.643 617.276 468.582 617.075 468.46C616.478 468.101 616.294 467.333 616.657 466.742C642.805 424.292 657.814 377.318 660.058 330.891C660.092 330.2 660.701 329.675 661.376 329.709C662.074 329.742 662.61 330.322 662.577 331.012C660.31 377.854 645.178 425.237 618.806 468.04C618.566 468.427 618.153 468.643 617.729 468.643Z" fill="black"/>
<path d="M210.065 112.747C210.059 112.747 210.048 112.747 210.037 112.747C209.344 112.736 208.792 112.161 208.803 111.471L210.523 31.1676C210.539 30.477 211.092 29.9301 211.807 29.9467C212.505 29.9577 213.058 30.5322 213.041 31.2173L211.327 111.526C211.31 112.211 210.751 112.747 210.065 112.747Z" fill="black"/>
<path d="M189.427 113.675C188.936 113.675 188.472 113.398 188.266 112.923L157.639 42.2547C157.366 41.6249 157.662 40.8846 158.304 40.6195C158.94 40.3488 159.683 40.6416 159.962 41.2714L190.583 111.94C190.857 112.57 190.561 113.305 189.919 113.575C189.757 113.647 189.589 113.675 189.427 113.675Z" fill="black"/>
<path d="M172.017 121.967C169.12 121.967 166.925 121.194 165.496 119.658C164.223 118.299 164.072 116.901 163.932 115.664C163.832 114.725 163.742 113.913 163.167 113.073C162.073 111.471 160.169 111.311 157.958 111.112C155.68 110.913 153.089 110.686 151.162 108.698C148.817 106.272 149.32 103.168 149.761 100.427C150.157 97.9912 150.526 95.6819 149.119 93.8478C147.516 91.7596 144.602 91.627 141.508 91.4889C138.13 91.3397 134.294 91.1629 131.999 88.0969C130.079 85.5225 130.453 82.6056 130.782 80.0422C131.067 77.849 131.312 75.9542 130.14 74.6891C128.448 72.8494 124.372 72.7831 118.375 74.5012C117.711 74.6946 117.007 74.3134 116.812 73.6505C116.622 72.9875 117.007 72.297 117.677 72.1092C124.863 70.0485 129.548 70.3413 132.005 73.0096C133.959 75.1255 133.613 77.7883 133.284 80.3571C132.988 82.6664 132.703 84.8485 134.026 86.6108C135.606 88.7322 138.532 88.8593 141.626 88.9918C144.993 89.1465 148.812 89.3178 151.129 92.3397C153.184 95.0245 152.687 98.1016 152.251 100.82C151.849 103.3 151.503 105.438 152.983 106.968C154.256 108.283 156.165 108.454 158.187 108.626C160.671 108.847 163.491 109.095 165.256 111.675C166.177 113.023 166.322 114.343 166.439 115.399C166.557 116.448 166.64 117.211 167.35 117.968C168.522 119.222 170.677 119.702 173.754 119.376C174.452 119.304 175.066 119.802 175.139 120.487C175.211 121.172 174.709 121.779 174.016 121.857C173.318 121.929 172.654 121.967 172.017 121.967Z" fill="black"/>
<path d="M591.937 141.43C588.163 143.103 586.454 147.573 588.118 151.396C588.928 153.252 590.413 154.677 592.289 155.401C594.132 156.108 596.131 156.053 597.929 155.257C601.703 153.578 603.417 149.109 601.748 145.297C600.944 143.429 599.464 142.01 597.583 141.286C595.746 140.584 593.741 140.629 591.937 141.43ZM594.941 158.39C593.735 158.39 592.535 158.174 591.379 157.727C588.861 156.76 586.884 154.859 585.801 152.379C583.595 147.319 585.885 141.385 590.904 139.159C593.322 138.082 596.019 138.01 598.487 138.96C601.005 139.927 602.982 141.827 604.065 144.308C606.271 149.368 603.987 155.301 598.962 157.533C597.677 158.108 596.309 158.39 594.941 158.39Z" fill="black"/>
<path d="M574.416 112.675C574.321 112.675 574.237 112.67 574.143 112.647C573.461 112.498 573.031 111.83 573.188 111.156L574.589 104.88C574.74 104.206 575.416 103.781 576.097 103.924C576.772 104.079 577.202 104.742 577.052 105.421L575.639 111.697C575.511 112.277 574.991 112.675 574.416 112.675Z" fill="black"/>
<path d="M571.133 127.309C571.044 127.309 570.949 127.298 570.854 127.276C570.178 127.132 569.748 126.464 569.899 125.79L571.306 119.508C571.457 118.84 572.127 118.409 572.808 118.564C573.489 118.713 573.919 119.376 573.769 120.05L572.356 126.331C572.227 126.911 571.703 127.309 571.133 127.309Z" fill="black"/>
<path d="M569.257 115.924C569.168 115.924 569.073 115.918 568.978 115.896L562.635 114.504C561.953 114.355 561.524 113.692 561.674 113.018C561.825 112.344 562.495 111.919 563.182 112.068L569.525 113.46C570.206 113.609 570.636 114.278 570.48 114.946C570.357 115.532 569.832 115.924 569.257 115.924Z" fill="black"/>
<path d="M584.042 119.172C583.953 119.172 583.864 119.166 583.769 119.144L577.426 117.752C576.745 117.597 576.315 116.929 576.465 116.26C576.616 115.586 577.286 115.161 577.967 115.31L584.316 116.708C584.997 116.857 585.427 117.525 585.271 118.194C585.148 118.774 584.629 119.172 584.042 119.172Z" fill="black"/>
<path d="M145.277 184.852H115.198C109.045 184.852 104.734 178.83 106.778 173.079L114.081 152.589L151.872 158.323V178.322C151.872 181.929 148.918 184.852 145.277 184.852Z" fill="black"/>
<path d="M151.871 158.318C151.871 168.886 143.217 177.449 132.535 177.449C121.854 177.449 113.199 168.886 113.199 158.318C113.199 147.749 121.854 139.187 132.535 139.187C143.217 139.187 151.871 147.749 151.871 158.318Z" fill="black"/>
<path d="M212.354 312.124L208.892 338.393L222.204 348.409L229.328 320.234L212.354 312.124Z" fill="white"/>
<path d="M210.238 337.835L221.444 346.265L227.86 320.914L213.381 313.991L210.238 337.835ZM222.204 349.652C221.93 349.652 221.662 349.563 221.439 349.398L208.127 339.387C207.77 339.111 207.585 338.675 207.641 338.233L211.109 311.964C211.159 311.561 211.399 311.218 211.756 311.025C212.114 310.831 212.538 310.826 212.901 310.997L229.881 319.107C230.417 319.361 230.702 319.958 230.557 320.532L223.426 348.707C223.326 349.116 223.024 349.442 222.622 349.585C222.488 349.63 222.343 349.652 222.204 349.652Z" fill="black"/>
<path d="M146.718 294.738C146.718 294.738 207.898 216.601 230.791 226.241C253.69 235.876 244.421 299.539 230.305 324.598L209.59 319.267V306.925L196.474 329.885L146.718 294.738Z" fill="black"/>
<path d="M229.289 329.294C237.156 334.725 256.169 348.337 264.477 359.877C266.504 362.695 264.717 366.634 261.244 366.982C248.804 368.225 223.594 366.396 205.86 351.668C205.86 351.668 206.094 346.033 209.718 335.995L219.155 339.84L218.44 338.426C217.368 336.293 217.898 333.714 219.73 332.172L222.795 329.603C224.638 328.051 227.301 327.924 229.289 329.294Z" fill="#F7CE4D"/>
<path d="M250.144 363.23C228.34 363.23 209.138 351.137 208.205 350.541C207.619 350.17 207.451 349.397 207.831 348.817C208.211 348.242 208.993 348.071 209.573 348.447C209.83 348.613 235.582 364.81 260.401 359.728C261.077 359.595 261.747 360.026 261.887 360.7C262.032 361.374 261.591 362.031 260.91 362.17C257.297 362.915 253.684 363.23 250.144 363.23Z" fill="white"/>
<path d="M233.874 345.392C233.572 345.392 233.27 345.287 233.03 345.072C232.511 344.608 232.472 343.823 232.935 343.31L239.273 336.349C239.736 335.841 240.535 335.796 241.049 336.255C241.568 336.719 241.612 337.509 241.143 338.017L234.812 344.978C234.56 345.254 234.22 345.392 233.874 345.392Z" fill="white"/>
<path d="M239.887 349.651C239.552 349.651 239.222 349.524 238.971 349.264C238.497 348.762 238.519 347.972 239.021 347.502L245.683 341.254C246.191 340.784 246.984 340.801 247.464 341.298C247.944 341.801 247.922 342.591 247.414 343.066L240.758 349.309C240.512 349.535 240.2 349.651 239.887 349.651Z" fill="white"/>
<path d="M259.212 457.765C259.212 458.417 273.769 489.845 273.769 489.845L257.225 491.154L245.979 464.306L259.212 457.765Z" fill="white"/>
<path d="M247.592 464.908L258.039 489.834L271.876 488.74C262.853 469.25 259.675 462.151 258.559 459.483L247.592 464.908ZM257.224 492.403C256.722 492.403 256.258 492.099 256.063 491.629L244.812 464.786C244.56 464.178 244.823 463.482 245.415 463.189L258.648 456.648C259.039 456.45 259.502 456.472 259.876 456.698C260.178 456.881 260.373 457.179 260.446 457.505C260.971 459.057 269.358 477.321 274.919 489.32C275.086 489.696 275.064 490.121 274.857 490.475C274.651 490.823 274.282 491.055 273.869 491.082L257.33 492.397C257.297 492.397 257.263 492.403 257.224 492.403Z" fill="black"/>
<path d="M258.553 483.298C258.553 483.298 261.859 475.437 270.463 479.365C270.463 479.365 286.254 501.932 292.122 520.566C293.781 525.836 288.314 530.587 283.227 528.317C271.329 523.002 252.679 511.843 242.009 491.154C242.009 491.154 245.32 482.641 250.608 478.713L258.553 483.298Z" fill="#F7CE4D"/>
<path d="M243.394 491.094C253.651 510.59 270.971 521.473 283.747 527.18C285.651 528.031 287.812 527.705 289.386 526.323C290.95 524.959 291.53 522.898 290.922 520.943C285.528 503.828 271.457 483.034 269.626 480.366C267.398 479.41 265.41 479.261 263.69 479.918C260.954 480.957 259.72 483.752 259.709 483.78C259.57 484.111 259.296 484.365 258.95 484.476C258.604 484.586 258.224 484.553 257.911 484.371L250.725 480.222C246.85 483.492 244.147 489.343 243.394 491.094ZM285.919 530.146C284.841 530.146 283.752 529.92 282.708 529.456C269.453 523.528 251.434 512.175 240.887 491.718C240.725 491.403 240.702 491.039 240.831 490.707C240.97 490.343 244.332 481.813 249.854 477.714C250.262 477.41 250.809 477.382 251.244 477.637L258.068 481.57C258.855 480.344 260.351 478.526 262.758 477.598C265.215 476.648 267.99 476.863 270.994 478.239C271.195 478.327 271.373 478.471 271.496 478.659C271.658 478.885 287.466 501.596 293.328 520.197C294.244 523.103 293.373 526.169 291.056 528.191C289.587 529.478 287.773 530.146 285.919 530.146Z" fill="black"/>
<path d="M287.303 523.882C282.792 523.882 266.314 521.661 244.957 492.541C244.549 491.978 244.672 491.199 245.236 490.796C245.8 490.392 246.587 490.519 247.001 491.072C270.619 523.285 287.979 521.368 288.152 521.34C288.833 521.252 289.476 521.722 289.57 522.401C289.671 523.086 289.202 523.71 288.51 523.815C288.415 523.826 288.001 523.882 287.303 523.882Z" fill="white"/>
<path d="M273.775 506.148C273.339 506.148 272.92 505.927 272.686 505.529C272.328 504.933 272.535 504.17 273.138 503.828L281.078 499.243C281.675 498.895 282.452 499.093 282.803 499.69C283.15 500.281 282.948 501.049 282.351 501.397L274.405 505.982C274.21 506.093 273.987 506.148 273.775 506.148Z" fill="white"/>
<path d="M269.804 500.259C269.352 500.259 268.916 500.016 268.693 499.602C268.358 498.994 268.593 498.237 269.201 497.911L277.806 493.326C278.414 493.006 279.185 493.227 279.514 493.834C279.844 494.442 279.615 495.199 279.001 495.525L270.402 500.11C270.212 500.21 270.005 500.259 269.804 500.259Z" fill="white"/>
<path d="M264.505 463.654L242.009 470.2C242.009 470.2 200.98 384.433 189.07 371.992C177.154 359.551 153.993 339.254 129.515 332.056C105.03 324.852 105.03 306.522 105.03 306.522L158.449 287.634C158.449 287.634 204.95 319.615 224.141 347.767C243.332 375.92 264.505 463.654 264.505 463.654Z" fill="black"/>
<path d="M205.207 327.179C204.877 327.179 204.548 327.057 204.302 326.803C198.115 320.5 179.779 305.252 179.594 305.103C179.058 304.661 178.991 303.871 179.438 303.346C179.885 302.821 180.683 302.75 181.214 303.192C181.973 303.821 199.835 318.671 206.111 325.068C206.597 325.56 206.58 326.35 206.083 326.831C205.838 327.063 205.519 327.179 205.207 327.179Z" fill="white"/>
<path d="M143.657 190.925C143.657 190.925 163.49 193.764 175.791 207.984C188.086 222.199 206.004 234.723 206.479 255.329C206.953 275.924 181.341 283.564 170.458 268.626C159.57 253.688 143.657 190.925 143.657 190.925Z" fill="#FADD80"/>
<path d="M96.4858 196.144C96.4858 196.144 131.763 176.781 162.005 196.845L179.336 282.518C134.829 303.804 123.254 360.043 104.068 314.698C97.9041 300.13 97.8818 283.071 97.9041 280.121L96.4858 196.144Z" fill="#FADD80"/>
<path d="M202.538 212.596C202.538 212.596 207.301 247.162 205.274 253.355C203.242 259.542 200.405 267.017 192.722 260.31C185.044 253.609 193.833 220.23 193.833 220.23L202.538 212.596Z" fill="white"/>
<path d="M194.961 220.91C192.538 230.268 187.814 254.36 193.554 259.376C195.676 261.227 197.446 261.979 198.825 261.608C201.477 260.89 203.102 255.935 204.074 252.968C205.548 248.466 203.024 225.937 201.6 215.087L194.961 220.91ZM198.088 264.205C196.195 264.205 194.157 263.227 191.89 261.249C183.861 254.233 191.695 223.407 192.616 219.915C192.677 219.678 192.811 219.462 193.001 219.297L201.7 211.662C202.052 211.358 202.538 211.27 202.974 211.424C203.415 211.59 203.722 211.971 203.789 212.424C204.28 215.993 208.529 247.455 206.469 253.736C204.945 258.393 203.152 263.028 199.489 264.017C199.031 264.139 198.562 264.205 198.088 264.205Z" fill="black"/>
<path d="M172.118 259.128C171.537 259.128 171.012 258.725 170.89 258.134L162.347 217.822C162.201 217.148 162.637 216.485 163.318 216.347C163.994 216.203 164.669 216.64 164.809 217.308L173.352 257.625C173.497 258.299 173.062 258.957 172.38 259.1C172.291 259.122 172.207 259.128 172.118 259.128Z" fill="black"/>
<path d="M140.838 179.129C147.327 177.853 150.029 157.876 150.118 157.6C150.124 157.589 150.124 157.584 150.13 157.573L129.034 156.225C129.442 157.324 129.844 158.324 129.956 159.014C130.341 161.368 126.371 158.429 124.657 159.186C123.523 159.694 123.082 161.224 124.193 163.312C124.891 164.622 126.053 165.892 127.086 166.511C127.248 167.743 127.583 168.975 128.052 170.157L128.001 170.13L122.317 187.465L110.765 192.548C138.722 204.829 147.572 192.598 147.572 192.598L136.958 188.62L138.153 179.201C139.04 179.317 139.939 179.3 140.838 179.129Z" fill="white"/>
<path d="M113.925 192.526C133.071 200.194 142.184 195.52 145.277 193.073L136.505 189.791C135.964 189.581 135.629 189.034 135.701 188.465L136.902 179.052C136.946 178.715 137.12 178.416 137.388 178.217C137.65 178.013 137.985 177.925 138.32 177.969C139.096 178.068 139.861 178.052 140.593 177.908C143.675 177.306 146.74 169.986 148.655 158.733L130.871 157.595C131.022 158.042 131.139 158.451 131.201 158.821C131.368 159.865 130.983 160.451 130.62 160.755C129.727 161.522 128.515 161.147 127.231 160.744C126.667 160.567 125.489 160.197 125.171 160.335C125.076 160.373 124.947 160.451 124.869 160.672C124.707 161.141 124.869 161.909 125.31 162.738C125.891 163.826 126.885 164.942 127.733 165.445C128.063 165.638 128.286 165.97 128.336 166.351C128.482 167.456 128.778 168.588 129.219 169.704C129.375 170.096 129.319 170.538 129.079 170.875L123.518 187.852C123.406 188.189 123.155 188.465 122.831 188.609L113.925 192.526ZM132.831 199.293C127.192 199.293 119.793 197.884 110.257 193.691C109.799 193.498 109.508 193.045 109.508 192.559C109.508 192.062 109.799 191.614 110.257 191.415L121.29 186.554L126.684 170.102C126.337 169.152 126.081 168.196 125.919 167.24C124.841 166.445 123.763 165.191 123.077 163.898C122.077 162.02 122.206 160.661 122.49 159.854C122.775 159.036 123.361 158.396 124.138 158.053C125.316 157.528 126.74 157.97 127.99 158.362C128.152 158.412 128.342 158.473 128.526 158.528C128.398 158.13 128.225 157.661 128.041 157.18L127.851 156.655C127.705 156.263 127.767 155.821 128.024 155.484C128.281 155.147 128.694 154.959 129.113 154.987L150.208 156.335C150.593 156.357 150.95 156.556 151.168 156.871C151.375 157.169 151.436 157.545 151.347 157.893C151.336 157.948 151.319 158.048 151.297 158.191C149.767 167.688 146.751 179.245 141.084 180.355C140.487 180.471 139.889 180.527 139.258 180.527L138.331 187.802L148.019 191.437C148.382 191.575 148.661 191.868 148.778 192.244C148.89 192.608 148.823 193.012 148.594 193.327C148.337 193.68 144.082 199.293 132.831 199.293Z" fill="black"/>
<path d="M131.776 174.185C131.776 174.185 133.083 178.797 138.153 179.201L131.776 174.185Z" fill="white"/>
<path d="M138.158 180.444C138.125 180.444 138.091 180.444 138.052 180.444C132.178 179.974 130.626 174.737 130.564 174.521C130.375 173.853 130.765 173.162 131.435 172.98C132.106 172.792 132.798 173.179 132.988 173.836C133.038 174.008 134.166 177.626 138.259 177.958C138.951 178.013 139.465 178.615 139.415 179.3C139.359 179.952 138.806 180.444 138.158 180.444Z" fill="black"/>
<path d="M211.075 210.756C197.82 205.354 184.838 198.36 172.051 190.183C168.779 188.095 167.646 183.886 169.472 180.483L171.392 176.897C173.492 172.964 178.59 171.765 182.292 174.295C193.816 182.19 205.821 188.714 218.463 193.437C222.684 195.017 224.554 199.89 222.444 203.834L220.551 207.375C218.742 210.745 214.643 212.209 211.075 210.756Z" fill="#F7CE4D"/>
<path d="M177.992 174.218C177.501 174.218 177.004 174.273 176.518 174.389C174.77 174.814 173.346 175.908 172.503 177.477L170.588 181.062C169.064 183.908 169.99 187.382 172.738 189.139C186.233 197.768 198.936 204.459 211.555 209.602C214.537 210.817 217.926 209.607 219.434 206.79L221.332 203.249C222.164 201.691 222.282 199.846 221.651 198.199C221.02 196.542 219.696 195.233 218.016 194.608C205.765 190.029 193.844 183.725 181.577 175.323C180.51 174.593 179.259 174.218 177.992 174.218ZM213.951 212.568C212.828 212.568 211.695 212.358 210.595 211.911C197.831 206.707 184.999 199.945 171.37 191.233C167.511 188.769 166.216 183.897 168.36 179.897L170.275 176.311C171.442 174.135 173.497 172.549 175.915 171.969C178.355 171.378 180.94 171.853 183.012 173.268C195.106 181.554 206.848 187.769 218.909 192.272C221.26 193.15 223.119 194.99 224.013 197.315C224.895 199.636 224.733 202.221 223.56 204.414L221.662 207.955C220.098 210.878 217.1 212.568 213.951 212.568Z" fill="#F7CE4D"/>
<path d="M221.433 215.91C200.17 208.115 180.996 197.829 163.491 185.542C161.677 184.266 161.124 181.802 162.201 179.792L163.374 177.604C164.664 175.184 167.74 174.416 169.901 175.963C187.702 188.669 206.273 198.602 225.749 205.331C228.284 206.209 229.412 209.165 228.105 211.607L226.961 213.739C225.883 215.75 223.516 216.678 221.433 215.91Z" fill="white"/>
<path d="M167.4 176.411C167.16 176.411 166.92 176.438 166.68 176.499C165.747 176.709 164.949 177.328 164.485 178.19L163.313 180.377C162.537 181.836 162.922 183.615 164.217 184.532C182.185 197.139 201.583 207.309 221.869 214.745C223.354 215.292 225.068 214.612 225.85 213.159L226.989 211.021C227.452 210.16 227.514 209.16 227.168 208.276C226.833 207.431 226.179 206.806 225.331 206.514C206.29 199.928 187.389 189.995 169.164 176.974C168.639 176.604 168.031 176.411 167.4 176.411ZM222.918 217.43C222.276 217.43 221.623 217.319 220.992 217.087C200.5 209.569 180.907 199.299 162.76 186.565C160.437 184.93 159.717 181.77 161.085 179.212L162.257 177.019C163.061 175.521 164.463 174.444 166.104 174.068C167.685 173.698 169.337 174.03 170.638 174.952C188.668 187.83 207.351 197.652 226.162 204.16C227.692 204.69 228.915 205.856 229.513 207.364C230.132 208.922 230.026 210.684 229.217 212.193L228.072 214.32C227.028 216.275 225.007 217.43 222.918 217.43Z" fill="black"/>
<path d="M210.076 214.496C196.491 208.999 183.19 201.829 170.102 193.426C167.098 191.498 166.093 187.603 167.768 184.476L170.214 179.902C172.168 176.256 176.892 175.14 180.315 177.494C192.175 185.67 204.537 192.404 217.586 197.21C221.5 198.652 223.225 203.182 221.271 206.834L218.848 211.364C217.178 214.485 213.381 215.833 210.076 214.496Z" fill="#F7CE4D"/>
<path d="M210.55 213.342C213.275 214.441 216.363 213.342 217.737 210.778L220.16 206.254C220.925 204.823 221.031 203.138 220.45 201.63C219.87 200.122 218.664 198.939 217.145 198.376C204.515 193.724 192.236 187.228 179.595 178.521C178.255 177.599 176.579 177.289 174.999 177.665C173.425 178.04 172.09 179.074 171.331 180.488L168.885 185.057C167.523 187.603 168.355 190.824 170.784 192.382C184.62 201.26 197.63 208.116 210.55 213.342ZM212.728 216.264C211.684 216.264 210.623 216.071 209.596 215.651C196.53 210.364 183.386 203.436 169.416 194.47C165.836 192.178 164.653 187.631 166.657 183.891L169.103 179.317C170.197 177.273 172.129 175.787 174.402 175.245C176.691 174.693 179.103 175.146 181.035 176.472C193.498 185.062 205.598 191.459 218.021 196.039C220.227 196.851 221.969 198.564 222.801 200.74C223.644 202.923 223.493 205.359 222.388 207.419L219.965 211.944C218.502 214.684 215.687 216.264 212.728 216.264Z" fill="black"/>
<path d="M214.805 199.873C214.459 199.873 214.13 199.823 213.8 199.735C211.924 199.199 211.36 197.354 210.858 195.719C210.377 194.144 209.925 192.664 208.546 192.045C207.061 191.371 205.732 191.669 204.191 192.006C202.449 192.399 200.472 192.835 198.194 191.802C195.676 190.658 194.821 188.631 194.068 186.847C193.364 185.184 192.755 183.747 190.935 182.814C189.444 182.051 188.093 182.134 186.658 182.217C184.966 182.317 183.034 182.433 181.007 181.062C178.953 179.676 177.607 177.339 176.998 174.118C176.87 173.439 177.322 172.787 178.003 172.665C178.685 172.538 179.349 172.98 179.477 173.66C179.958 176.206 180.951 178.002 182.426 179.002C183.743 179.891 184.966 179.819 186.513 179.726C188.138 179.632 189.986 179.521 192.091 180.598C194.726 181.946 195.614 184.04 196.39 185.885C197.077 187.509 197.624 188.797 199.244 189.531C200.746 190.216 202.086 189.918 203.638 189.576C205.369 189.189 207.329 188.752 209.59 189.769C212.008 190.863 212.711 193.155 213.27 195.001C213.677 196.315 213.979 197.194 214.498 197.337C214.928 197.459 216.207 197.437 218.809 194.586C219.272 194.078 220.071 194.034 220.59 194.498C221.104 194.956 221.148 195.746 220.679 196.26C218.468 198.68 216.536 199.873 214.805 199.873Z" fill="white"/>
<path d="M164.502 239.665C160.253 241.676 155.624 243.096 150.654 243.555C123.875 246.007 118.012 204.116 118.012 204.116L96.6211 196.486C65.9388 223.849 112.685 280.563 149.521 274.243C162.358 272.044 172.218 265.984 179.728 258.553C167.361 254.543 164.764 245.61 164.502 239.665Z" fill="#FADD80"/>
<path d="M205.425 189.978L200.997 184.211L196.446 202.303L196.401 194.658C196.401 194.658 194.196 196.978 193.274 200.381C192.381 203.679 193.481 211.712 193.548 212.198C190.488 217.092 180.052 232.323 164.502 239.671C164.759 245.615 166.233 254.15 178.595 258.167C196.435 240.527 202.192 215.535 202.192 215.535C209.322 205.579 205.425 189.978 205.425 189.978Z" fill="white"/>
<path d="M165.808 240.422C166.205 246.61 168.209 253.195 178.26 256.725C195.212 239.572 200.913 215.491 200.969 215.248C201.002 215.087 201.075 214.938 201.17 214.806C207.407 206.099 204.699 192.487 204.258 190.515L201.583 187.034L197.674 202.597C197.518 203.204 196.932 203.608 196.301 203.536C195.67 203.458 195.19 202.928 195.19 202.304L195.167 198.851C194.911 199.414 194.676 200.033 194.497 200.696C193.833 203.155 194.402 209.176 194.799 212.021C194.838 212.309 194.777 212.607 194.626 212.85C191.761 217.424 181.331 232.76 165.808 240.422ZM178.601 259.41C178.467 259.41 178.338 259.388 178.204 259.349C165.384 255.184 163.525 246.157 163.24 239.721C163.223 239.224 163.502 238.754 163.96 238.539C178.88 231.489 189.115 216.839 192.242 211.916C191.99 209.966 191.209 203.204 192.063 200.05C193.051 196.387 195.391 193.907 195.491 193.802C195.843 193.426 196.39 193.31 196.87 193.492C197.032 193.559 197.172 193.652 197.295 193.768L199.774 183.902C199.891 183.438 200.271 183.079 200.746 182.985C201.22 182.885 201.706 183.068 202.002 183.454L206.43 189.222C206.536 189.354 206.608 189.509 206.647 189.675C206.815 190.332 210.556 205.751 203.364 216.049C202.705 218.711 196.429 242.29 179.488 259.045C179.248 259.283 178.93 259.41 178.601 259.41Z" fill="black"/>
<path d="M150.56 244.754C134.412 244.754 126.812 232.92 121.954 222.17C121.67 221.545 121.954 220.805 122.591 220.523C123.228 220.242 123.976 220.523 124.255 221.153C131.871 237.986 141.408 244.157 156.143 241.792C156.824 241.682 157.478 242.14 157.589 242.82C157.701 243.5 157.232 244.146 156.545 244.251C154.429 244.593 152.436 244.754 150.56 244.754Z" fill="black"/>
<path d="M144.791 273.872C143.033 273.872 141.223 273.789 139.375 273.596C124.249 272.06 110.128 264.16 97.4195 250.123C96.9561 249.609 97.0007 248.819 97.52 248.36C98.0393 247.902 98.8378 247.946 99.3012 248.454C126.583 278.596 153.803 272.591 167.595 266.326C168.232 266.039 168.974 266.315 169.265 266.945C169.561 267.569 169.281 268.309 168.65 268.596C163.078 271.121 154.736 273.872 144.791 273.872Z" fill="black"/>
</svg>
